<svg width="800" height="813" viewBox="0 0 800 813" fill="none" xmlns="http://www.w3.org/2000/svg">
<rect width="800" height="813" fill="#F7F7F7"/>
<rect x="45.4232" y="75.4232" width="708.762" height="641.017" rx="9.96252" fill="#F8F9FA"/>
<path d="M163.787 237.243H159.145L169.575 208.261H174.627L185.056 237.243H180.415L172.221 213.526H171.995L163.787 237.243ZM164.565 225.894H179.622V229.573H164.565V225.894ZM205.035 220.813L201.2 221.493C201.039 221.002 200.784 220.535 200.435 220.092C200.096 219.648 199.633 219.285 199.049 219.002C198.464 218.719 197.732 218.578 196.855 218.578C195.657 218.578 194.657 218.846 193.855 219.384C193.053 219.913 192.652 220.597 192.652 221.436C192.652 222.163 192.921 222.748 193.459 223.191C193.997 223.634 194.864 223.998 196.063 224.281L199.516 225.073C201.516 225.535 203.006 226.248 203.987 227.21C204.969 228.172 205.459 229.422 205.459 230.96C205.459 232.262 205.082 233.422 204.327 234.441C203.582 235.451 202.539 236.243 201.2 236.819C199.869 237.394 198.327 237.682 196.572 237.682C194.138 237.682 192.152 237.163 190.614 236.125C189.077 235.078 188.133 233.592 187.784 231.668L191.874 231.045C192.129 232.111 192.652 232.918 193.445 233.465C194.237 234.003 195.27 234.271 196.544 234.271C197.931 234.271 199.039 233.984 199.869 233.408C200.7 232.823 201.115 232.111 201.115 231.271C201.115 230.592 200.86 230.021 200.35 229.559C199.85 229.097 199.082 228.748 198.044 228.512L194.364 227.705C192.336 227.243 190.836 226.507 189.864 225.498C188.902 224.488 188.421 223.21 188.421 221.663C188.421 220.38 188.779 219.257 189.496 218.295C190.213 217.332 191.204 216.582 192.468 216.044C193.732 215.497 195.181 215.224 196.813 215.224C199.162 215.224 201.011 215.733 202.36 216.752C203.709 217.762 204.601 219.115 205.035 220.813ZM226.4 220.813L222.565 221.493C222.404 221.002 222.149 220.535 221.8 220.092C221.461 219.648 220.998 219.285 220.414 219.002C219.829 218.719 219.097 218.578 218.22 218.578C217.022 218.578 216.022 218.846 215.22 219.384C214.418 219.913 214.017 220.597 214.017 221.436C214.017 222.163 214.286 222.748 214.824 223.191C215.361 223.634 216.229 223.998 217.428 224.281L220.881 225.073C222.881 225.535 224.371 226.248 225.352 227.21C226.333 228.172 226.824 229.422 226.824 230.96C226.824 232.262 226.447 233.422 225.692 234.441C224.947 235.451 223.904 236.243 222.565 236.819C221.234 237.394 219.692 237.682 217.937 237.682C215.503 237.682 213.517 237.163 211.979 236.125C210.442 235.078 209.498 233.592 209.149 231.668L213.239 231.045C213.494 232.111 214.017 232.918 214.81 233.465C215.602 234.003 216.635 234.271 217.909 234.271C219.296 234.271 220.404 233.984 221.234 233.408C222.064 232.823 222.48 232.111 222.48 231.271C222.48 230.592 222.225 230.021 221.715 229.559C221.215 229.097 220.447 228.748 219.409 228.512L215.729 227.705C213.701 227.243 212.201 226.507 211.229 225.498C210.267 224.488 209.786 223.21 209.786 221.663C209.786 220.38 210.144 219.257 210.861 218.295C211.578 217.332 212.569 216.582 213.833 216.044C215.097 215.497 216.545 215.224 218.178 215.224C220.527 215.224 222.376 215.733 223.725 216.752C225.074 217.762 225.966 219.115 226.4 220.813ZM231.476 237.243V215.507H235.708V237.243H231.476ZM233.613 212.153C232.877 212.153 232.245 211.908 231.717 211.417C231.198 210.917 230.939 210.323 230.939 209.634C230.939 208.936 231.198 208.341 231.717 207.851C232.245 207.351 232.877 207.101 233.613 207.101C234.349 207.101 234.976 207.351 235.495 207.851C236.024 208.341 236.288 208.936 236.288 209.634C236.288 210.323 236.024 210.917 235.495 211.417C234.976 211.908 234.349 212.153 233.613 212.153ZM245.631 224.337V237.243H241.4V215.507H245.461V219.045H245.73C246.23 217.894 247.013 216.969 248.079 216.271C249.155 215.573 250.509 215.224 252.141 215.224C253.622 215.224 254.919 215.535 256.032 216.158C257.146 216.771 258.009 217.686 258.622 218.903C259.235 220.12 259.542 221.625 259.542 223.417V237.243H255.311V223.927C255.311 222.351 254.9 221.12 254.079 220.233C253.259 219.337 252.131 218.889 250.697 218.889C249.716 218.889 248.844 219.101 248.079 219.526C247.325 219.95 246.726 220.573 246.282 221.394C245.848 222.205 245.631 223.186 245.631 224.337ZM274.585 237.682C272.443 237.682 270.599 237.224 269.052 236.309C267.514 235.385 266.325 234.087 265.485 232.418C264.655 230.738 264.24 228.771 264.24 226.516C264.24 224.29 264.655 222.328 265.485 220.63C266.325 218.931 267.495 217.606 268.995 216.653C270.504 215.7 272.269 215.224 274.288 215.224C275.514 215.224 276.703 215.427 277.854 215.832C279.005 216.238 280.038 216.875 280.953 217.743C281.868 218.611 282.59 219.738 283.118 221.125C283.646 222.502 283.91 224.177 283.91 226.149V227.649H266.632V224.479H279.764C279.764 223.365 279.538 222.38 279.085 221.521C278.632 220.653 277.995 219.969 277.174 219.469C276.363 218.969 275.41 218.719 274.316 218.719C273.127 218.719 272.089 219.012 271.203 219.596C270.325 220.172 269.646 220.927 269.165 221.861C268.693 222.785 268.457 223.79 268.457 224.875V227.351C268.457 228.804 268.712 230.04 269.221 231.059C269.74 232.078 270.462 232.856 271.387 233.394C272.311 233.922 273.391 234.186 274.627 234.186C275.429 234.186 276.16 234.073 276.821 233.847C277.481 233.611 278.052 233.262 278.533 232.8C279.014 232.337 279.382 231.767 279.637 231.087L283.642 231.809C283.321 232.988 282.745 234.021 281.915 234.908C281.094 235.786 280.061 236.47 278.816 236.96C277.58 237.441 276.17 237.682 274.585 237.682ZM303.383 224.337V237.243H299.151V215.507H303.213V219.045H303.482C303.982 217.894 304.765 216.969 305.831 216.271C306.906 215.573 308.26 215.224 309.892 215.224C311.373 215.224 312.671 215.535 313.784 216.158C314.897 216.771 315.76 217.686 316.374 218.903C316.987 220.12 317.293 221.625 317.293 223.417V237.243H313.062V223.927C313.062 222.351 312.652 221.12 311.831 220.233C311.01 219.337 309.883 218.889 308.449 218.889C307.468 218.889 306.595 219.101 305.831 219.526C305.076 219.95 304.477 220.573 304.034 221.394C303.6 222.205 303.383 223.186 303.383 224.337ZM332.124 237.682C330.086 237.682 328.308 237.215 326.789 236.281C325.27 235.347 324.091 234.04 323.251 232.361C322.411 230.682 321.992 228.719 321.992 226.474C321.992 224.219 322.411 222.247 323.251 220.559C324.091 218.87 325.27 217.559 326.789 216.625C328.308 215.691 330.086 215.224 332.124 215.224C334.162 215.224 335.94 215.691 337.459 216.625C338.978 217.559 340.157 218.87 340.997 220.559C341.837 222.247 342.256 224.219 342.256 226.474C342.256 228.719 341.837 230.682 340.997 232.361C340.157 234.04 338.978 235.347 337.459 236.281C335.94 237.215 334.162 237.682 332.124 237.682ZM332.138 234.13C333.459 234.13 334.553 233.781 335.421 233.083C336.289 232.385 336.931 231.455 337.346 230.295C337.77 229.134 337.983 227.856 337.983 226.46C337.983 225.073 337.77 223.799 337.346 222.639C336.931 221.469 336.289 220.53 335.421 219.823C334.553 219.115 333.459 218.762 332.138 218.762C330.808 218.762 329.704 219.115 328.827 219.823C327.959 220.53 327.313 221.469 326.888 222.639C326.473 223.799 326.265 225.073 326.265 226.46C326.265 227.856 326.473 229.134 326.888 230.295C327.313 231.455 327.959 232.385 328.827 233.083C329.704 233.781 330.808 234.13 332.138 234.13ZM363.267 220.813L359.432 221.493C359.272 221.002 359.017 220.535 358.668 220.092C358.329 219.648 357.866 219.285 357.281 219.002C356.697 218.719 355.965 218.578 355.088 218.578C353.89 218.578 352.89 218.846 352.088 219.384C351.286 219.913 350.885 220.597 350.885 221.436C350.885 222.163 351.154 222.748 351.692 223.191C352.229 223.634 353.097 223.998 354.296 224.281L357.748 225.073C359.749 225.535 361.239 226.248 362.22 227.21C363.201 228.172 363.692 229.422 363.692 230.96C363.692 232.262 363.315 233.422 362.56 234.441C361.815 235.451 360.772 236.243 359.432 236.819C358.102 237.394 356.56 237.682 354.805 237.682C352.371 237.682 350.385 237.163 348.847 236.125C347.31 235.078 346.366 233.592 346.017 231.668L350.107 231.045C350.361 232.111 350.885 232.918 351.678 233.465C352.47 234.003 353.503 234.271 354.777 234.271C356.164 234.271 357.272 233.984 358.102 233.408C358.932 232.823 359.348 232.111 359.348 231.271C359.348 230.592 359.093 230.021 358.583 229.559C358.083 229.097 357.314 228.748 356.277 228.512L352.597 227.705C350.569 227.243 349.069 226.507 348.097 225.498C347.135 224.488 346.654 223.21 346.654 221.663C346.654 220.38 347.012 219.257 347.729 218.295C348.446 217.332 349.437 216.582 350.701 216.044C351.965 215.497 353.413 215.224 355.046 215.224C357.395 215.224 359.244 215.733 360.593 216.752C361.942 217.762 362.834 219.115 363.267 220.813ZM384.632 220.813L380.797 221.493C380.637 221.002 380.382 220.535 380.033 220.092C379.694 219.648 379.231 219.285 378.646 219.002C378.062 218.719 377.33 218.578 376.453 218.578C375.255 218.578 374.255 218.846 373.453 219.384C372.651 219.913 372.25 220.597 372.25 221.436C372.25 222.163 372.519 222.748 373.057 223.191C373.594 223.634 374.462 223.998 375.661 224.281L379.113 225.073C381.113 225.535 382.604 226.248 383.585 227.21C384.566 228.172 385.057 229.422 385.057 230.96C385.057 232.262 384.68 233.422 383.925 234.441C383.18 235.451 382.137 236.243 380.797 236.819C379.467 237.394 377.925 237.682 376.17 237.682C373.736 237.682 371.75 237.163 370.212 236.125C368.674 235.078 367.731 233.592 367.382 231.668L371.472 231.045C371.726 232.111 372.25 232.918 373.043 233.465C373.835 234.003 374.868 234.271 376.142 234.271C377.528 234.271 378.637 233.984 379.467 233.408C380.297 232.823 380.713 232.111 380.713 231.271C380.713 230.592 380.458 230.021 379.948 229.559C379.448 229.097 378.679 228.748 377.642 228.512L373.962 227.705C371.934 227.243 370.434 226.507 369.462 225.498C368.5 224.488 368.019 223.21 368.019 221.663C368.019 220.38 368.377 219.257 369.094 218.295C369.811 217.332 370.802 216.582 372.066 216.044C373.33 215.497 374.778 215.224 376.411 215.224C378.76 215.224 380.609 215.733 381.958 216.752C383.307 217.762 384.198 219.115 384.632 220.813ZM396.035 237.724C394.657 237.724 393.412 237.47 392.299 236.96C391.186 236.441 390.304 235.691 389.653 234.71C389.011 233.729 388.69 232.526 388.69 231.101C388.69 229.875 388.926 228.866 389.398 228.073C389.87 227.281 390.506 226.653 391.308 226.191C392.11 225.729 393.006 225.38 393.997 225.144C394.988 224.908 395.997 224.729 397.025 224.606C398.327 224.455 399.384 224.332 400.195 224.238C401.007 224.134 401.596 223.969 401.964 223.743C402.332 223.516 402.516 223.148 402.516 222.639V222.54C402.516 221.304 402.167 220.346 401.469 219.667C400.78 218.988 399.752 218.648 398.384 218.648C396.959 218.648 395.837 218.964 395.016 219.596C394.205 220.219 393.643 220.913 393.332 221.677L389.355 220.771C389.827 219.45 390.516 218.384 391.422 217.573C392.337 216.752 393.389 216.158 394.577 215.79C395.766 215.412 397.016 215.224 398.327 215.224C399.195 215.224 400.115 215.327 401.087 215.535C402.068 215.733 402.983 216.101 403.832 216.639C404.691 217.177 405.394 217.945 405.941 218.946C406.488 219.936 406.762 221.224 406.762 222.809V237.243H402.629V234.271H402.46C402.186 234.819 401.776 235.356 401.228 235.885C400.681 236.413 399.978 236.852 399.12 237.201C398.261 237.55 397.233 237.724 396.035 237.724ZM396.955 234.328C398.125 234.328 399.125 234.097 399.955 233.635C400.794 233.172 401.431 232.569 401.865 231.823C402.309 231.068 402.53 230.262 402.53 229.403V226.601C402.379 226.752 402.087 226.894 401.653 227.026C401.228 227.149 400.743 227.257 400.195 227.351C399.648 227.436 399.115 227.516 398.596 227.592C398.077 227.658 397.643 227.715 397.294 227.762C396.474 227.866 395.724 228.04 395.044 228.285C394.374 228.531 393.837 228.884 393.431 229.347C393.035 229.8 392.837 230.403 392.837 231.158C392.837 232.205 393.223 232.998 393.997 233.536C394.771 234.064 395.757 234.328 396.955 234.328ZM446.675 208.261V237.243H442.656L427.925 215.988H427.656V237.243H423.283V208.261H427.331L442.076 229.545H442.345V208.261H446.675ZM462.083 237.682C459.941 237.682 458.097 237.224 456.549 236.309C455.012 235.385 453.823 234.087 452.983 232.418C452.153 230.738 451.738 228.771 451.738 226.516C451.738 224.29 452.153 222.328 452.983 220.63C453.823 218.931 454.993 217.606 456.493 216.653C458.002 215.7 459.766 215.224 461.785 215.224C463.012 215.224 464.201 215.427 465.352 215.832C466.503 216.238 467.536 216.875 468.451 217.743C469.366 218.611 470.088 219.738 470.616 221.125C471.144 222.502 471.408 224.177 471.408 226.149V227.649H454.13V224.479H467.262C467.262 223.365 467.036 222.38 466.583 221.521C466.13 220.653 465.493 219.969 464.672 219.469C463.861 218.969 462.908 218.719 461.814 218.719C460.625 218.719 459.587 219.012 458.7 219.596C457.823 220.172 457.144 220.927 456.663 221.861C456.191 222.785 455.955 223.79 455.955 224.875V227.351C455.955 228.804 456.21 230.04 456.719 231.059C457.238 232.078 457.96 232.856 458.884 233.394C459.809 233.922 460.889 234.186 462.125 234.186C462.927 234.186 463.658 234.073 464.318 233.847C464.979 233.611 465.55 233.262 466.031 232.8C466.512 232.337 466.88 231.767 467.135 231.087L471.139 231.809C470.819 232.988 470.243 234.021 469.413 234.908C468.592 235.786 467.559 236.47 466.314 236.96C465.078 237.441 463.668 237.682 462.083 237.682ZM480.776 237.243L474.38 215.507H478.753L483.012 231.469H483.225L487.498 215.507H491.871L496.116 231.399H496.329L500.56 215.507H504.933L498.551 237.243H494.234L489.819 221.549H489.494L485.078 237.243H480.776ZM525.236 220.813L521.401 221.493C521.241 221.002 520.986 220.535 520.637 220.092C520.298 219.648 519.835 219.285 519.25 219.002C518.665 218.719 517.934 218.578 517.057 218.578C515.859 218.578 514.859 218.846 514.057 219.384C513.255 219.913 512.854 220.597 512.854 221.436C512.854 222.163 513.123 222.748 513.661 223.191C514.198 223.634 515.066 223.998 516.264 224.281L519.717 225.073C521.717 225.535 523.208 226.248 524.189 227.21C525.17 228.172 525.661 229.422 525.661 230.96C525.661 232.262 525.284 233.422 524.529 234.441C523.783 235.451 522.741 236.243 521.401 236.819C520.071 237.394 518.529 237.682 516.774 237.682C514.34 237.682 512.354 237.163 510.816 236.125C509.278 235.078 508.335 233.592 507.986 231.668L512.076 231.045C512.33 232.111 512.854 232.918 513.646 233.465C514.439 234.003 515.472 234.271 516.746 234.271C518.132 234.271 519.241 233.984 520.071 233.408C520.901 232.823 521.316 232.111 521.316 231.271C521.316 230.592 521.062 230.021 520.552 229.559C520.052 229.097 519.283 228.748 518.246 228.512L514.566 227.705C512.538 227.243 511.038 226.507 510.066 225.498C509.104 224.488 508.623 223.21 508.623 221.663C508.623 220.38 508.981 219.257 509.698 218.295C510.415 217.332 511.406 216.582 512.67 216.044C513.934 215.497 515.382 215.224 517.014 215.224C519.364 215.224 521.213 215.733 522.562 216.752C523.911 217.762 524.802 219.115 525.236 220.813ZM530.653 237.243V208.261H535.026V233.479H548.158V237.243H530.653ZM562.175 237.682C560.033 237.682 558.189 237.224 556.642 236.309C555.104 235.385 553.915 234.087 553.076 232.418C552.245 230.738 551.83 228.771 551.83 226.516C551.83 224.29 552.245 222.328 553.076 220.63C553.915 218.931 555.085 217.606 556.585 216.653C558.095 215.7 559.859 215.224 561.878 215.224C563.104 215.224 564.293 215.427 565.444 215.832C566.595 216.238 567.628 216.875 568.543 217.743C569.458 218.611 570.18 219.738 570.708 221.125C571.236 222.502 571.501 224.177 571.501 226.149V227.649H554.222V224.479H567.354C567.354 223.365 567.128 222.38 566.675 221.521C566.222 220.653 565.585 219.969 564.764 219.469C563.953 218.969 563 218.719 561.906 218.719C560.717 218.719 559.679 219.012 558.793 219.596C557.915 220.172 557.236 220.927 556.755 221.861C556.283 222.785 556.047 223.79 556.047 224.875V227.351C556.047 228.804 556.302 230.04 556.811 231.059C557.33 232.078 558.052 232.856 558.977 233.394C559.901 233.922 560.981 234.186 562.217 234.186C563.019 234.186 563.75 234.073 564.411 233.847C565.071 233.611 565.642 233.262 566.123 232.8C566.604 232.337 566.972 231.767 567.227 231.087L571.232 231.809C570.911 232.988 570.335 234.021 569.505 234.908C568.684 235.786 567.651 236.47 566.406 236.96C565.17 237.441 563.76 237.682 562.175 237.682ZM586.342 215.507V218.903H574.469V215.507H586.342ZM577.653 210.299H581.884V230.861C581.884 231.682 582.007 232.3 582.252 232.715C582.497 233.12 582.813 233.399 583.2 233.55C583.596 233.691 584.026 233.762 584.488 233.762C584.828 233.762 585.125 233.738 585.379 233.691C585.634 233.644 585.832 233.606 585.974 233.578L586.738 237.073C586.493 237.168 586.144 237.262 585.691 237.356C585.238 237.46 584.672 237.517 583.993 237.526C582.879 237.545 581.842 237.347 580.879 236.932C579.917 236.517 579.139 235.875 578.544 235.007C577.95 234.139 577.653 233.05 577.653 231.738V210.299ZM601.169 215.507V218.903H589.296V215.507H601.169ZM592.48 210.299H596.711V230.861C596.711 231.682 596.834 232.3 597.079 232.715C597.324 233.12 597.64 233.399 598.027 233.55C598.423 233.691 598.853 233.762 599.315 233.762C599.655 233.762 599.952 233.738 600.206 233.691C600.461 233.644 600.659 233.606 600.801 233.578L601.565 237.073C601.32 237.168 600.971 237.262 600.518 237.356C600.065 237.46 599.499 237.517 598.82 237.526C597.706 237.545 596.669 237.347 595.706 236.932C594.744 236.517 593.966 235.875 593.371 235.007C592.777 234.139 592.48 233.05 592.48 231.738V210.299ZM614.984 237.682C612.842 237.682 610.998 237.224 609.451 236.309C607.913 235.385 606.724 234.087 605.885 232.418C605.055 230.738 604.639 228.771 604.639 226.516C604.639 224.29 605.055 222.328 605.885 220.63C606.724 218.931 607.894 217.606 609.394 216.653C610.904 215.7 612.668 215.224 614.687 215.224C615.913 215.224 617.102 215.427 618.253 215.832C619.404 216.238 620.437 216.875 621.352 217.743C622.267 218.611 622.989 219.738 623.517 221.125C624.046 222.502 624.31 224.177 624.31 226.149V227.649H607.031V224.479H620.163C620.163 223.365 619.937 222.38 619.484 221.521C619.031 220.653 618.394 219.969 617.574 219.469C616.762 218.969 615.81 218.719 614.715 218.719C613.526 218.719 612.489 219.012 611.602 219.596C610.724 220.172 610.045 220.927 609.564 221.861C609.092 222.785 608.856 223.79 608.856 224.875V227.351C608.856 228.804 609.111 230.04 609.621 231.059C610.14 232.078 610.861 232.856 611.786 233.394C612.71 233.922 613.791 234.186 615.026 234.186C615.828 234.186 616.56 234.073 617.22 233.847C617.88 233.611 618.451 233.262 618.932 232.8C619.413 232.337 619.781 231.767 620.036 231.087L624.041 231.809C623.72 232.988 623.145 234.021 622.314 234.908C621.494 235.786 620.461 236.47 619.215 236.96C617.979 237.441 616.569 237.682 614.984 237.682ZM629.004 237.243V215.507H633.094V218.96H633.321C633.717 217.79 634.415 216.87 635.415 216.2C636.424 215.521 637.566 215.181 638.84 215.181C639.104 215.181 639.415 215.191 639.774 215.21C640.141 215.228 640.429 215.252 640.637 215.28V219.328C640.467 219.28 640.165 219.229 639.731 219.172C639.297 219.106 638.863 219.073 638.429 219.073C637.429 219.073 636.538 219.285 635.755 219.71C634.981 220.125 634.368 220.705 633.915 221.45C633.462 222.186 633.236 223.026 633.236 223.969V237.243H629.004Z" fill="black"/>
<path d="M117.646 354.636V338.075H127.641V339.854H119.652V345.45H127.124V347.229H119.652V352.857H127.771V354.636H117.646ZM130.997 354.636V342.215H132.841V344.156H133.003C133.261 343.493 133.679 342.978 134.256 342.612C134.833 342.24 135.526 342.054 136.334 342.054C137.154 342.054 137.836 342.24 138.38 342.612C138.93 342.978 139.359 343.493 139.666 344.156H139.795C140.113 343.515 140.59 343.005 141.227 342.628C141.863 342.245 142.625 342.054 143.515 342.054C144.626 342.054 145.534 342.401 146.24 343.097C146.946 343.787 147.299 344.862 147.299 346.323V354.636H145.391V346.323C145.391 345.407 145.14 344.752 144.639 344.358C144.138 343.965 143.547 343.768 142.868 343.768C141.995 343.768 141.318 344.032 140.838 344.56C140.359 345.083 140.119 345.747 140.119 346.55V354.636H138.178V346.129C138.178 345.423 137.949 344.854 137.491 344.423C137.032 343.986 136.442 343.768 135.72 343.768C135.224 343.768 134.76 343.9 134.329 344.164C133.903 344.428 133.558 344.795 133.294 345.264C133.035 345.728 132.906 346.264 132.906 346.873V354.636H130.997ZM154.444 354.927C153.657 354.927 152.942 354.779 152.301 354.483C151.659 354.181 151.15 353.747 150.773 353.181C150.395 352.609 150.207 351.919 150.207 351.111C150.207 350.399 150.347 349.822 150.627 349.38C150.907 348.933 151.282 348.582 151.751 348.329C152.22 348.075 152.738 347.887 153.304 347.763C153.875 347.633 154.449 347.531 155.026 347.455C155.781 347.358 156.393 347.286 156.862 347.237C157.336 347.183 157.681 347.094 157.897 346.97C158.118 346.846 158.228 346.631 158.228 346.323V346.259C158.228 345.461 158.01 344.841 157.573 344.399C157.142 343.957 156.487 343.736 155.608 343.736C154.697 343.736 153.983 343.935 153.465 344.334C152.948 344.733 152.584 345.159 152.374 345.612L150.562 344.965C150.886 344.21 151.317 343.622 151.856 343.202C152.401 342.776 152.994 342.48 153.635 342.312C154.282 342.14 154.918 342.054 155.544 342.054C155.943 342.054 156.401 342.102 156.918 342.199C157.441 342.291 157.945 342.482 158.43 342.773C158.921 343.064 159.328 343.504 159.652 344.091C159.975 344.679 160.137 345.466 160.137 346.453V354.636H158.228V352.954H158.131C158.002 353.224 157.786 353.512 157.484 353.819C157.182 354.127 156.781 354.388 156.279 354.604C155.778 354.82 155.166 354.927 154.444 354.927ZM154.735 353.213C155.49 353.213 156.126 353.065 156.643 352.768C157.166 352.472 157.56 352.089 157.824 351.62C158.094 351.151 158.228 350.658 158.228 350.14V348.393C158.147 348.491 157.97 348.579 157.695 348.66C157.425 348.736 157.112 348.803 156.757 348.862C156.406 348.916 156.064 348.965 155.73 349.008C155.401 349.046 155.134 349.078 154.929 349.105C154.433 349.17 153.969 349.275 153.538 349.42C153.112 349.561 152.767 349.774 152.503 350.059C152.244 350.34 152.115 350.722 152.115 351.208C152.115 351.871 152.36 352.372 152.851 352.712C153.347 353.046 153.975 353.213 154.735 353.213ZM163.62 354.636V342.215H165.528V354.636H163.62ZM164.59 340.145C164.218 340.145 163.898 340.019 163.628 339.765C163.364 339.512 163.232 339.207 163.232 338.851C163.232 338.496 163.364 338.191 163.628 337.938C163.898 337.684 164.218 337.558 164.59 337.558C164.962 337.558 165.28 337.684 165.545 337.938C165.814 338.191 165.949 338.496 165.949 338.851C165.949 339.207 165.814 339.512 165.545 339.765C165.28 340.019 164.962 340.145 164.59 340.145ZM170.932 338.075V354.636H169.024V338.075H170.932Z" fill="black"/>
<rect x="116.584" y="377.715" width="566.441" height="82.5466" rx="9.96252" fill="#E9ECEF"/>
<path d="M151.636 428.488H145.887V409.857H151.891C153.698 409.857 155.245 410.23 156.53 410.976C157.816 411.716 158.802 412.78 159.487 414.169C160.172 415.552 160.515 417.208 160.515 419.136C160.515 421.077 160.169 422.748 159.478 424.149C158.787 425.544 157.78 426.617 156.458 427.369C155.135 428.115 153.528 428.488 151.636 428.488ZM148.143 426.487H151.491C153.031 426.487 154.308 426.19 155.32 425.595C156.333 425.001 157.088 424.155 157.586 423.057C158.083 421.959 158.332 420.652 158.332 419.136C158.332 417.632 158.086 416.337 157.595 415.252C157.104 414.16 156.37 413.323 155.393 412.741C154.417 412.152 153.201 411.858 151.745 411.858H148.143V426.487ZM164.008 428.488V414.515H166.155V428.488H164.008ZM165.1 412.186C164.682 412.186 164.321 412.043 164.017 411.758C163.72 411.473 163.572 411.131 163.572 410.73C163.572 410.33 163.72 409.987 164.017 409.702C164.321 409.417 164.682 409.275 165.1 409.275C165.519 409.275 165.876 409.417 166.174 409.702C166.477 409.987 166.628 410.33 166.628 410.73C166.628 411.131 166.477 411.473 166.174 411.758C165.876 412.043 165.519 412.186 165.1 412.186ZM175.728 434.019C174.691 434.019 173.799 433.886 173.053 433.619C172.307 433.358 171.686 433.013 171.188 432.582C170.697 432.157 170.306 431.703 170.015 431.217L171.725 430.017C171.919 430.271 172.165 430.562 172.462 430.89C172.759 431.223 173.166 431.511 173.681 431.754C174.203 432.003 174.885 432.127 175.728 432.127C176.856 432.127 177.787 431.854 178.521 431.308C179.255 430.762 179.622 429.907 179.622 428.743V425.905H179.44C179.282 426.159 179.058 426.475 178.766 426.851C178.481 427.221 178.069 427.551 177.529 427.842C176.995 428.127 176.274 428.27 175.364 428.27C174.236 428.27 173.223 428.003 172.326 427.469C171.434 426.936 170.727 426.159 170.206 425.14C169.69 424.121 169.433 422.884 169.433 421.429C169.433 419.997 169.684 418.751 170.188 417.69C170.691 416.622 171.392 415.797 172.289 415.215C173.187 414.627 174.224 414.333 175.4 414.333C176.31 414.333 177.032 414.484 177.566 414.788C178.105 415.085 178.518 415.424 178.803 415.807C179.094 416.183 179.318 416.492 179.476 416.734H179.694V414.515H181.769V428.888C181.769 430.089 181.496 431.066 180.95 431.818C180.41 432.576 179.682 433.131 178.766 433.483C177.857 433.84 176.844 434.019 175.728 434.019ZM175.655 426.341C176.516 426.341 177.244 426.144 177.838 425.75C178.433 425.356 178.885 424.789 179.194 424.049C179.503 423.309 179.658 422.423 179.658 421.392C179.658 420.386 179.506 419.497 179.203 418.727C178.9 417.957 178.451 417.353 177.857 416.916C177.262 416.48 176.528 416.261 175.655 416.261C174.745 416.261 173.987 416.492 173.381 416.953C172.78 417.414 172.329 418.032 172.025 418.809C171.728 419.585 171.58 420.446 171.58 421.392C171.58 422.363 171.731 423.221 172.034 423.967C172.344 424.707 172.799 425.289 173.399 425.713C174.005 426.132 174.758 426.341 175.655 426.341ZM185.699 428.488V414.515H187.845V428.488H185.699ZM186.79 412.186C186.372 412.186 186.011 412.043 185.708 411.758C185.41 411.473 185.262 411.131 185.262 410.73C185.262 410.33 185.41 409.987 185.708 409.702C186.011 409.417 186.372 409.275 186.79 409.275C187.209 409.275 187.566 409.417 187.864 409.702C188.167 409.987 188.319 410.33 188.319 410.73C188.319 411.131 188.167 411.473 187.864 411.758C187.566 412.043 187.209 412.186 186.79 412.186ZM197.855 414.515V416.334H190.613V414.515H197.855ZM192.724 411.167H194.871V424.485C194.871 425.092 194.959 425.547 195.135 425.85C195.317 426.147 195.547 426.347 195.826 426.45C196.111 426.547 196.411 426.596 196.727 426.596C196.963 426.596 197.157 426.584 197.309 426.56C197.461 426.529 197.582 426.505 197.673 426.487L198.109 428.415C197.964 428.47 197.761 428.525 197.5 428.579C197.239 428.64 196.909 428.67 196.508 428.67C195.902 428.67 195.308 428.54 194.725 428.279C194.149 428.018 193.67 427.621 193.288 427.087C192.912 426.553 192.724 425.88 192.724 425.068V411.167ZM206.793 428.779C205.446 428.779 204.285 428.482 203.309 427.888C202.338 427.287 201.589 426.45 201.062 425.377C200.54 424.297 200.279 423.042 200.279 421.611C200.279 420.179 200.54 418.918 201.062 417.826C201.589 416.728 202.323 415.873 203.263 415.261C204.209 414.642 205.313 414.333 206.574 414.333C207.302 414.333 208.021 414.454 208.731 414.697C209.44 414.939 210.086 415.334 210.668 415.879C211.25 416.419 211.714 417.135 212.06 418.026C212.406 418.918 212.579 420.016 212.579 421.32V422.229H201.808V420.373H210.395C210.395 419.585 210.238 418.881 209.922 418.263C209.613 417.644 209.17 417.156 208.594 416.798C208.024 416.44 207.351 416.261 206.574 416.261C205.719 416.261 204.979 416.474 204.355 416.898C203.736 417.317 203.26 417.863 202.926 418.536C202.593 419.209 202.426 419.931 202.426 420.701V421.938C202.426 422.993 202.608 423.888 202.972 424.622C203.342 425.35 203.854 425.905 204.509 426.287C205.164 426.663 205.926 426.851 206.793 426.851C207.357 426.851 207.866 426.772 208.321 426.614C208.782 426.45 209.179 426.208 209.513 425.886C209.846 425.559 210.104 425.152 210.286 424.667L212.36 425.25C212.142 425.953 211.775 426.572 211.26 427.105C210.744 427.633 210.107 428.045 209.349 428.343C208.591 428.634 207.739 428.779 206.793 428.779ZM232.947 417.644L231.019 418.19C230.898 417.869 230.719 417.556 230.482 417.253C230.252 416.944 229.936 416.689 229.536 416.489C229.136 416.289 228.623 416.189 227.999 416.189C227.143 416.189 226.431 416.386 225.861 416.78C225.297 417.168 225.015 417.662 225.015 418.263C225.015 418.797 225.209 419.218 225.597 419.527C225.985 419.837 226.592 420.094 227.416 420.301L229.491 420.81C230.74 421.113 231.671 421.577 232.283 422.202C232.896 422.821 233.202 423.618 233.202 424.595C233.202 425.395 232.972 426.111 232.511 426.741C232.056 427.372 231.419 427.87 230.6 428.233C229.782 428.597 228.829 428.779 227.744 428.779C226.319 428.779 225.139 428.47 224.205 427.851C223.271 427.233 222.68 426.329 222.431 425.14L224.469 424.631C224.663 425.383 225.03 425.947 225.57 426.323C226.115 426.699 226.828 426.887 227.707 426.887C228.708 426.887 229.503 426.675 230.091 426.25C230.685 425.82 230.982 425.304 230.982 424.704C230.982 424.219 230.813 423.812 230.473 423.485C230.133 423.151 229.612 422.902 228.908 422.739L226.579 422.193C225.3 421.89 224.36 421.42 223.759 420.783C223.165 420.14 222.868 419.336 222.868 418.372C222.868 417.584 223.089 416.886 223.532 416.28C223.981 415.673 224.59 415.197 225.36 414.851C226.137 414.506 227.016 414.333 227.999 414.333C229.381 414.333 230.467 414.636 231.255 415.243C232.05 415.849 232.614 416.65 232.947 417.644ZM242.293 428.779C240.946 428.779 239.785 428.482 238.808 427.888C237.838 427.287 237.089 426.45 236.561 425.377C236.04 424.297 235.779 423.042 235.779 421.611C235.779 420.179 236.04 418.918 236.561 417.826C237.089 416.728 237.823 415.873 238.763 415.261C239.709 414.642 240.813 414.333 242.074 414.333C242.802 414.333 243.521 414.454 244.23 414.697C244.94 414.939 245.586 415.334 246.168 415.879C246.75 416.419 247.214 417.135 247.56 418.026C247.906 418.918 248.079 420.016 248.079 421.32V422.229H237.307V420.373H245.895C245.895 419.585 245.737 418.881 245.422 418.263C245.113 417.644 244.67 417.156 244.094 416.798C243.524 416.44 242.851 416.261 242.074 416.261C241.219 416.261 240.479 416.474 239.855 416.898C239.236 417.317 238.76 417.863 238.426 418.536C238.093 419.209 237.926 419.931 237.926 420.701V421.938C237.926 422.993 238.108 423.888 238.472 424.622C238.842 425.35 239.354 425.905 240.009 426.287C240.664 426.663 241.425 426.851 242.293 426.851C242.857 426.851 243.366 426.772 243.821 426.614C244.282 426.45 244.679 426.208 245.013 425.886C245.346 425.559 245.604 425.152 245.786 424.667L247.86 425.25C247.642 425.953 247.275 426.572 246.759 427.105C246.244 427.633 245.607 428.045 244.849 428.343C244.091 428.634 243.239 428.779 242.293 428.779ZM260.151 422.775V414.515H262.298V428.488H260.151V426.123H260.005C259.678 426.832 259.168 427.436 258.477 427.933C257.785 428.424 256.912 428.67 255.857 428.67C254.983 428.67 254.207 428.479 253.528 428.097C252.849 427.709 252.315 427.127 251.927 426.35C251.539 425.568 251.344 424.582 251.344 423.394V414.515H253.491V423.248C253.491 424.267 253.776 425.08 254.347 425.686C254.923 426.293 255.657 426.596 256.548 426.596C257.082 426.596 257.625 426.459 258.176 426.187C258.734 425.914 259.201 425.495 259.577 424.931C259.96 424.367 260.151 423.648 260.151 422.775ZM279.294 428.779C277.947 428.779 276.786 428.482 275.809 427.888C274.839 427.287 274.09 426.45 273.562 425.377C273.041 424.297 272.78 423.042 272.78 421.611C272.78 420.179 273.041 418.918 273.562 417.826C274.09 416.728 274.824 415.873 275.764 415.261C276.71 414.642 277.814 414.333 279.075 414.333C279.803 414.333 280.522 414.454 281.231 414.697C281.941 414.939 282.587 415.334 283.169 415.879C283.751 416.419 284.215 417.135 284.561 418.026C284.907 418.918 285.079 420.016 285.079 421.32V422.229H274.308V420.373H282.896C282.896 419.585 282.738 418.881 282.423 418.263C282.114 417.644 281.671 417.156 281.095 416.798C280.525 416.44 279.852 416.261 279.075 416.261C278.22 416.261 277.48 416.474 276.855 416.898C276.237 417.317 275.761 417.863 275.427 418.536C275.094 419.209 274.927 419.931 274.927 420.701V421.938C274.927 422.993 275.109 423.888 275.473 424.622C275.843 425.35 276.355 425.905 277.01 426.287C277.665 426.663 278.426 426.851 279.294 426.851C279.858 426.851 280.367 426.772 280.822 426.614C281.283 426.45 281.68 426.208 282.014 425.886C282.347 425.559 282.605 425.152 282.787 424.667L284.861 425.25C284.643 425.953 284.276 426.572 283.76 427.105C283.245 427.633 282.608 428.045 281.85 428.343C281.092 428.634 280.24 428.779 279.294 428.779ZM288.345 428.488V414.515H290.419V416.698H290.601C290.893 415.952 291.363 415.373 292.012 414.961C292.66 414.542 293.44 414.333 294.35 414.333C295.271 414.333 296.039 414.542 296.651 414.961C297.27 415.373 297.752 415.952 298.098 416.698H298.243C298.601 415.976 299.138 415.403 299.853 414.979C300.569 414.548 301.427 414.333 302.428 414.333C303.677 414.333 304.699 414.724 305.494 415.506C306.288 416.283 306.685 417.493 306.685 419.136V428.488H304.538V419.136C304.538 418.105 304.256 417.368 303.692 416.926C303.128 416.483 302.464 416.261 301.7 416.261C300.718 416.261 299.956 416.559 299.417 417.153C298.877 417.741 298.607 418.487 298.607 419.391V428.488H296.424V418.918C296.424 418.123 296.166 417.483 295.65 416.998C295.135 416.507 294.471 416.261 293.658 416.261C293.1 416.261 292.579 416.41 292.093 416.707C291.614 417.004 291.226 417.417 290.929 417.944C290.638 418.466 290.492 419.069 290.492 419.755V428.488H288.345ZM314.723 428.816C313.837 428.816 313.034 428.649 312.312 428.315C311.59 427.976 311.017 427.487 310.593 426.851C310.168 426.208 309.956 425.431 309.956 424.522C309.956 423.721 310.114 423.072 310.429 422.575C310.744 422.072 311.166 421.677 311.693 421.392C312.221 421.107 312.803 420.895 313.44 420.755C314.083 420.61 314.729 420.495 315.378 420.41C316.227 420.301 316.915 420.219 317.443 420.164C317.977 420.104 318.365 420.003 318.607 419.864C318.856 419.724 318.98 419.482 318.98 419.136V419.063C318.98 418.166 318.735 417.468 318.244 416.971C317.758 416.474 317.021 416.225 316.033 416.225C315.008 416.225 314.204 416.449 313.622 416.898C313.04 417.347 312.63 417.826 312.394 418.336L310.356 417.608C310.72 416.759 311.205 416.098 311.812 415.625C312.424 415.145 313.091 414.812 313.813 414.624C314.541 414.43 315.257 414.333 315.96 414.333C316.409 414.333 316.924 414.387 317.507 414.497C318.095 414.6 318.662 414.815 319.208 415.142C319.76 415.47 320.218 415.964 320.582 416.625C320.945 417.286 321.127 418.172 321.127 419.282V428.488H318.98V426.596H318.871C318.726 426.899 318.483 427.224 318.143 427.569C317.804 427.915 317.352 428.209 316.788 428.452C316.224 428.694 315.536 428.816 314.723 428.816ZM315.05 426.887C315.899 426.887 316.615 426.72 317.197 426.387C317.786 426.053 318.228 425.623 318.526 425.095C318.829 424.567 318.98 424.012 318.98 423.43V421.465C318.889 421.574 318.689 421.674 318.38 421.765C318.077 421.85 317.725 421.926 317.325 421.993C316.93 422.053 316.545 422.108 316.169 422.156C315.799 422.199 315.499 422.235 315.269 422.266C314.711 422.338 314.189 422.457 313.704 422.62C313.225 422.778 312.837 423.018 312.54 423.339C312.248 423.654 312.103 424.085 312.103 424.631C312.103 425.377 312.379 425.941 312.931 426.323C313.489 426.699 314.195 426.887 315.05 426.887ZM325.046 428.488V414.515H327.193V428.488H325.046ZM326.138 412.186C325.719 412.186 325.358 412.043 325.055 411.758C324.758 411.473 324.609 411.131 324.609 410.73C324.609 410.33 324.758 409.987 325.055 409.702C325.358 409.417 325.719 409.275 326.138 409.275C326.556 409.275 326.914 409.417 327.211 409.702C327.514 409.987 327.666 410.33 327.666 410.73C327.666 411.131 327.514 411.473 327.211 411.758C326.914 412.043 326.556 412.186 326.138 412.186ZM333.272 409.857V428.488H331.125V409.857H333.272ZM348.522 428.816C347.636 428.816 346.832 428.649 346.111 428.315C345.389 427.976 344.816 427.487 344.391 426.851C343.967 426.208 343.755 425.431 343.755 424.522C343.755 423.721 343.912 423.072 344.228 422.575C344.543 422.072 344.964 421.677 345.492 421.392C346.02 421.107 346.602 420.895 347.239 420.755C347.882 420.61 348.528 420.495 349.177 420.41C350.026 420.301 350.714 420.219 351.242 420.164C351.775 420.104 352.163 420.003 352.406 419.864C352.655 419.724 352.779 419.482 352.779 419.136V419.063C352.779 418.166 352.533 417.468 352.042 416.971C351.557 416.474 350.82 416.225 349.832 416.225C348.807 416.225 348.003 416.449 347.421 416.898C346.839 417.347 346.429 417.826 346.193 418.336L344.155 417.608C344.519 416.759 345.004 416.098 345.61 415.625C346.223 415.145 346.89 414.812 347.612 414.624C348.34 414.43 349.055 414.333 349.759 414.333C350.208 414.333 350.723 414.387 351.305 414.497C351.894 414.6 352.461 414.815 353.006 415.142C353.558 415.47 354.016 415.964 354.38 416.625C354.744 417.286 354.926 418.172 354.926 419.282V428.488H352.779V426.596H352.67C352.524 426.899 352.282 427.224 351.942 427.569C351.602 427.915 351.151 428.209 350.587 428.452C350.023 428.694 349.334 428.816 348.522 428.816ZM348.849 426.887C349.698 426.887 350.414 426.72 350.996 426.387C351.584 426.053 352.027 425.623 352.324 425.095C352.627 424.567 352.779 424.012 352.779 423.43V421.465C352.688 421.574 352.488 421.674 352.179 421.765C351.875 421.85 351.524 421.926 351.123 421.993C350.729 422.053 350.344 422.108 349.968 422.156C349.598 422.199 349.298 422.235 349.067 422.266C348.509 422.338 347.988 422.457 347.503 422.62C347.023 422.778 346.635 423.018 346.338 423.339C346.047 423.654 345.901 424.085 345.901 424.631C345.901 425.377 346.177 425.941 346.729 426.323C347.287 426.699 347.994 426.887 348.849 426.887ZM368.379 433.728V426.341H368.197C368.039 426.596 367.815 426.917 367.523 427.306C367.232 427.688 366.817 428.03 366.277 428.334C365.737 428.631 365.019 428.779 364.121 428.779C362.957 428.779 361.929 428.485 361.037 427.897C360.146 427.302 359.448 426.466 358.945 425.386C358.441 424.3 358.19 423.018 358.19 421.538C358.19 420.07 358.441 418.797 358.945 417.717C359.448 416.637 360.149 415.804 361.046 415.215C361.944 414.627 362.981 414.333 364.157 414.333C365.067 414.333 365.786 414.484 366.314 414.788C366.847 415.085 367.254 415.424 367.533 415.807C367.818 416.183 368.039 416.492 368.197 416.734H368.451V414.515H370.526V433.728H368.379ZM364.412 426.851C365.273 426.851 366.001 426.626 366.596 426.177C367.19 425.723 367.642 425.095 367.951 424.294C368.26 423.488 368.415 422.557 368.415 421.501C368.415 420.458 368.263 419.546 367.96 418.763C367.657 417.975 367.208 417.362 366.614 416.926C366.019 416.483 365.286 416.261 364.412 416.261C363.502 416.261 362.744 416.495 362.138 416.962C361.537 417.423 361.086 418.051 360.782 418.845C360.485 419.633 360.337 420.519 360.337 421.501C360.337 422.496 360.488 423.4 360.791 424.212C361.101 425.019 361.556 425.662 362.156 426.141C362.763 426.614 363.515 426.851 364.412 426.851ZM383.262 422.775V414.515H385.409V428.488H383.262V426.123H383.116C382.789 426.832 382.279 427.436 381.588 427.933C380.896 428.424 380.023 428.67 378.968 428.67C378.094 428.67 377.318 428.479 376.639 428.097C375.96 427.709 375.426 427.127 375.038 426.35C374.65 425.568 374.456 424.582 374.456 423.394V414.515H376.603V423.248C376.603 424.267 376.888 425.08 377.458 425.686C378.034 426.293 378.768 426.596 379.659 426.596C380.193 426.596 380.736 426.459 381.288 426.187C381.846 425.914 382.313 425.495 382.689 424.931C383.071 424.367 383.262 423.648 383.262 422.775ZM389.341 428.488V414.515H391.488V428.488H389.341ZM390.433 412.186C390.014 412.186 389.653 412.043 389.35 411.758C389.053 411.473 388.904 411.131 388.904 410.73C388.904 410.33 389.053 409.987 389.35 409.702C389.653 409.417 390.014 409.275 390.433 409.275C390.851 409.275 391.209 409.417 391.506 409.702C391.809 409.987 391.961 410.33 391.961 410.73C391.961 411.131 391.809 411.473 391.506 411.758C391.209 412.043 390.851 412.186 390.433 412.186ZM396.985 428.634C396.536 428.634 396.151 428.473 395.83 428.152C395.508 427.83 395.347 427.445 395.347 426.996C395.347 426.547 395.508 426.162 395.83 425.841C396.151 425.519 396.536 425.359 396.985 425.359C397.434 425.359 397.819 425.519 398.14 425.841C398.462 426.162 398.622 426.547 398.622 426.996C398.622 427.293 398.547 427.566 398.395 427.815C398.249 428.064 398.052 428.264 397.804 428.415C397.561 428.561 397.288 428.634 396.985 428.634ZM404.04 428.634C403.591 428.634 403.206 428.473 402.885 428.152C402.563 427.83 402.402 427.445 402.402 426.996C402.402 426.547 402.563 426.162 402.885 425.841C403.206 425.519 403.591 425.359 404.04 425.359C404.489 425.359 404.874 425.519 405.195 425.841C405.517 426.162 405.677 426.547 405.677 426.996C405.677 427.293 405.602 427.566 405.45 427.815C405.304 428.064 405.107 428.264 404.859 428.415C404.616 428.561 404.343 428.634 404.04 428.634ZM411.095 428.634C410.646 428.634 410.261 428.473 409.939 428.152C409.618 427.83 409.457 427.445 409.457 426.996C409.457 426.547 409.618 426.162 409.939 425.841C410.261 425.519 410.646 425.359 411.095 425.359C411.544 425.359 411.929 425.519 412.25 425.841C412.572 426.162 412.732 426.547 412.732 426.996C412.732 427.293 412.657 427.566 412.505 427.815C412.359 428.064 412.162 428.264 411.914 428.415C411.671 428.561 411.398 428.634 411.095 428.634Z" fill="black" fill-opacity="0.5"/>
<rect x="116.584" y="377.715" width="566.441" height="82.5466" rx="9.96252" stroke="#E9ECEF" stroke-width="2.84644"/>
<path d="M115.161 518.613C115.161 512.325 120.258 507.228 126.547 507.228H673.062C679.35 507.228 684.448 512.325 684.448 518.613V581.235C684.448 587.523 679.35 592.621 673.062 592.621H126.547C120.258 592.621 115.161 587.523 115.161 581.235V518.613Z" fill="#1971C2"/>
<path d="M357.718 559.424H354.734L361.439 540.793H364.687L371.391 559.424H368.407L363.14 544.177H362.995L357.718 559.424ZM358.219 552.128H367.898V554.493H358.219V552.128ZM384.234 548.862L381.769 549.299C381.666 548.984 381.502 548.683 381.278 548.398C381.06 548.113 380.762 547.88 380.386 547.698C380.01 547.516 379.54 547.425 378.976 547.425C378.206 547.425 377.563 547.598 377.048 547.943C376.532 548.283 376.274 548.723 376.274 549.263C376.274 549.73 376.447 550.106 376.793 550.391C377.139 550.676 377.697 550.909 378.467 551.091L380.687 551.601C381.972 551.898 382.931 552.356 383.561 552.974C384.192 553.593 384.507 554.396 384.507 555.385C384.507 556.222 384.265 556.968 383.78 557.623C383.3 558.272 382.63 558.781 381.769 559.151C380.914 559.521 379.922 559.706 378.794 559.706C377.23 559.706 375.953 559.373 374.964 558.706C373.976 558.032 373.369 557.077 373.145 555.84L375.774 555.44C375.938 556.125 376.274 556.643 376.784 556.995C377.293 557.341 377.957 557.514 378.776 557.514C379.668 557.514 380.38 557.329 380.914 556.959C381.448 556.583 381.715 556.125 381.715 555.585C381.715 555.148 381.551 554.782 381.223 554.484C380.902 554.187 380.408 553.963 379.74 553.811L377.375 553.293C376.071 552.995 375.107 552.522 374.482 551.873C373.864 551.225 373.554 550.403 373.554 549.408C373.554 548.583 373.785 547.862 374.246 547.243C374.707 546.624 375.343 546.142 376.156 545.796C376.969 545.445 377.9 545.269 378.949 545.269C380.459 545.269 381.648 545.596 382.515 546.251C383.382 546.9 383.955 547.771 384.234 548.862ZM397.969 548.862L395.504 549.299C395.401 548.984 395.237 548.683 395.012 548.398C394.794 548.113 394.497 547.88 394.121 547.698C393.745 547.516 393.275 547.425 392.711 547.425C391.941 547.425 391.298 547.598 390.782 547.943C390.267 548.283 390.009 548.723 390.009 549.263C390.009 549.73 390.182 550.106 390.528 550.391C390.873 550.676 391.431 550.909 392.201 551.091L394.421 551.601C395.707 551.898 396.665 552.356 397.296 552.974C397.927 553.593 398.242 554.396 398.242 555.385C398.242 556.222 397.999 556.968 397.514 557.623C397.035 558.272 396.365 558.781 395.504 559.151C394.649 559.521 393.657 559.706 392.529 559.706C390.964 559.706 389.688 559.373 388.699 558.706C387.71 558.032 387.104 557.077 386.879 555.84L389.509 555.44C389.672 556.125 390.009 556.643 390.518 556.995C391.028 557.341 391.692 557.514 392.511 557.514C393.402 557.514 394.115 557.329 394.649 556.959C395.182 556.583 395.449 556.125 395.449 555.585C395.449 555.148 395.285 554.782 394.958 554.484C394.636 554.187 394.142 553.963 393.475 553.811L391.11 553.293C389.806 552.995 388.841 552.522 388.217 551.873C387.598 551.225 387.289 550.403 387.289 549.408C387.289 548.583 387.519 547.862 387.98 547.243C388.441 546.624 389.078 546.142 389.891 545.796C390.703 545.445 391.634 545.269 392.684 545.269C394.194 545.269 395.382 545.596 396.25 546.251C397.117 546.9 397.69 547.771 397.969 548.862ZM401.233 559.424V545.451H403.953V559.424H401.233ZM402.606 543.295C402.133 543.295 401.727 543.137 401.387 542.822C401.054 542.5 400.887 542.118 400.887 541.675C400.887 541.227 401.054 540.845 401.387 540.529C401.727 540.208 402.133 540.047 402.606 540.047C403.079 540.047 403.483 540.208 403.816 540.529C404.156 540.845 404.326 541.227 404.326 541.675C404.326 542.118 404.156 542.5 403.816 542.822C403.483 543.137 403.079 543.295 402.606 543.295ZM410.332 551.127V559.424H407.612V545.451H410.223V547.725H410.396C410.717 546.985 411.221 546.391 411.906 545.942C412.597 545.493 413.468 545.269 414.517 545.269C415.469 545.269 416.303 545.469 417.019 545.869C417.734 546.263 418.289 546.852 418.684 547.634C419.078 548.416 419.275 549.384 419.275 550.536V559.424H416.555V550.864C416.555 549.851 416.291 549.059 415.763 548.489C415.236 547.913 414.511 547.625 413.589 547.625C412.958 547.625 412.397 547.761 411.906 548.034C411.421 548.307 411.036 548.708 410.751 549.235C410.472 549.757 410.332 550.388 410.332 551.127ZM426.989 559.734C426.104 559.734 425.303 559.57 424.588 559.242C423.872 558.909 423.305 558.427 422.887 557.796C422.474 557.165 422.268 556.392 422.268 555.476C422.268 554.688 422.42 554.039 422.723 553.529C423.026 553.02 423.435 552.616 423.951 552.319C424.466 552.022 425.043 551.798 425.679 551.646C426.316 551.494 426.965 551.379 427.626 551.3C428.463 551.203 429.142 551.124 429.664 551.064C430.186 550.997 430.565 550.891 430.801 550.745C431.038 550.6 431.156 550.363 431.156 550.036V549.972C431.156 549.178 430.932 548.562 430.483 548.125C430.04 547.689 429.379 547.47 428.5 547.47C427.584 547.47 426.862 547.674 426.334 548.08C425.813 548.48 425.452 548.926 425.252 549.417L422.695 548.835C422.999 547.986 423.441 547.301 424.024 546.779C424.612 546.251 425.288 545.869 426.052 545.633C426.817 545.39 427.62 545.269 428.463 545.269C429.021 545.269 429.612 545.336 430.237 545.469C430.868 545.596 431.456 545.833 432.002 546.179C432.554 546.524 433.006 547.019 433.357 547.661C433.709 548.298 433.885 549.126 433.885 550.145V559.424H431.229V557.514H431.12C430.944 557.866 430.68 558.211 430.328 558.551C429.976 558.89 429.524 559.173 428.973 559.397C428.421 559.621 427.76 559.734 426.989 559.734ZM427.581 557.55C428.333 557.55 428.976 557.402 429.509 557.104C430.049 556.807 430.458 556.419 430.737 555.94C431.022 555.455 431.165 554.936 431.165 554.384V552.583C431.068 552.68 430.88 552.771 430.601 552.856C430.328 552.935 430.016 553.005 429.664 553.065C429.312 553.12 428.97 553.171 428.636 553.22C428.302 553.262 428.023 553.299 427.799 553.329C427.271 553.396 426.789 553.508 426.353 553.666C425.922 553.823 425.576 554.051 425.315 554.348C425.061 554.639 424.933 555.027 424.933 555.512C424.933 556.186 425.182 556.695 425.679 557.041C426.177 557.38 426.81 557.55 427.581 557.55ZM437.508 559.424V545.451H440.137V547.671H440.283C440.537 546.918 440.986 546.327 441.629 545.897C442.278 545.46 443.012 545.242 443.831 545.242C444.001 545.242 444.201 545.248 444.431 545.26C444.668 545.272 444.853 545.287 444.986 545.305V547.907C444.877 547.877 444.683 547.843 444.404 547.807C444.125 547.765 443.846 547.743 443.567 547.743C442.924 547.743 442.351 547.88 441.847 548.153C441.35 548.42 440.956 548.793 440.665 549.272C440.374 549.745 440.228 550.284 440.228 550.891V559.424H437.508Z" fill="white"/>
<path d="M126.547 510.074H673.062V504.381H126.547V510.074ZM681.602 518.613V581.235H687.294V518.613H681.602ZM673.062 589.774H126.547V595.467H673.062V589.774ZM118.007 581.235V518.613H112.314V581.235H118.007ZM126.547 589.774C121.83 589.774 118.007 585.951 118.007 581.235H112.314C112.314 589.095 118.686 595.467 126.547 595.467V589.774ZM681.602 581.235C681.602 585.951 677.778 589.774 673.062 589.774V595.467C680.922 595.467 687.294 589.095 687.294 581.235H681.602ZM673.062 510.074C677.778 510.074 681.602 513.897 681.602 518.613H687.294C687.294 510.753 680.922 504.381 673.062 504.381V510.074ZM126.547 504.381C118.686 504.381 112.314 510.753 112.314 518.613H118.007C118.007 513.897 121.831 510.074 126.547 510.074V504.381Z" fill="#1971C2"/>
<rect x="45.4232" y="75.4232" width="708.762" height="641.017" rx="9.96252" stroke="#E9ECEF" stroke-width="2.84644"/>
</svg>
