<?xml version="1.0" encoding="utf-8"?>
<!-- Uploaded to: SVG Repo, www.svgrepo.com, Generator: SVG Repo Mixer Tools -->
<svg width="800px" height="800px" viewBox="0 0 64 64" xmlns="http://www.w3.org/2000/svg">
<title>dog-cosmos</title>
<g id="dog-cosmos">
<circle cx="27" cy="25" r="23" style="fill:#edebdc"/>
<circle cx="37.5" cy="31.5" r="19.5" style="fill:#c1dbdc"/>
<circle cx="51.509" cy="12.6" r="10.8" style="fill:#b5a19c;stroke:#4c241d;stroke-linecap:round;stroke-linejoin:round;stroke-width:2px"/>
<circle cx="47.709" cy="12.6" r="3.6" style="fill:#e7d1c4;stroke:#4c241d;stroke-linecap:round;stroke-linejoin:round;stroke-width:2px"/>
<circle cx="56.509" cy="14.8" r="1.8" style="fill:#e7d1c4;stroke:#4c241d;stroke-linecap:round;stroke-linejoin:round;stroke-width:2px"/>
<path d="M54.926,2.361a10.7,10.7,0,0,0-7.9.423,4.184,4.184,0,0,0,7.9-.423Z" style="fill:#e7d1c4;stroke:#4c241d;stroke-linecap:round;stroke-linejoin:round;stroke-width:2px"/>
<circle cx="56" cy="9" r="1" style="fill:#4c241d"/>
<line x1="13.884" y1="22.637" x2="10.203" y2="26.304" style="fill:none;stroke:#4c241d;stroke-linecap:round;stroke-linejoin:round;stroke-width:2px"/>
<path d="M36,57l5-14V37l1,1,3.424-.856C48.113,36.472,51,34.055,51,31.283V28H43l-2.752-1.651A9.461,9.461,0,0,0,35.378,25H30c-2.761,0-5,3.134-5,7v5a27.219,27.219,0,0,1-3.689,5.311l-2.869,3.16C16.662,47.342,14.536,49.464,12,52Z" style="fill:#bf7e68;stroke:#4c241d;stroke-linecap:round;stroke-linejoin:round;stroke-width:2px"/>
<line x1="10.21" y1="22.63" x2="13.877" y2="26.311" style="fill:none;stroke:#4c241d;stroke-linecap:round;stroke-linejoin:round;stroke-width:2px"/>
<circle cx="38.5" cy="30.5" r="1.5" style="fill:#4c241d"/>
<path d="M38,58l2.923-14.785L32,45s-4.492-3.369-8.209-5.957a33.179,33.179,0,0,1-2.479,3.268l-2.87,3.16C16.662,47.342,14.536,49.464,12,52c0,0-4,3-4,6Z" style="fill:#fc8c29;stroke:#4c241d;stroke-linecap:round;stroke-linejoin:round;stroke-width:2px"/>
<circle cx="17.5" cy="8.5" r="1.5" style="fill:#4c241d"/>
<path d="M33,31v4a4,4,0,0,1-4,4h0a4,4,0,0,1-4-4" style="fill:none;stroke:#4c241d;stroke-linecap:round;stroke-linejoin:round;stroke-width:2px"/>
<circle cx="37.5" cy="31.5" r="19.5" style="fill:none;stroke:#4c241d;stroke-linecap:round;stroke-linejoin:round;stroke-width:2px"/>
<path d="M37.5,16A15.431,15.431,0,0,0,29,18.537" style="fill:none;stroke:#ffffff;stroke-linecap:round;stroke-linejoin:round;stroke-width:2px"/>
<path d="M14,58H6L9.166,42.963a3.817,3.817,0,0,1,4.741-2.9L21,42Z" style="fill:#ffffff;stroke:#4c241d;stroke-linecap:round;stroke-linejoin:round;stroke-width:2px"/>
<line x1="58" y1="58" x2="3" y2="58" style="fill:none;stroke:#4c241d;stroke-linecap:round;stroke-linejoin:round;stroke-width:2px"/>
<line x1="31" y1="50" x2="28" y2="58" style="fill:none;stroke:#4c241d;stroke-linecap:round;stroke-linejoin:round;stroke-width:2px"/>
<circle cx="34" cy="54" r="1" style="fill:#4c241d"/>
</g>
</svg>