<?xml version="1.0" encoding="iso-8859-1"?>
<!-- Uploaded to: SVG Repo, www.svgrepo.com, Generator: SVG Repo Mixer Tools -->
<!DOCTYPE svg PUBLIC "-//W3C//DTD SVG 1.1//EN" "http://www.w3.org/Graphics/SVG/1.1/DTD/svg11.dtd">
<svg fill="#000000" version="1.1" id="Capa_1" xmlns="http://www.w3.org/2000/svg" xmlns:xlink="http://www.w3.org/1999/xlink" 
	 width="800px" height="800px" viewBox="0 0 88.761 88.761"
	 xml:space="preserve">
<g>
	<path d="M88.748,28.822C87.433,14.123,76.639,6.532,67.17,5.703C55.521,4.682,49.389,8.26,44.38,13.056
		C39.372,8.257,33.218,4.677,21.59,5.7C12.116,6.53,1.324,14.121,0.014,28.822L0,33.34l0.011,0.303
		C1.346,49.021,15.246,64.855,42.51,82.055l1.868,1.182l1.869-1.182c27.263-17.199,41.166-33.037,42.498-48.411l0.017-4.511
		L88.748,28.822z M47.289,30.75c0.992-3.708,3.967-6.131,6.647-5.415c2.68,0.719,4.044,4.31,3.054,8.014
		c-0.994,3.705-3.969,6.132-6.649,5.412C47.661,38.044,46.295,34.457,47.289,30.75z M35.995,25.333
		c2.677-0.717,5.652,1.708,6.647,5.414c0.994,3.708-0.371,7.295-3.05,8.012c-2.679,0.72-5.653-1.708-6.648-5.412
		C31.95,29.643,33.316,26.052,35.995,25.333z M24.292,44.444c-1.698-2.942-1.357-6.323,0.773-7.549
		c2.128-1.228,5.228,0.161,6.925,3.107c1.703,2.945,1.357,6.326-0.77,7.552C29.093,48.778,25.99,47.392,24.292,44.444z
		 M44.964,60.768c-7.923,0-14.347,6.848-14.347-2.404c0-9.254,9.201-16.752,14.347-16.75c5.146,0.002,14.348,7.496,14.348,16.75
		C59.312,67.615,52.889,60.768,44.964,60.768z M65.635,44.444c-1.697,2.947-4.797,4.334-6.928,3.109
		c-2.128-1.226-2.473-4.609-0.769-7.552c1.697-2.946,4.795-4.335,6.926-3.107C66.995,38.121,67.334,41.502,65.635,44.444z"/>
</g>
</svg>