<svg width="1690" height="987" viewBox="0 0 1690 987" fill="none" xmlns="http://www.w3.org/2000/svg">
<rect width="1690" height="986.231" fill="#F8F8F8"/>
<path d="M834.152 118.664C830.25 117.5 826.102 119.617 824.78 123.499C823.457 127.383 825.453 131.595 829.255 133.052C829.346 133.089 829.439 133.123 829.532 133.155C833.506 134.509 837.829 132.378 839.182 128.401C840.534 124.429 838.407 120.106 834.434 118.754C834.337 118.72 834.245 118.692 834.152 118.664Z" fill="#1F7560"/>
<path d="M812.238 140.75C812.331 140.785 812.422 140.82 812.515 140.853C816.487 142.205 820.81 140.076 822.166 136.099C823.515 132.127 821.388 127.805 817.416 126.453C817.322 126.42 817.228 126.393 817.136 126.365C813.236 125.201 809.084 127.32 807.763 131.199C806.442 135.081 808.438 139.291 812.238 140.75Z" fill="#1F7560"/>
<path d="M792.069 123.734C792.184 123.778 792.303 123.823 792.422 123.864C797.483 125.585 802.989 122.875 804.714 117.807C806.438 112.745 803.728 107.24 798.663 105.514C798.545 105.476 798.424 105.44 798.306 105.403C793.336 103.92 788.052 106.62 786.369 111.563C784.684 116.513 787.228 121.877 792.069 123.734Z" fill="#1F7560"/>
<path d="M817.447 174.186C821.419 175.538 825.742 173.41 827.096 169.434C828.448 165.461 826.32 161.138 822.345 159.787C822.253 159.756 822.158 159.727 822.064 159.699C818.164 158.538 814.016 160.654 812.692 164.533C811.37 168.418 813.367 172.63 817.166 174.087C817.262 174.121 817.354 174.156 817.447 174.186Z" fill="#1F7560"/>
<path d="M806.095 158.522C810.576 160.045 815.448 157.649 816.974 153.164C818.497 148.687 816.099 143.817 811.62 142.291C811.516 142.256 811.409 142.222 811.305 142.191C806.908 140.88 802.23 143.267 800.743 147.638C799.251 152.017 801.502 156.764 805.787 158.407C805.888 158.448 805.991 158.489 806.095 158.522Z" fill="#1F7560"/>
<path d="M813.618 124.039C813.73 124.083 813.845 124.124 813.959 124.166C818.861 125.833 824.194 123.209 825.867 118.299C827.534 113.395 824.909 108.065 820.006 106.395C819.89 106.359 819.776 106.322 819.66 106.288C814.847 104.852 809.728 107.464 808.1 112.252C806.465 117.045 808.928 122.242 813.618 124.039Z" fill="#1F7560"/>
<path d="M770.042 160.156C774.945 161.825 780.279 159.2 781.948 154.291C783.614 149.388 780.989 144.058 776.09 142.388C775.973 142.349 775.857 142.315 775.741 142.281C770.931 140.845 765.81 143.457 764.18 148.245C762.55 153.038 765.011 158.232 769.701 160.032C769.815 160.073 769.928 160.117 770.042 160.156Z" fill="#1F7560"/>
<path d="M792.463 148.442C792.604 148.424 792.75 148.402 792.893 148.376C799.025 147.263 803.098 141.381 801.984 135.243C800.87 129.114 794.991 125.041 788.858 126.153C788.715 126.179 788.573 126.212 788.431 126.243C782.529 127.547 778.673 133.289 779.76 139.278C780.849 145.271 786.478 149.296 792.463 148.442Z" fill="#1F7560"/>
<path d="M795.483 153.146C795.33 153.109 795.177 153.075 795.023 153.045C788.684 151.72 782.386 155.631 780.808 161.964C779.229 168.3 782.957 174.711 789.181 176.515C789.33 176.559 789.482 176.603 789.632 176.64C796.115 178.253 802.683 174.299 804.301 167.81C805.914 161.329 801.965 154.76 795.483 153.146Z" fill="#1F7560"/>
<path d="M875.021 139.809C875.123 139.843 875.223 139.879 875.325 139.911C879.67 141.251 884.283 138.81 885.627 134.46C886.969 130.117 884.528 125.502 880.181 124.162C880.078 124.131 879.978 124.102 879.876 124.075C875.612 122.936 871.186 125.361 869.877 129.602C868.567 133.85 870.862 138.347 875.021 139.809Z" fill="#1F7560"/>
<path d="M865.223 147.37C867.488 146.945 868.98 144.761 868.553 142.494C868.129 140.231 865.949 138.738 863.679 139.163C863.628 139.176 863.577 139.185 863.524 139.198C861.346 139.691 859.931 141.826 860.347 144.038C860.763 146.252 862.852 147.727 865.062 147.398C865.118 147.387 865.172 147.38 865.223 147.37Z" fill="#1F7560"/>
<path d="M876.988 123.125C877.087 123.111 877.19 123.097 877.291 123.078C881.599 122.267 884.439 118.112 883.627 113.797C882.816 109.49 878.663 106.653 874.355 107.462C874.255 107.482 874.157 107.504 874.055 107.527C869.91 108.472 867.224 112.528 868.014 116.737C868.802 120.945 872.783 123.75 876.988 123.125Z" fill="#1F7560"/>
<path d="M900.997 114.156C903.987 117.228 908.849 117.366 912.009 114.519C912.084 114.451 912.16 114.383 912.234 114.309C915.374 111.253 915.442 106.222 912.382 103.075C909.325 99.935 904.294 99.8673 901.156 102.922C901.08 102.997 901.009 103.072 900.939 103.144C898.009 106.224 898.01 111.09 900.997 114.156Z" fill="#1F7560"/>
<path d="M879.312 105.287C882.573 110.008 888.967 111.273 893.769 108.217C893.884 108.144 894.001 108.071 894.115 107.991C898.944 104.655 900.154 98.026 896.811 93.1916C893.476 88.367 886.846 87.1567 882.02 90.4922C881.906 90.5741 881.799 90.6552 881.685 90.7346C877.133 94.1476 876.056 100.574 879.312 105.287Z" fill="#1F7560"/>
<path d="M903.384 120.316C901.853 115.224 896.476 112.334 891.382 113.866C891.261 113.903 891.146 113.942 891.026 113.981C886.147 115.656 883.426 120.896 884.925 125.871C886.42 130.85 891.583 133.722 896.574 132.425C896.697 132.394 896.814 132.364 896.937 132.327C902.027 130.796 904.921 125.418 903.384 120.316Z" fill="#1F7560"/>
<path d="M892.594 149.307C892.694 149.299 892.79 149.29 892.89 149.278C897.105 148.782 900.123 144.957 899.627 140.739C899.13 136.526 895.307 133.508 891.091 134.004C890.992 134.016 890.896 134.032 890.797 134.045C886.732 134.682 883.864 138.421 884.349 142.538C884.834 146.659 888.493 149.632 892.594 149.307Z" fill="#1F7560"/>
<path d="M905.735 151.39C905.815 151.41 905.895 151.428 905.979 151.446C909.466 152.133 912.857 149.862 913.546 146.37C914.233 142.882 911.962 139.494 908.474 138.805C908.392 138.786 908.309 138.776 908.227 138.76C904.824 138.223 901.576 140.466 900.904 143.872C900.228 147.285 902.381 150.595 905.735 151.39Z" fill="#1F7560"/>
<path d="M884.988 146.94C882.405 142.547 876.738 141.08 872.344 143.666C872.242 143.726 872.142 143.792 872.04 143.857C867.879 146.525 866.538 152.022 869.062 156.311C871.59 160.608 877.048 162.108 881.402 159.764C881.508 159.706 881.615 159.651 881.715 159.591C886.11 157.008 887.575 151.341 884.988 146.94Z" fill="#1F7560"/>
<path d="M859.385 163.615C859.922 166.511 862.653 168.45 865.544 168.027C865.614 168.016 865.685 168.006 865.752 167.993C868.717 167.443 870.676 164.592 870.128 161.626C869.576 158.664 866.727 156.704 863.764 157.252C863.692 157.265 863.624 157.283 863.555 157.298C860.706 157.939 858.848 160.724 859.385 163.615Z" fill="#1F7560"/>
<path d="M883.133 196.307C882.992 196.39 882.858 196.478 882.723 196.563C878.847 199.051 876.78 203.354 876.98 207.687C876.787 207.81 876.597 207.931 876.405 208.058C870.258 212.091 866.619 215.122 864.784 218.569C864.209 214.561 863.935 212.332 863.6 208.381C863.412 207.004 863.238 205.753 863.081 204.639C862.608 201.299 862.33 199.229 862.297 198.947C862.125 197.488 878.984 178.221 886.632 169.567C889.093 173.152 893.347 175.336 897.946 174.972C898.104 174.96 898.269 174.948 898.429 174.929C905.286 174.122 910.197 167.897 909.389 161.033C908.582 154.176 902.359 149.264 895.502 150.072C895.342 150.091 895.179 150.116 895.021 150.139C888.406 151.177 883.744 157.262 884.532 163.958C884.732 165.658 885.267 167.239 886.06 168.643C881.414 173.026 864.256 190.104 861.834 192.047C861.512 191.64 861.195 190.13 860.888 187.836C860.145 176.257 858.692 163.916 858.407 151.967C858.361 151 858.318 150.037 858.274 149.097C858.129 145.874 857.999 142.908 857.898 140.401C859.17 140.146 860.426 139.706 861.625 139.069C861.778 138.988 861.939 138.903 862.088 138.816C868.618 135.027 870.839 126.651 867.044 120.115C863.257 113.588 854.883 111.366 848.355 115.156C848.2 115.24 848.049 115.336 847.9 115.429C841.715 119.345 839.681 127.473 843.382 133.846C845.816 138.036 850.13 140.455 854.637 140.648C854.488 142.022 854.41 143.759 854.383 145.74C854.364 147.187 854.376 148.761 854.404 150.395C854.614 158.832 854.979 167.826 855.948 176.055C851.112 170.373 847.432 164.557 843.823 158.495C846.291 156.033 847.829 152.633 847.847 148.868C847.885 141.322 841.788 135.168 834.24 135.13C834.062 135.13 833.887 135.135 833.712 135.142C826.395 135.385 820.528 141.365 820.492 148.735C820.455 156.115 826.265 162.157 833.576 162.472C833.753 162.478 833.929 162.485 834.107 162.487C836.744 162.501 839.208 161.763 841.303 160.48C846.83 170.09 854.783 179.891 854.983 190.276C855.038 191.126 855.138 192.053 855.261 193.102C855.539 195.464 855.941 198.461 856.243 202.654C856.341 204.053 856.43 205.586 856.496 207.273C855.88 206.592 855.251 205.926 854.609 205.266C853.968 204.613 853.315 203.971 852.654 203.339C851.989 202.709 851.315 202.094 850.631 201.495C846.809 198.803 843.053 195.761 839.148 192.924C840.475 189.761 840.505 186.068 838.924 182.724C835.973 176.482 828.509 173.811 822.265 176.763C822.12 176.833 821.976 176.907 821.834 176.98C815.892 180.073 813.415 187.326 816.297 193.421C819.183 199.524 826.363 202.215 832.524 199.586C832.672 199.523 832.82 199.46 832.967 199.39C835.287 198.295 837.109 196.571 838.339 194.524C842.078 197.189 845.543 200.286 848.46 204.134C849.379 205.293 850.196 206.45 850.926 207.593C858.294 219.573 856.182 233.007 857.204 246.474C857.225 247.273 857.25 248.087 857.275 248.918C857.324 250.716 857.38 252.591 857.439 254.504C857.823 266.996 858.352 281.256 858.592 287.675C861.826 288.833 865.46 289.289 869.228 288.846C872.986 288.403 876.406 287.118 879.28 285.253C877.213 279.199 873.673 266.859 870.783 252.373C870.315 250.033 869.862 247.639 869.44 245.2C869.244 244.138 869.057 243.074 868.87 242.009C867.503 235.418 866.21 228.586 865.194 221.747C868.019 218.338 872.862 214.195 877.494 210.64C877.776 211.598 878.167 212.538 878.698 213.439C882.123 219.258 889.517 221.284 895.413 218.108C895.554 218.032 895.699 217.953 895.835 217.871C901.788 214.364 903.772 206.691 900.263 200.735C896.756 194.787 889.084 192.8 883.133 196.307Z" fill="#1F7560"/>
<path d="M853.655 75.6206C850.402 75.6592 847.51 77.0631 845.215 79.3914C843.624 75.1873 841.491 70.4109 840.367 68.9613C839.01 67.2666 833.871 69.2467 835.454 70.8199C837.037 72.3936 840.278 76.3074 842.775 80.0263C839.636 79.3984 836.514 79.8715 833.821 81.5829C827.053 86.0051 825.758 96.666 830.906 105.478C836.005 114.305 845.63 117.915 852.365 113.556C852.933 113.173 853.439 112.756 853.929 112.292C854.596 112.405 855.247 112.471 855.933 112.474C863.954 112.358 869.953 104.009 869.29 93.8367C868.675 83.6499 861.676 75.5046 853.655 75.6206Z" fill="#B9334D"/>
<path d="M761.724 361.375L771.15 334.239H775.742L763.899 366.231H760.625L761.724 361.375ZM752.913 334.239L762.251 361.375L763.416 366.231H760.142L748.32 334.239H752.913ZM783.85 342.456V366.231H779.763V342.456H783.85ZM779.456 336.15C779.456 335.491 779.653 334.934 780.049 334.48C780.459 334.026 781.06 333.799 781.851 333.799C782.627 333.799 783.22 334.026 783.63 334.48C784.055 334.934 784.268 335.491 784.268 336.15C784.268 336.78 784.055 337.322 783.63 337.776C783.22 338.216 782.627 338.435 781.851 338.435C781.06 338.435 780.459 338.216 780.049 337.776C779.653 337.322 779.456 336.78 779.456 336.15ZM805.361 361.617V332.481H809.448V366.231H805.713L805.361 361.617ZM789.365 354.607V354.146C789.365 352.329 789.585 350.681 790.024 349.202C790.479 347.708 791.116 346.426 791.936 345.357C792.771 344.287 793.76 343.467 794.902 342.896C796.06 342.31 797.349 342.017 798.77 342.017C800.264 342.017 801.567 342.281 802.681 342.808C803.809 343.321 804.761 344.075 805.537 345.071C806.328 346.053 806.951 347.239 807.405 348.631C807.859 350.022 808.174 351.597 808.35 353.355V355.376C808.188 357.119 807.874 358.687 807.405 360.078C806.951 361.47 806.328 362.657 805.537 363.638C804.761 364.619 803.809 365.374 802.681 365.901C801.553 366.414 800.234 366.67 798.726 366.67C797.334 366.67 796.06 366.37 794.902 365.769C793.76 365.169 792.771 364.326 791.936 363.242C791.116 362.159 790.479 360.884 790.024 359.419C789.585 357.94 789.365 356.336 789.365 354.607ZM793.452 354.146V354.607C793.452 355.794 793.569 356.907 793.804 357.947C794.053 358.987 794.434 359.903 794.946 360.694C795.459 361.485 796.111 362.107 796.902 362.561C797.693 363.001 798.638 363.221 799.736 363.221C801.084 363.221 802.19 362.935 803.054 362.364C803.933 361.792 804.636 361.038 805.164 360.1C805.691 359.163 806.101 358.145 806.394 357.046V351.751C806.218 350.945 805.962 350.169 805.625 349.422C805.303 348.66 804.878 347.986 804.351 347.4C803.838 346.8 803.201 346.324 802.439 345.972C801.692 345.62 800.806 345.445 799.78 345.445C798.667 345.445 797.708 345.679 796.902 346.148C796.111 346.602 795.459 347.232 794.946 348.037C794.434 348.828 794.053 349.751 793.804 350.806C793.569 351.846 793.452 352.959 793.452 354.146ZM829.795 362.166V349.927C829.795 348.99 829.604 348.177 829.224 347.488C828.857 346.785 828.301 346.243 827.554 345.862C826.807 345.481 825.884 345.291 824.785 345.291C823.76 345.291 822.859 345.467 822.083 345.818C821.321 346.17 820.72 346.631 820.281 347.202C819.856 347.774 819.644 348.389 819.644 349.048H815.579C815.579 348.199 815.798 347.356 816.238 346.521C816.677 345.686 817.307 344.932 818.127 344.258C818.962 343.57 819.958 343.028 821.116 342.632C822.288 342.222 823.591 342.017 825.027 342.017C826.755 342.017 828.279 342.31 829.597 342.896C830.93 343.482 831.97 344.368 832.717 345.555C833.479 346.726 833.86 348.199 833.86 349.971V361.045C833.86 361.836 833.926 362.679 834.058 363.572C834.204 364.466 834.417 365.235 834.695 365.879V366.231H830.454C830.249 365.762 830.088 365.139 829.971 364.363C829.854 363.572 829.795 362.84 829.795 362.166ZM830.498 351.817L830.542 354.673H826.433C825.276 354.673 824.243 354.768 823.335 354.959C822.427 355.135 821.665 355.406 821.05 355.772C820.435 356.138 819.966 356.599 819.644 357.156C819.321 357.698 819.16 358.335 819.16 359.068C819.16 359.815 819.329 360.496 819.666 361.111C820.002 361.726 820.508 362.217 821.182 362.583C821.87 362.935 822.712 363.111 823.708 363.111C824.954 363.111 826.052 362.847 827.004 362.32C827.957 361.792 828.711 361.148 829.268 360.386C829.839 359.624 830.146 358.885 830.19 358.167L831.926 360.122C831.824 360.738 831.545 361.419 831.091 362.166C830.637 362.913 830.029 363.631 829.268 364.319C828.521 364.993 827.627 365.557 826.587 366.011C825.562 366.451 824.404 366.67 823.115 366.67C821.504 366.67 820.09 366.355 818.875 365.725C817.673 365.096 816.736 364.253 816.062 363.199C815.403 362.129 815.073 360.935 815.073 359.617C815.073 358.343 815.322 357.222 815.82 356.255C816.318 355.274 817.036 354.461 817.974 353.816C818.911 353.157 820.039 352.659 821.357 352.322C822.676 351.985 824.148 351.817 825.774 351.817H830.498Z" fill="#B9334D"/>
<path d="M846.604 334.239V366.231H840.012V334.239H846.604ZM859.348 347.906V353.047H844.802V347.906H859.348ZM860.886 334.239V339.402H844.802V334.239H860.886ZM870.071 347.642V366.231H863.743V342.456H869.697L870.071 347.642ZM877.234 342.303L877.124 348.169C876.816 348.125 876.443 348.089 876.003 348.059C875.579 348.015 875.19 347.993 874.839 347.993C873.945 347.993 873.169 348.111 872.51 348.345C871.865 348.565 871.323 348.894 870.884 349.334C870.459 349.773 870.137 350.308 869.917 350.938C869.712 351.568 869.595 352.285 869.565 353.091L868.291 352.696C868.291 351.158 868.445 349.744 868.752 348.455C869.06 347.151 869.507 346.016 870.093 345.049C870.693 344.082 871.426 343.335 872.29 342.808C873.154 342.281 874.143 342.017 875.256 342.017C875.608 342.017 875.967 342.046 876.333 342.105C876.699 342.149 877 342.215 877.234 342.303ZM894.285 360.54V342.456H900.613V366.231H894.658L894.285 360.54ZM894.988 355.662L896.855 355.618C896.855 357.2 896.672 358.672 896.306 360.034C895.94 361.382 895.391 362.554 894.658 363.55C893.926 364.532 893.003 365.301 891.89 365.857C890.776 366.399 889.465 366.67 887.957 366.67C886.799 366.67 885.73 366.509 884.749 366.187C883.782 365.85 882.947 365.33 882.244 364.627C881.555 363.909 881.013 362.993 880.618 361.88C880.237 360.752 880.046 359.397 880.046 357.815V342.456H886.375V357.859C886.375 358.562 886.455 359.156 886.616 359.639C886.792 360.122 887.034 360.518 887.341 360.826C887.649 361.133 888.008 361.353 888.418 361.485C888.843 361.617 889.312 361.682 889.824 361.682C891.128 361.682 892.153 361.419 892.9 360.891C893.662 360.364 894.197 359.646 894.504 358.738C894.827 357.815 894.988 356.79 894.988 355.662ZM917.092 342.456V346.939H903.25V342.456H917.092ZM906.677 336.59H913.005V359.068C913.005 359.756 913.093 360.284 913.269 360.65C913.459 361.016 913.738 361.272 914.104 361.419C914.47 361.551 914.932 361.617 915.488 361.617C915.884 361.617 916.235 361.602 916.543 361.573C916.865 361.529 917.136 361.485 917.356 361.441L917.378 366.099C916.836 366.275 916.25 366.414 915.62 366.516C914.99 366.619 914.294 366.67 913.533 366.67C912.141 366.67 910.925 366.443 909.885 365.989C908.86 365.52 908.069 364.773 907.512 363.748C906.956 362.722 906.677 361.375 906.677 359.705V336.59ZM933.528 360.869V350.279C933.528 349.517 933.403 348.865 933.154 348.323C932.905 347.766 932.517 347.334 931.99 347.027C931.477 346.719 930.811 346.565 929.99 346.565C929.287 346.565 928.679 346.69 928.167 346.939C927.654 347.173 927.258 347.517 926.98 347.971C926.702 348.411 926.562 348.931 926.562 349.532H920.234C920.234 348.521 920.469 347.561 920.938 346.653C921.406 345.745 922.087 344.947 922.981 344.258C923.875 343.555 924.937 343.006 926.167 342.61C927.412 342.215 928.804 342.017 930.342 342.017C932.188 342.017 933.828 342.325 935.264 342.94C936.699 343.555 937.827 344.478 938.647 345.708C939.482 346.939 939.9 348.477 939.9 350.323V360.496C939.9 361.8 939.98 362.869 940.142 363.704C940.303 364.524 940.537 365.242 940.845 365.857V366.231H934.451C934.143 365.586 933.909 364.781 933.748 363.814C933.601 362.832 933.528 361.851 933.528 360.869ZM934.363 351.751L934.407 355.332H930.869C930.034 355.332 929.309 355.428 928.694 355.618C928.079 355.808 927.573 356.079 927.178 356.431C926.782 356.768 926.489 357.163 926.299 357.617C926.123 358.072 926.035 358.57 926.035 359.112C926.035 359.654 926.16 360.144 926.409 360.584C926.658 361.009 927.017 361.346 927.485 361.595C927.954 361.829 928.503 361.946 929.133 361.946C930.085 361.946 930.913 361.756 931.616 361.375C932.319 360.994 932.861 360.525 933.242 359.969C933.638 359.412 933.843 358.885 933.857 358.387L935.527 361.067C935.293 361.668 934.971 362.29 934.561 362.935C934.165 363.579 933.66 364.187 933.044 364.759C932.429 365.315 931.689 365.777 930.825 366.143C929.961 366.494 928.936 366.67 927.749 366.67C926.24 366.67 924.871 366.37 923.64 365.769C922.424 365.154 921.458 364.312 920.74 363.242C920.037 362.159 919.685 360.928 919.685 359.551C919.685 358.306 919.919 357.2 920.388 356.233C920.857 355.266 921.545 354.453 922.454 353.794C923.376 353.12 924.526 352.615 925.903 352.278C927.28 351.927 928.877 351.751 930.693 351.751H934.363Z" fill="black"/>
<path d="M791.23 452.93H784.023L783.984 449.903H790.527C791.608 449.903 792.552 449.72 793.359 449.356C794.167 448.991 794.792 448.47 795.234 447.793C795.69 447.103 795.918 446.283 795.918 445.332C795.918 444.291 795.716 443.444 795.312 442.793C794.922 442.129 794.316 441.647 793.496 441.348C792.689 441.035 791.66 440.879 790.41 440.879H784.863V466.231H781.094V437.793H790.41C791.868 437.793 793.171 437.943 794.316 438.242C795.462 438.529 796.432 438.985 797.227 439.61C798.034 440.222 798.646 441.003 799.062 441.953C799.479 442.904 799.688 444.043 799.688 445.371C799.688 446.543 799.388 447.604 798.789 448.555C798.19 449.492 797.357 450.261 796.289 450.86C795.234 451.459 793.997 451.843 792.578 452.012L791.23 452.93ZM791.055 466.231H782.539L784.668 463.164H791.055C792.253 463.164 793.268 462.956 794.102 462.539C794.948 462.123 795.592 461.537 796.035 460.782C796.478 460.013 796.699 459.108 796.699 458.067C796.699 457.012 796.51 456.101 796.133 455.332C795.755 454.564 795.163 453.972 794.355 453.555C793.548 453.138 792.507 452.93 791.23 452.93H785.859L785.898 449.903H793.242L794.043 450.996C795.41 451.114 796.569 451.504 797.52 452.168C798.47 452.819 799.193 453.653 799.688 454.668C800.195 455.684 800.449 456.804 800.449 458.028C800.449 459.798 800.059 461.296 799.277 462.52C798.509 463.731 797.422 464.655 796.016 465.293C794.609 465.918 792.956 466.231 791.055 466.231ZM817.93 462.617V451.739C817.93 450.905 817.76 450.183 817.422 449.571C817.096 448.946 816.602 448.464 815.938 448.125C815.273 447.787 814.453 447.617 813.477 447.617C812.565 447.617 811.764 447.774 811.074 448.086C810.397 448.399 809.863 448.809 809.473 449.317C809.095 449.825 808.906 450.371 808.906 450.957H805.293C805.293 450.202 805.488 449.453 805.879 448.711C806.27 447.969 806.829 447.298 807.559 446.7C808.301 446.088 809.186 445.606 810.215 445.254C811.257 444.89 812.415 444.707 813.691 444.707C815.228 444.707 816.582 444.968 817.754 445.489C818.939 446.009 819.863 446.797 820.527 447.852C821.204 448.894 821.543 450.202 821.543 451.778V461.621C821.543 462.325 821.602 463.073 821.719 463.867C821.849 464.662 822.038 465.345 822.285 465.918V466.231H818.516C818.333 465.814 818.19 465.261 818.086 464.571C817.982 463.867 817.93 463.216 817.93 462.617ZM818.555 453.418L818.594 455.957H814.941C813.913 455.957 812.995 456.042 812.188 456.211C811.38 456.367 810.703 456.608 810.156 456.934C809.609 457.259 809.193 457.67 808.906 458.164C808.62 458.646 808.477 459.213 808.477 459.864C808.477 460.528 808.626 461.133 808.926 461.68C809.225 462.227 809.674 462.663 810.273 462.989C810.885 463.301 811.634 463.457 812.52 463.457C813.626 463.457 814.603 463.223 815.449 462.754C816.296 462.285 816.966 461.713 817.461 461.035C817.969 460.358 818.242 459.701 818.281 459.063L819.824 460.801C819.733 461.348 819.486 461.953 819.082 462.617C818.678 463.282 818.138 463.92 817.461 464.532C816.797 465.131 816.003 465.632 815.078 466.035C814.167 466.426 813.138 466.621 811.992 466.621C810.56 466.621 809.303 466.341 808.223 465.782C807.155 465.222 806.322 464.473 805.723 463.535C805.137 462.585 804.844 461.524 804.844 460.352C804.844 459.219 805.065 458.223 805.508 457.364C805.951 456.491 806.589 455.769 807.422 455.196C808.255 454.61 809.258 454.167 810.43 453.867C811.602 453.568 812.91 453.418 814.355 453.418H818.555ZM830.84 449.61V466.231H827.227V445.098H830.645L830.84 449.61ZM829.98 454.864L828.477 454.805C828.49 453.36 828.704 452.025 829.121 450.801C829.538 449.564 830.124 448.49 830.879 447.578C831.634 446.667 832.533 445.964 833.574 445.469C834.629 444.961 835.794 444.707 837.07 444.707C838.112 444.707 839.049 444.851 839.883 445.137C840.716 445.41 841.426 445.853 842.012 446.465C842.611 447.077 843.066 447.871 843.379 448.848C843.691 449.812 843.848 450.99 843.848 452.383V466.231H840.215V452.344C840.215 451.237 840.052 450.352 839.727 449.688C839.401 449.011 838.926 448.522 838.301 448.223C837.676 447.91 836.908 447.754 835.996 447.754C835.098 447.754 834.277 447.943 833.535 448.321C832.806 448.698 832.174 449.219 831.641 449.883C831.12 450.547 830.71 451.309 830.41 452.168C830.124 453.015 829.98 453.913 829.98 454.864ZM861.797 462.617V451.739C861.797 450.905 861.628 450.183 861.289 449.571C860.964 448.946 860.469 448.464 859.805 448.125C859.141 447.787 858.32 447.617 857.344 447.617C856.432 447.617 855.632 447.774 854.941 448.086C854.264 448.399 853.73 448.809 853.34 449.317C852.962 449.825 852.773 450.371 852.773 450.957H849.16C849.16 450.202 849.355 449.453 849.746 448.711C850.137 447.969 850.697 447.298 851.426 446.7C852.168 446.088 853.053 445.606 854.082 445.254C855.124 444.89 856.283 444.707 857.559 444.707C859.095 444.707 860.449 444.968 861.621 445.489C862.806 446.009 863.73 446.797 864.395 447.852C865.072 448.894 865.41 450.202 865.41 451.778V461.621C865.41 462.325 865.469 463.073 865.586 463.867C865.716 464.662 865.905 465.345 866.152 465.918V466.231H862.383C862.201 465.814 862.057 465.261 861.953 464.571C861.849 463.867 861.797 463.216 861.797 462.617ZM862.422 453.418L862.461 455.957H858.809C857.78 455.957 856.862 456.042 856.055 456.211C855.247 456.367 854.57 456.608 854.023 456.934C853.477 457.259 853.06 457.67 852.773 458.164C852.487 458.646 852.344 459.213 852.344 459.864C852.344 460.528 852.493 461.133 852.793 461.68C853.092 462.227 853.542 462.663 854.141 462.989C854.753 463.301 855.501 463.457 856.387 463.457C857.493 463.457 858.47 463.223 859.316 462.754C860.163 462.285 860.833 461.713 861.328 461.035C861.836 460.358 862.109 459.701 862.148 459.063L863.691 460.801C863.6 461.348 863.353 461.953 862.949 462.617C862.546 463.282 862.005 463.92 861.328 464.532C860.664 465.131 859.87 465.632 858.945 466.035C858.034 466.426 857.005 466.621 855.859 466.621C854.427 466.621 853.171 466.341 852.09 465.782C851.022 465.222 850.189 464.473 849.59 463.535C849.004 462.585 848.711 461.524 848.711 460.352C848.711 459.219 848.932 458.223 849.375 457.364C849.818 456.491 850.456 455.769 851.289 455.196C852.122 454.61 853.125 454.167 854.297 453.867C855.469 453.568 856.777 453.418 858.223 453.418H862.422ZM874.707 449.61V466.231H871.094V445.098H874.512L874.707 449.61ZM873.848 454.864L872.344 454.805C872.357 453.36 872.572 452.025 872.988 450.801C873.405 449.564 873.991 448.49 874.746 447.578C875.501 446.667 876.4 445.964 877.441 445.469C878.496 444.961 879.661 444.707 880.938 444.707C881.979 444.707 882.917 444.851 883.75 445.137C884.583 445.41 885.293 445.853 885.879 446.465C886.478 447.077 886.934 447.871 887.246 448.848C887.559 449.812 887.715 450.99 887.715 452.383V466.231H884.082V452.344C884.082 451.237 883.919 450.352 883.594 449.688C883.268 449.011 882.793 448.522 882.168 448.223C881.543 447.91 880.775 447.754 879.863 447.754C878.965 447.754 878.145 447.943 877.402 448.321C876.673 448.698 876.042 449.219 875.508 449.883C874.987 450.547 874.577 451.309 874.277 452.168C873.991 453.015 873.848 453.913 873.848 454.864ZM905.664 462.617V451.739C905.664 450.905 905.495 450.183 905.156 449.571C904.831 448.946 904.336 448.464 903.672 448.125C903.008 447.787 902.188 447.617 901.211 447.617C900.299 447.617 899.499 447.774 898.809 448.086C898.132 448.399 897.598 448.809 897.207 449.317C896.829 449.825 896.641 450.371 896.641 450.957H893.027C893.027 450.202 893.223 449.453 893.613 448.711C894.004 447.969 894.564 447.298 895.293 446.7C896.035 446.088 896.921 445.606 897.949 445.254C898.991 444.89 900.15 444.707 901.426 444.707C902.962 444.707 904.316 444.968 905.488 445.489C906.673 446.009 907.598 446.797 908.262 447.852C908.939 448.894 909.277 450.202 909.277 451.778V461.621C909.277 462.325 909.336 463.073 909.453 463.867C909.583 464.662 909.772 465.345 910.02 465.918V466.231H906.25C906.068 465.814 905.924 465.261 905.82 464.571C905.716 463.867 905.664 463.216 905.664 462.617ZM906.289 453.418L906.328 455.957H902.676C901.647 455.957 900.729 456.042 899.922 456.211C899.115 456.367 898.438 456.608 897.891 456.934C897.344 457.259 896.927 457.67 896.641 458.164C896.354 458.646 896.211 459.213 896.211 459.864C896.211 460.528 896.361 461.133 896.66 461.68C896.96 462.227 897.409 462.663 898.008 462.989C898.62 463.301 899.368 463.457 900.254 463.457C901.361 463.457 902.337 463.223 903.184 462.754C904.03 462.285 904.701 461.713 905.195 461.035C905.703 460.358 905.977 459.701 906.016 459.063L907.559 460.801C907.467 461.348 907.22 461.953 906.816 462.617C906.413 463.282 905.872 463.92 905.195 464.532C904.531 465.131 903.737 465.632 902.812 466.035C901.901 466.426 900.872 466.621 899.727 466.621C898.294 466.621 897.038 466.341 895.957 465.782C894.889 465.222 894.056 464.473 893.457 463.535C892.871 462.585 892.578 461.524 892.578 460.352C892.578 459.219 892.799 458.223 893.242 457.364C893.685 456.491 894.323 455.769 895.156 455.196C895.99 454.61 896.992 454.167 898.164 453.867C899.336 453.568 900.645 453.418 902.09 453.418H906.289Z" fill="black"/>
<path d="M328 403.231H1362V401.231H328V403.231ZM1369 410.231V495.231H1371V410.231H1369ZM1362 502.231H328V504.231H1362V502.231ZM321 495.231V410.231H319V495.231H321ZM328 502.231C324.134 502.231 321 499.097 321 495.231H319C319 500.201 323.029 504.231 328 504.231V502.231ZM1369 495.231C1369 499.097 1365.87 502.231 1362 502.231V504.231C1366.97 504.231 1371 500.201 1371 495.231H1369ZM1362 403.231C1365.87 403.231 1369 406.365 1369 410.231H1371C1371 405.26 1366.97 401.231 1362 401.231V403.231ZM328 401.231C323.029 401.231 319 405.26 319 410.231H321C321 406.365 324.134 403.231 328 403.231V401.231Z" fill="black"/>
<path d="M769.668 578.793H773.32L782.637 601.977L791.934 578.793H795.605L784.043 607.231H781.191L769.668 578.793ZM768.477 578.793H771.699L772.227 596.137V607.231H768.477V578.793ZM793.555 578.793H796.777V607.231H793.027V596.137L793.555 578.793ZM801.895 596.899V596.45C801.895 594.926 802.116 593.513 802.559 592.211C803.001 590.896 803.639 589.757 804.473 588.793C805.306 587.817 806.315 587.062 807.5 586.528C808.685 585.981 810.013 585.707 811.484 585.707C812.969 585.707 814.303 585.981 815.488 586.528C816.686 587.062 817.702 587.817 818.535 588.793C819.382 589.757 820.026 590.896 820.469 592.211C820.911 593.513 821.133 594.926 821.133 596.45V596.899C821.133 598.422 820.911 599.835 820.469 601.137C820.026 602.439 819.382 603.578 818.535 604.555C817.702 605.519 816.693 606.274 815.508 606.821C814.336 607.354 813.008 607.621 811.523 607.621C810.039 607.621 808.704 607.354 807.52 606.821C806.335 606.274 805.319 605.519 804.473 604.555C803.639 603.578 803.001 602.439 802.559 601.137C802.116 599.835 801.895 598.422 801.895 596.899ZM805.508 596.45V596.899C805.508 597.953 805.632 598.95 805.879 599.887C806.126 600.812 806.497 601.632 806.992 602.348C807.5 603.064 808.132 603.631 808.887 604.047C809.642 604.451 810.521 604.653 811.523 604.653C812.513 604.653 813.379 604.451 814.121 604.047C814.876 603.631 815.501 603.064 815.996 602.348C816.491 601.632 816.862 600.812 817.109 599.887C817.37 598.95 817.5 597.953 817.5 596.899V596.45C817.5 595.408 817.37 594.425 817.109 593.5C816.862 592.563 816.484 591.736 815.977 591.02C815.482 590.291 814.857 589.718 814.102 589.301C813.359 588.884 812.487 588.676 811.484 588.676C810.495 588.676 809.622 588.884 808.867 589.301C808.125 589.718 807.5 590.291 806.992 591.02C806.497 591.736 806.126 592.563 805.879 593.5C805.632 594.425 805.508 595.408 805.508 596.45ZM829.277 589.418V607.231H825.664V586.098H829.18L829.277 589.418ZM835.879 585.981L835.859 589.34C835.56 589.275 835.273 589.236 835 589.223C834.74 589.197 834.44 589.184 834.102 589.184C833.268 589.184 832.533 589.314 831.895 589.575C831.257 589.835 830.716 590.2 830.273 590.668C829.831 591.137 829.479 591.697 829.219 592.348C828.971 592.986 828.809 593.689 828.73 594.457L827.715 595.043C827.715 593.767 827.839 592.569 828.086 591.45C828.346 590.33 828.743 589.34 829.277 588.481C829.811 587.608 830.488 586.931 831.309 586.45C832.142 585.955 833.132 585.707 834.277 585.707C834.538 585.707 834.837 585.74 835.176 585.805C835.514 585.857 835.749 585.916 835.879 585.981ZM850.898 603.617V592.739C850.898 591.905 850.729 591.183 850.391 590.571C850.065 589.946 849.57 589.464 848.906 589.125C848.242 588.787 847.422 588.617 846.445 588.617C845.534 588.617 844.733 588.774 844.043 589.086C843.366 589.399 842.832 589.809 842.441 590.317C842.064 590.825 841.875 591.371 841.875 591.957H838.262C838.262 591.202 838.457 590.453 838.848 589.711C839.238 588.969 839.798 588.298 840.527 587.7C841.27 587.088 842.155 586.606 843.184 586.254C844.225 585.89 845.384 585.707 846.66 585.707C848.197 585.707 849.551 585.968 850.723 586.489C851.908 587.009 852.832 587.797 853.496 588.852C854.173 589.894 854.512 591.202 854.512 592.778V602.621C854.512 603.325 854.57 604.073 854.688 604.867C854.818 605.662 855.007 606.345 855.254 606.918V607.231H851.484C851.302 606.814 851.159 606.261 851.055 605.571C850.951 604.867 850.898 604.216 850.898 603.617ZM851.523 594.418L851.562 596.957H847.91C846.882 596.957 845.964 597.042 845.156 597.211C844.349 597.367 843.672 597.608 843.125 597.934C842.578 598.259 842.161 598.67 841.875 599.164C841.589 599.646 841.445 600.213 841.445 600.864C841.445 601.528 841.595 602.133 841.895 602.68C842.194 603.227 842.643 603.663 843.242 603.989C843.854 604.301 844.603 604.457 845.488 604.457C846.595 604.457 847.572 604.223 848.418 603.754C849.264 603.285 849.935 602.713 850.43 602.035C850.938 601.358 851.211 600.701 851.25 600.063L852.793 601.801C852.702 602.348 852.454 602.953 852.051 603.617C851.647 604.282 851.107 604.92 850.43 605.532C849.766 606.131 848.971 606.632 848.047 607.035C847.135 607.426 846.107 607.621 844.961 607.621C843.529 607.621 842.272 607.341 841.191 606.782C840.124 606.222 839.29 605.473 838.691 604.535C838.105 603.585 837.812 602.524 837.812 601.352C837.812 600.219 838.034 599.223 838.477 598.364C838.919 597.491 839.557 596.769 840.391 596.196C841.224 595.61 842.227 595.167 843.398 594.867C844.57 594.568 845.879 594.418 847.324 594.418H851.523ZM863.809 590.61V607.231H860.195V586.098H863.613L863.809 590.61ZM862.949 595.864L861.445 595.805C861.458 594.36 861.673 593.025 862.09 591.801C862.507 590.564 863.092 589.49 863.848 588.578C864.603 587.667 865.501 586.964 866.543 586.469C867.598 585.961 868.763 585.707 870.039 585.707C871.081 585.707 872.018 585.851 872.852 586.137C873.685 586.41 874.395 586.853 874.98 587.465C875.579 588.077 876.035 588.871 876.348 589.848C876.66 590.812 876.816 591.99 876.816 593.383V607.231H873.184V593.344C873.184 592.237 873.021 591.352 872.695 590.688C872.37 590.011 871.895 589.522 871.27 589.223C870.645 588.91 869.876 588.754 868.965 588.754C868.066 588.754 867.246 588.943 866.504 589.321C865.775 589.698 865.143 590.219 864.609 590.883C864.089 591.547 863.678 592.309 863.379 593.168C863.092 594.015 862.949 594.913 862.949 595.864ZM895.996 586.098H899.277V606.782C899.277 608.644 898.9 610.232 898.145 611.547C897.389 612.862 896.335 613.858 894.98 614.535C893.639 615.226 892.09 615.571 890.332 615.571C889.603 615.571 888.743 615.453 887.754 615.219C886.777 614.998 885.814 614.614 884.863 614.067C883.926 613.533 883.138 612.81 882.5 611.899L884.395 609.75C885.28 610.818 886.204 611.56 887.168 611.977C888.145 612.394 889.108 612.602 890.059 612.602C891.204 612.602 892.194 612.387 893.027 611.957C893.861 611.528 894.505 610.89 894.961 610.043C895.43 609.21 895.664 608.181 895.664 606.957V590.746L895.996 586.098ZM881.445 596.899V596.489C881.445 594.874 881.634 593.409 882.012 592.094C882.402 590.766 882.956 589.627 883.672 588.676C884.401 587.726 885.28 586.996 886.309 586.489C887.337 585.968 888.496 585.707 889.785 585.707C891.113 585.707 892.272 585.942 893.262 586.41C894.264 586.866 895.111 587.537 895.801 588.422C896.504 589.295 897.057 590.349 897.461 591.586C897.865 592.823 898.145 594.223 898.301 595.785V597.582C898.158 599.132 897.878 600.525 897.461 601.762C897.057 602.999 896.504 604.054 895.801 604.926C895.111 605.798 894.264 606.469 893.262 606.938C892.259 607.394 891.087 607.621 889.746 607.621C888.483 607.621 887.337 607.354 886.309 606.821C885.293 606.287 884.421 605.538 883.691 604.575C882.962 603.611 882.402 602.478 882.012 601.176C881.634 599.861 881.445 598.435 881.445 596.899ZM885.059 596.489V596.899C885.059 597.953 885.163 598.943 885.371 599.867C885.592 600.792 885.924 601.606 886.367 602.309C886.823 603.012 887.402 603.565 888.105 603.969C888.809 604.36 889.648 604.555 890.625 604.555C891.823 604.555 892.812 604.301 893.594 603.793C894.375 603.285 894.993 602.615 895.449 601.782C895.918 600.948 896.283 600.043 896.543 599.067V594.36C896.4 593.644 896.178 592.953 895.879 592.289C895.592 591.612 895.215 591.013 894.746 590.492C894.29 589.959 893.724 589.535 893.047 589.223C892.37 588.91 891.576 588.754 890.664 588.754C889.674 588.754 888.822 588.963 888.105 589.379C887.402 589.783 886.823 590.343 886.367 591.059C885.924 591.762 885.592 592.582 885.371 593.52C885.163 594.444 885.059 595.434 885.059 596.489ZM903.809 596.899V596.45C903.809 594.926 904.03 593.513 904.473 592.211C904.915 590.896 905.553 589.757 906.387 588.793C907.22 587.817 908.229 587.062 909.414 586.528C910.599 585.981 911.927 585.707 913.398 585.707C914.883 585.707 916.217 585.981 917.402 586.528C918.6 587.062 919.616 587.817 920.449 588.793C921.296 589.757 921.94 590.896 922.383 592.211C922.826 593.513 923.047 594.926 923.047 596.45V596.899C923.047 598.422 922.826 599.835 922.383 601.137C921.94 602.439 921.296 603.578 920.449 604.555C919.616 605.519 918.607 606.274 917.422 606.821C916.25 607.354 914.922 607.621 913.438 607.621C911.953 607.621 910.618 607.354 909.434 606.821C908.249 606.274 907.233 605.519 906.387 604.555C905.553 603.578 904.915 602.439 904.473 601.137C904.03 599.835 903.809 598.422 903.809 596.899ZM907.422 596.45V596.899C907.422 597.953 907.546 598.95 907.793 599.887C908.04 600.812 908.411 601.632 908.906 602.348C909.414 603.064 910.046 603.631 910.801 604.047C911.556 604.451 912.435 604.653 913.438 604.653C914.427 604.653 915.293 604.451 916.035 604.047C916.79 603.631 917.415 603.064 917.91 602.348C918.405 601.632 918.776 600.812 919.023 599.887C919.284 598.95 919.414 597.953 919.414 596.899V596.45C919.414 595.408 919.284 594.425 919.023 593.5C918.776 592.563 918.398 591.736 917.891 591.02C917.396 590.291 916.771 589.718 916.016 589.301C915.273 588.884 914.401 588.676 913.398 588.676C912.409 588.676 911.536 588.884 910.781 589.301C910.039 589.718 909.414 590.291 908.906 591.02C908.411 591.736 908.04 592.563 907.793 593.5C907.546 594.425 907.422 595.408 907.422 596.45Z" fill="black"/>
<path d="M328 544.231H1362V542.231H328V544.231ZM1369 551.231V636.231H1371V551.231H1369ZM1362 643.231H328V645.231H1362V643.231ZM321 636.231V551.231H319V636.231H321ZM328 643.231C324.134 643.231 321 640.097 321 636.231H319C319 641.201 323.029 645.231 328 645.231V643.231ZM1369 636.231C1369 640.097 1365.87 643.231 1362 643.231V645.231C1366.97 645.231 1371 641.201 1371 636.231H1369ZM1362 544.231C1365.87 544.231 1369 547.365 1369 551.231H1371C1371 546.26 1366.97 542.231 1362 542.231V544.231ZM328 542.231C323.029 542.231 319 546.26 319 551.231H321C321 547.365 324.134 544.231 328 544.231V542.231Z" fill="black"/>
<path d="M806.426 734.071V744.481C806.074 745.002 805.514 745.588 804.746 746.239C803.978 746.877 802.917 747.437 801.562 747.918C800.221 748.387 798.49 748.621 796.367 748.621C794.635 748.621 793.04 748.322 791.582 747.723C790.137 747.111 788.88 746.226 787.812 745.067C786.758 743.895 785.938 742.476 785.352 740.809C784.779 739.129 784.492 737.228 784.492 735.106V732.899C784.492 730.776 784.74 728.882 785.234 727.215C785.742 725.548 786.484 724.136 787.461 722.977C788.438 721.805 789.635 720.92 791.055 720.321C792.474 719.709 794.102 719.403 795.938 719.403C798.112 719.403 799.928 719.78 801.387 720.535C802.858 721.278 804.004 722.306 804.824 723.621C805.658 724.937 806.191 726.434 806.426 728.114H802.656C802.487 727.085 802.148 726.147 801.641 725.301C801.146 724.455 800.436 723.778 799.512 723.27C798.587 722.749 797.396 722.489 795.938 722.489C794.622 722.489 793.483 722.729 792.52 723.211C791.556 723.693 790.762 724.383 790.137 725.282C789.512 726.18 789.043 727.267 788.73 728.543C788.431 729.819 788.281 731.258 788.281 732.86V735.106C788.281 736.746 788.47 738.211 788.848 739.5C789.238 740.789 789.792 741.89 790.508 742.801C791.224 743.7 792.077 744.383 793.066 744.852C794.069 745.321 795.176 745.555 796.387 745.555C797.728 745.555 798.815 745.444 799.648 745.223C800.482 744.989 801.133 744.715 801.602 744.403C802.07 744.077 802.428 743.771 802.676 743.485V737.117H796.094V734.071H806.426ZM811.172 737.899V737.45C811.172 735.926 811.393 734.513 811.836 733.211C812.279 731.896 812.917 730.757 813.75 729.793C814.583 728.817 815.592 728.062 816.777 727.528C817.962 726.981 819.29 726.707 820.762 726.707C822.246 726.707 823.581 726.981 824.766 727.528C825.964 728.062 826.979 728.817 827.812 729.793C828.659 730.757 829.303 731.896 829.746 733.211C830.189 734.513 830.41 735.926 830.41 737.45V737.899C830.41 739.422 830.189 740.835 829.746 742.137C829.303 743.439 828.659 744.578 827.812 745.555C826.979 746.519 825.97 747.274 824.785 747.821C823.613 748.354 822.285 748.621 820.801 748.621C819.316 748.621 817.982 748.354 816.797 747.821C815.612 747.274 814.596 746.519 813.75 745.555C812.917 744.578 812.279 743.439 811.836 742.137C811.393 740.835 811.172 739.422 811.172 737.899ZM814.785 737.45V737.899C814.785 738.953 814.909 739.95 815.156 740.887C815.404 741.812 815.775 742.632 816.27 743.348C816.777 744.064 817.409 744.631 818.164 745.047C818.919 745.451 819.798 745.653 820.801 745.653C821.79 745.653 822.656 745.451 823.398 745.047C824.154 744.631 824.779 744.064 825.273 743.348C825.768 742.632 826.139 741.812 826.387 740.887C826.647 739.95 826.777 738.953 826.777 737.899V737.45C826.777 736.408 826.647 735.425 826.387 734.5C826.139 733.563 825.762 732.736 825.254 732.02C824.759 731.291 824.134 730.718 823.379 730.301C822.637 729.884 821.764 729.676 820.762 729.676C819.772 729.676 818.9 729.884 818.145 730.301C817.402 730.718 816.777 731.291 816.27 732.02C815.775 732.736 815.404 733.563 815.156 734.5C814.909 735.425 814.785 736.408 814.785 737.45ZM838.867 727.098V748.231H835.234V727.098H838.867ZM834.961 721.492C834.961 720.907 835.137 720.412 835.488 720.008C835.853 719.604 836.387 719.403 837.09 719.403C837.78 719.403 838.307 719.604 838.672 720.008C839.049 720.412 839.238 720.907 839.238 721.492C839.238 722.052 839.049 722.534 838.672 722.938C838.307 723.328 837.78 723.524 837.09 723.524C836.387 723.524 835.853 723.328 835.488 722.938C835.137 722.534 834.961 722.052 834.961 721.492ZM857.129 744.617V733.739C857.129 732.905 856.96 732.183 856.621 731.571C856.296 730.946 855.801 730.464 855.137 730.125C854.473 729.787 853.652 729.617 852.676 729.617C851.764 729.617 850.964 729.774 850.273 730.086C849.596 730.399 849.062 730.809 848.672 731.317C848.294 731.825 848.105 732.371 848.105 732.957H844.492C844.492 732.202 844.688 731.453 845.078 730.711C845.469 729.969 846.029 729.298 846.758 728.7C847.5 728.088 848.385 727.606 849.414 727.254C850.456 726.89 851.615 726.707 852.891 726.707C854.427 726.707 855.781 726.968 856.953 727.489C858.138 728.009 859.062 728.797 859.727 729.852C860.404 730.894 860.742 732.202 860.742 733.778V743.621C860.742 744.325 860.801 745.073 860.918 745.867C861.048 746.662 861.237 747.345 861.484 747.918V748.231H857.715C857.533 747.814 857.389 747.261 857.285 746.571C857.181 745.867 857.129 745.216 857.129 744.617ZM857.754 735.418L857.793 737.957H854.141C853.112 737.957 852.194 738.042 851.387 738.211C850.579 738.367 849.902 738.608 849.355 738.934C848.809 739.259 848.392 739.67 848.105 740.164C847.819 740.646 847.676 741.213 847.676 741.864C847.676 742.528 847.826 743.133 848.125 743.68C848.424 744.227 848.874 744.663 849.473 744.989C850.085 745.301 850.833 745.457 851.719 745.457C852.826 745.457 853.802 745.223 854.648 744.754C855.495 744.285 856.165 743.713 856.66 743.035C857.168 742.358 857.441 741.701 857.48 741.063L859.023 742.801C858.932 743.348 858.685 743.953 858.281 744.617C857.878 745.282 857.337 745.92 856.66 746.532C855.996 747.131 855.202 747.632 854.277 748.035C853.366 748.426 852.337 748.621 851.191 748.621C849.759 748.621 848.503 748.341 847.422 747.782C846.354 747.222 845.521 746.473 844.922 745.535C844.336 744.585 844.043 743.524 844.043 742.352C844.043 741.219 844.264 740.223 844.707 739.364C845.15 738.491 845.788 737.769 846.621 737.196C847.454 736.61 848.457 736.167 849.629 735.867C850.801 735.568 852.109 735.418 853.555 735.418H857.754ZM866.406 718.231H870.039V744.129L869.727 748.231H866.406V718.231ZM884.316 737.489V737.899C884.316 739.435 884.134 740.861 883.77 742.176C883.405 743.478 882.871 744.611 882.168 745.575C881.465 746.538 880.605 747.287 879.59 747.821C878.574 748.354 877.409 748.621 876.094 748.621C874.753 748.621 873.574 748.394 872.559 747.938C871.556 747.469 870.71 746.798 870.02 745.926C869.329 745.054 868.776 743.999 868.359 742.762C867.956 741.525 867.676 740.132 867.52 738.582V736.785C867.676 735.223 867.956 733.823 868.359 732.586C868.776 731.349 869.329 730.295 870.02 729.422C870.71 728.537 871.556 727.866 872.559 727.41C873.561 726.942 874.727 726.707 876.055 726.707C877.383 726.707 878.561 726.968 879.59 727.489C880.618 727.996 881.478 728.726 882.168 729.676C882.871 730.627 883.405 731.766 883.77 733.094C884.134 734.409 884.316 735.874 884.316 737.489ZM880.684 737.899V737.489C880.684 736.434 880.586 735.444 880.391 734.52C880.195 733.582 879.883 732.762 879.453 732.059C879.023 731.343 878.457 730.783 877.754 730.379C877.051 729.963 876.185 729.754 875.156 729.754C874.245 729.754 873.451 729.91 872.773 730.223C872.109 730.535 871.543 730.959 871.074 731.492C870.605 732.013 870.221 732.612 869.922 733.289C869.635 733.953 869.421 734.644 869.277 735.36V740.067C869.486 740.978 869.824 741.857 870.293 742.703C870.775 743.537 871.413 744.22 872.207 744.754C873.014 745.288 874.01 745.555 875.195 745.555C876.172 745.555 877.005 745.36 877.695 744.969C878.398 744.565 878.965 744.012 879.395 743.309C879.837 742.606 880.163 741.792 880.371 740.867C880.579 739.943 880.684 738.953 880.684 737.899ZM901.348 744.617V733.739C901.348 732.905 901.178 732.183 900.84 731.571C900.514 730.946 900.02 730.464 899.355 730.125C898.691 729.787 897.871 729.617 896.895 729.617C895.983 729.617 895.182 729.774 894.492 730.086C893.815 730.399 893.281 730.809 892.891 731.317C892.513 731.825 892.324 732.371 892.324 732.957H888.711C888.711 732.202 888.906 731.453 889.297 730.711C889.688 729.969 890.247 729.298 890.977 728.7C891.719 728.088 892.604 727.606 893.633 727.254C894.674 726.89 895.833 726.707 897.109 726.707C898.646 726.707 900 726.968 901.172 727.489C902.357 728.009 903.281 728.797 903.945 729.852C904.622 730.894 904.961 732.202 904.961 733.778V743.621C904.961 744.325 905.02 745.073 905.137 745.867C905.267 746.662 905.456 747.345 905.703 747.918V748.231H901.934C901.751 747.814 901.608 747.261 901.504 746.571C901.4 745.867 901.348 745.216 901.348 744.617ZM901.973 735.418L902.012 737.957H898.359C897.331 737.957 896.413 738.042 895.605 738.211C894.798 738.367 894.121 738.608 893.574 738.934C893.027 739.259 892.611 739.67 892.324 740.164C892.038 740.646 891.895 741.213 891.895 741.864C891.895 742.528 892.044 743.133 892.344 743.68C892.643 744.227 893.092 744.663 893.691 744.989C894.303 745.301 895.052 745.457 895.938 745.457C897.044 745.457 898.021 745.223 898.867 744.754C899.714 744.285 900.384 743.713 900.879 743.035C901.387 742.358 901.66 741.701 901.699 741.063L903.242 742.801C903.151 743.348 902.904 743.953 902.5 744.617C902.096 745.282 901.556 745.92 900.879 746.532C900.215 747.131 899.421 747.632 898.496 748.035C897.585 748.426 896.556 748.621 895.41 748.621C893.978 748.621 892.721 748.341 891.641 747.782C890.573 747.222 889.74 746.473 889.141 745.535C888.555 744.585 888.262 743.524 888.262 742.352C888.262 741.219 888.483 740.223 888.926 739.364C889.368 738.491 890.007 737.769 890.84 737.196C891.673 736.61 892.676 736.167 893.848 735.867C895.02 735.568 896.328 735.418 897.773 735.418H901.973Z" fill="black"/>
<path d="M328 685.231H1362V683.231H328V685.231ZM1369 692.231V777.231H1371V692.231H1369ZM1362 784.231H328V786.231H1362V784.231ZM321 777.231V692.231H319V777.231H321ZM328 784.231C324.134 784.231 321 781.097 321 777.231H319C319 782.201 323.029 786.231 328 786.231V784.231ZM1369 777.231C1369 781.097 1365.87 784.231 1362 784.231V786.231C1366.97 786.231 1371 782.201 1371 777.231H1369ZM1362 685.231C1365.87 685.231 1369 688.365 1369 692.231H1371C1371 687.26 1366.97 683.231 1362 683.231V685.231ZM328 683.231C323.029 683.231 319 687.26 319 692.231H321C321 688.365 324.134 685.231 328 685.231V683.231Z" fill="black"/>
<path d="M781.797 878.078H774.199V875.012H781.797C783.268 875.012 784.46 874.778 785.371 874.309C786.283 873.84 786.947 873.189 787.363 872.356C787.793 871.522 788.008 870.572 788.008 869.504C788.008 868.528 787.793 867.61 787.363 866.75C786.947 865.891 786.283 865.201 785.371 864.68C784.46 864.146 783.268 863.879 781.797 863.879H775.078V889.231H771.309V860.793H781.797C783.945 860.793 785.762 861.164 787.246 861.907C788.73 862.649 789.857 863.677 790.625 864.992C791.393 866.295 791.777 867.785 791.777 869.465C791.777 871.288 791.393 872.844 790.625 874.133C789.857 875.422 788.73 876.405 787.246 877.082C785.762 877.746 783.945 878.078 781.797 878.078ZM804.492 889.621C803.021 889.621 801.686 889.374 800.488 888.879C799.303 888.371 798.281 887.662 797.422 886.75C796.576 885.839 795.924 884.758 795.469 883.508C795.013 882.258 794.785 880.891 794.785 879.407V878.586C794.785 876.867 795.039 875.338 795.547 873.996C796.055 872.642 796.745 871.496 797.617 870.559C798.49 869.621 799.479 868.912 800.586 868.43C801.693 867.948 802.839 867.707 804.023 867.707C805.534 867.707 806.836 867.968 807.93 868.489C809.036 869.009 809.941 869.739 810.645 870.676C811.348 871.601 811.868 872.694 812.207 873.957C812.546 875.207 812.715 876.575 812.715 878.059V879.68H796.934V876.731H809.102V876.457C809.049 875.52 808.854 874.608 808.516 873.723C808.19 872.838 807.669 872.108 806.953 871.535C806.237 870.963 805.26 870.676 804.023 870.676C803.203 870.676 802.448 870.852 801.758 871.203C801.068 871.542 800.475 872.05 799.98 872.727C799.486 873.404 799.102 874.231 798.828 875.207C798.555 876.184 798.418 877.31 798.418 878.586V879.407C798.418 880.409 798.555 881.353 798.828 882.239C799.115 883.111 799.525 883.879 800.059 884.543C800.605 885.207 801.263 885.728 802.031 886.106C802.812 886.483 803.698 886.672 804.688 886.672C805.964 886.672 807.044 886.412 807.93 885.891C808.815 885.37 809.59 884.673 810.254 883.801L812.441 885.539C811.986 886.229 811.406 886.887 810.703 887.512C810 888.137 809.134 888.645 808.105 889.035C807.09 889.426 805.885 889.621 804.492 889.621ZM805.098 859.231L809.941 864.563V864.758H806.934L804.004 861.457L801.094 864.758H798.125V864.543L802.91 859.231H805.098ZM829.238 883.625C829.238 883.104 829.121 882.623 828.887 882.18C828.665 881.724 828.203 881.314 827.5 880.95C826.81 880.572 825.768 880.246 824.375 879.973C823.203 879.726 822.142 879.433 821.191 879.094C820.254 878.756 819.453 878.345 818.789 877.864C818.138 877.382 817.637 876.815 817.285 876.164C816.934 875.513 816.758 874.752 816.758 873.879C816.758 873.046 816.94 872.258 817.305 871.516C817.682 870.774 818.21 870.116 818.887 869.543C819.577 868.97 820.404 868.521 821.367 868.196C822.331 867.87 823.405 867.707 824.59 867.707C826.283 867.707 827.728 868.007 828.926 868.606C830.124 869.205 831.042 870.006 831.68 871.008C832.318 871.998 832.637 873.098 832.637 874.309H829.023C829.023 873.723 828.848 873.157 828.496 872.61C828.158 872.05 827.656 871.588 826.992 871.223C826.341 870.858 825.54 870.676 824.59 870.676C823.587 870.676 822.773 870.832 822.148 871.145C821.536 871.444 821.087 871.828 820.801 872.297C820.527 872.766 820.391 873.261 820.391 873.782C820.391 874.172 820.456 874.524 820.586 874.836C820.729 875.136 820.977 875.416 821.328 875.676C821.68 875.923 822.174 876.158 822.812 876.379C823.451 876.601 824.264 876.822 825.254 877.043C826.986 877.434 828.411 877.903 829.531 878.45C830.651 878.996 831.484 879.667 832.031 880.461C832.578 881.256 832.852 882.219 832.852 883.352C832.852 884.276 832.656 885.123 832.266 885.891C831.888 886.659 831.335 887.323 830.605 887.883C829.889 888.43 829.03 888.86 828.027 889.172C827.038 889.472 825.924 889.621 824.688 889.621C822.826 889.621 821.25 889.289 819.961 888.625C818.672 887.961 817.695 887.102 817.031 886.047C816.367 884.992 816.035 883.879 816.035 882.707H819.668C819.72 883.697 820.007 884.485 820.527 885.071C821.048 885.644 821.686 886.054 822.441 886.301C823.197 886.535 823.945 886.653 824.688 886.653C825.677 886.653 826.504 886.522 827.168 886.262C827.845 886.002 828.359 885.644 828.711 885.188C829.062 884.732 829.238 884.211 829.238 883.625ZM849.902 883.625C849.902 883.104 849.785 882.623 849.551 882.18C849.329 881.724 848.867 881.314 848.164 880.95C847.474 880.572 846.432 880.246 845.039 879.973C843.867 879.726 842.806 879.433 841.855 879.094C840.918 878.756 840.117 878.345 839.453 877.864C838.802 877.382 838.301 876.815 837.949 876.164C837.598 875.513 837.422 874.752 837.422 873.879C837.422 873.046 837.604 872.258 837.969 871.516C838.346 870.774 838.874 870.116 839.551 869.543C840.241 868.97 841.068 868.521 842.031 868.196C842.995 867.87 844.069 867.707 845.254 867.707C846.947 867.707 848.392 868.007 849.59 868.606C850.788 869.205 851.706 870.006 852.344 871.008C852.982 871.998 853.301 873.098 853.301 874.309H849.688C849.688 873.723 849.512 873.157 849.16 872.61C848.822 872.05 848.32 871.588 847.656 871.223C847.005 870.858 846.204 870.676 845.254 870.676C844.251 870.676 843.438 870.832 842.812 871.145C842.201 871.444 841.751 871.828 841.465 872.297C841.191 872.766 841.055 873.261 841.055 873.782C841.055 874.172 841.12 874.524 841.25 874.836C841.393 875.136 841.641 875.416 841.992 875.676C842.344 875.923 842.839 876.158 843.477 876.379C844.115 876.601 844.928 876.822 845.918 877.043C847.65 877.434 849.076 877.903 850.195 878.45C851.315 878.996 852.148 879.667 852.695 880.461C853.242 881.256 853.516 882.219 853.516 883.352C853.516 884.276 853.32 885.123 852.93 885.891C852.552 886.659 851.999 887.323 851.27 887.883C850.553 888.43 849.694 888.86 848.691 889.172C847.702 889.472 846.589 889.621 845.352 889.621C843.49 889.621 841.914 889.289 840.625 888.625C839.336 887.961 838.359 887.102 837.695 886.047C837.031 884.992 836.699 883.879 836.699 882.707H840.332C840.384 883.697 840.671 884.485 841.191 885.071C841.712 885.644 842.35 886.054 843.105 886.301C843.861 886.535 844.609 886.653 845.352 886.653C846.341 886.653 847.168 886.522 847.832 886.262C848.509 886.002 849.023 885.644 849.375 885.188C849.727 884.732 849.902 884.211 849.902 883.625ZM867.031 889.621C865.56 889.621 864.225 889.374 863.027 888.879C861.842 888.371 860.82 887.662 859.961 886.75C859.115 885.839 858.464 884.758 858.008 883.508C857.552 882.258 857.324 880.891 857.324 879.407V878.586C857.324 876.867 857.578 875.338 858.086 873.996C858.594 872.642 859.284 871.496 860.156 870.559C861.029 869.621 862.018 868.912 863.125 868.43C864.232 867.948 865.378 867.707 866.562 867.707C868.073 867.707 869.375 867.968 870.469 868.489C871.576 869.009 872.48 869.739 873.184 870.676C873.887 871.601 874.408 872.694 874.746 873.957C875.085 875.207 875.254 876.575 875.254 878.059V879.68H859.473V876.731H871.641V876.457C871.589 875.52 871.393 874.608 871.055 873.723C870.729 872.838 870.208 872.108 869.492 871.535C868.776 870.963 867.799 870.676 866.562 870.676C865.742 870.676 864.987 870.852 864.297 871.203C863.607 871.542 863.014 872.05 862.52 872.727C862.025 873.404 861.641 874.231 861.367 875.207C861.094 876.184 860.957 877.31 860.957 878.586V879.407C860.957 880.409 861.094 881.353 861.367 882.239C861.654 883.111 862.064 883.879 862.598 884.543C863.145 885.207 863.802 885.728 864.57 886.106C865.352 886.483 866.237 886.672 867.227 886.672C868.503 886.672 869.583 886.412 870.469 885.891C871.354 885.37 872.129 884.673 872.793 883.801L874.98 885.539C874.525 886.229 873.945 886.887 873.242 887.512C872.539 888.137 871.673 888.645 870.645 889.035C869.629 889.426 868.424 889.621 867.031 889.621ZM893.164 868.098H896.445V888.782C896.445 890.644 896.068 892.232 895.312 893.547C894.557 894.862 893.503 895.858 892.148 896.535C890.807 897.226 889.258 897.571 887.5 897.571C886.771 897.571 885.911 897.453 884.922 897.219C883.945 896.998 882.982 896.614 882.031 896.067C881.094 895.533 880.306 894.81 879.668 893.899L881.562 891.75C882.448 892.818 883.372 893.56 884.336 893.977C885.312 894.394 886.276 894.602 887.227 894.602C888.372 894.602 889.362 894.387 890.195 893.957C891.029 893.528 891.673 892.89 892.129 892.043C892.598 891.21 892.832 890.181 892.832 888.957V872.746L893.164 868.098ZM878.613 878.899V878.489C878.613 876.874 878.802 875.409 879.18 874.094C879.57 872.766 880.124 871.627 880.84 870.676C881.569 869.726 882.448 868.996 883.477 868.489C884.505 867.968 885.664 867.707 886.953 867.707C888.281 867.707 889.44 867.942 890.43 868.41C891.432 868.866 892.279 869.537 892.969 870.422C893.672 871.295 894.225 872.349 894.629 873.586C895.033 874.823 895.312 876.223 895.469 877.785V879.582C895.326 881.132 895.046 882.525 894.629 883.762C894.225 884.999 893.672 886.054 892.969 886.926C892.279 887.798 891.432 888.469 890.43 888.938C889.427 889.394 888.255 889.621 886.914 889.621C885.651 889.621 884.505 889.354 883.477 888.821C882.461 888.287 881.589 887.538 880.859 886.575C880.13 885.611 879.57 884.478 879.18 883.176C878.802 881.861 878.613 880.435 878.613 878.899ZM882.227 878.489V878.899C882.227 879.953 882.331 880.943 882.539 881.867C882.76 882.792 883.092 883.606 883.535 884.309C883.991 885.012 884.57 885.565 885.273 885.969C885.977 886.36 886.816 886.555 887.793 886.555C888.991 886.555 889.98 886.301 890.762 885.793C891.543 885.285 892.161 884.615 892.617 883.782C893.086 882.948 893.451 882.043 893.711 881.067V876.36C893.568 875.644 893.346 874.953 893.047 874.289C892.76 873.612 892.383 873.013 891.914 872.492C891.458 871.959 890.892 871.535 890.215 871.223C889.538 870.91 888.743 870.754 887.832 870.754C886.842 870.754 885.99 870.963 885.273 871.379C884.57 871.783 883.991 872.343 883.535 873.059C883.092 873.762 882.76 874.582 882.539 875.52C882.331 876.444 882.227 877.434 882.227 878.489ZM900.977 878.899V878.45C900.977 876.926 901.198 875.513 901.641 874.211C902.083 872.896 902.721 871.757 903.555 870.793C904.388 869.817 905.397 869.062 906.582 868.528C907.767 867.981 909.095 867.707 910.566 867.707C912.051 867.707 913.385 867.981 914.57 868.528C915.768 869.062 916.784 869.817 917.617 870.793C918.464 871.757 919.108 872.896 919.551 874.211C919.993 875.513 920.215 876.926 920.215 878.45V878.899C920.215 880.422 919.993 881.835 919.551 883.137C919.108 884.439 918.464 885.578 917.617 886.555C916.784 887.519 915.775 888.274 914.59 888.821C913.418 889.354 912.09 889.621 910.605 889.621C909.121 889.621 907.786 889.354 906.602 888.821C905.417 888.274 904.401 887.519 903.555 886.555C902.721 885.578 902.083 884.439 901.641 883.137C901.198 881.835 900.977 880.422 900.977 878.899ZM904.59 878.45V878.899C904.59 879.953 904.714 880.95 904.961 881.887C905.208 882.812 905.579 883.632 906.074 884.348C906.582 885.064 907.214 885.631 907.969 886.047C908.724 886.451 909.603 886.653 910.605 886.653C911.595 886.653 912.461 886.451 913.203 886.047C913.958 885.631 914.583 885.064 915.078 884.348C915.573 883.632 915.944 882.812 916.191 881.887C916.452 880.95 916.582 879.953 916.582 878.899V878.45C916.582 877.408 916.452 876.425 916.191 875.5C915.944 874.563 915.566 873.736 915.059 873.02C914.564 872.291 913.939 871.718 913.184 871.301C912.441 870.884 911.569 870.676 910.566 870.676C909.577 870.676 908.704 870.884 907.949 871.301C907.207 871.718 906.582 872.291 906.074 873.02C905.579 873.736 905.208 874.563 904.961 875.5C904.714 876.425 904.59 877.408 904.59 878.45Z" fill="black"/>
<path d="M328 826.231H1362V824.231H328V826.231ZM1369 833.231V918.231H1371V833.231H1369ZM1362 925.231H328V927.231H1362V925.231ZM321 918.231V833.231H319V918.231H321ZM328 925.231C324.134 925.231 321 922.097 321 918.231H319C319 923.201 323.029 927.231 328 927.231V925.231ZM1369 918.231C1369 922.097 1365.87 925.231 1362 925.231V927.231C1366.97 927.231 1371 923.201 1371 918.231H1369ZM1362 826.231C1365.87 826.231 1369 829.365 1369 833.231H1371C1371 828.26 1366.97 824.231 1362 824.231V826.231ZM328 824.231C323.029 824.231 319 828.26 319 833.231H321C321 829.365 324.134 826.231 328 826.231V824.231Z" fill="black"/>
</svg>
