<svg width="500" height="233" viewBox="0 0 500 233" fill="none" xmlns="http://www.w3.org/2000/svg">
<g clip-path="url(#clip0_10_2)">
<rect width="500" height="233" fill="white"/>
<rect width="1694.2" height="1986" transform="translate(-22 -1692)" fill="white"/>
<path d="M22.7793 84.1575V61.2059H36.6309V63.6714H25.5586V71.4265H35.9137V73.892H25.5586V81.692H36.8102V84.1575H22.7793ZM41.2818 84.1575V66.9438H43.8369V69.6334H44.061C44.4197 68.7145 44.9987 68.001 45.7981 67.4929C46.5975 66.9774 47.5576 66.7197 48.6783 66.7197C49.8139 66.7197 50.759 66.9774 51.5136 67.4929C52.2756 68.001 52.8696 68.7145 53.2955 69.6334H53.4748C53.9156 68.7444 54.5768 68.0383 55.4584 67.5153C56.34 66.9849 57.3972 66.7197 58.6299 66.7197C60.169 66.7197 61.4279 67.2015 62.4066 68.1653C63.3853 69.1217 63.8747 70.6122 63.8747 72.6369V84.1575H61.2299V72.6369C61.2299 71.3668 60.8825 70.459 60.1877 69.9136C59.4928 69.3682 58.6747 69.0955 57.7334 69.0955C56.523 69.0955 55.5854 69.4616 54.9205 70.1938C54.2555 70.9185 53.923 71.8374 53.923 72.9506V84.1575H51.2334V72.3679C51.2334 71.3892 50.9159 70.601 50.2808 70.0033C49.6458 69.3981 48.8277 69.0955 47.8265 69.0955C47.1392 69.0955 46.4967 69.2785 45.899 69.6446C45.3087 70.0107 44.8306 70.5188 44.4645 71.1688C44.1059 71.8113 43.9266 72.5547 43.9266 73.3989V84.1575H41.2818ZM73.7759 84.5609C72.6851 84.5609 71.6952 84.3555 70.8061 83.9445C69.9171 83.5262 69.211 82.9247 68.688 82.1402C68.1651 81.3483 67.9036 80.392 67.9036 79.2713C67.9036 78.2851 68.0978 77.4857 68.4863 76.873C68.8748 76.2529 69.3941 75.7673 70.0441 75.4161C70.6941 75.065 71.4113 74.8035 72.1958 74.6317C72.9877 74.4524 73.7834 74.3104 74.5828 74.2058C75.6288 74.0713 76.4768 73.9705 77.1268 73.9032C77.7842 73.8285 78.2624 73.7052 78.5612 73.5334C78.8676 73.3616 79.0207 73.0627 79.0207 72.6369V72.5472C79.0207 71.4415 78.7181 70.5823 78.113 69.9696C77.5153 69.357 76.6075 69.0507 75.3897 69.0507C74.1271 69.0507 73.1371 69.3271 72.4199 69.88C71.7027 70.4328 71.1984 71.0231 70.907 71.6507L68.3967 70.7541C68.8449 69.7081 69.4426 68.8938 70.1897 68.311C70.9443 67.7208 71.7662 67.3099 72.6553 67.0783C73.5518 66.8392 74.4334 66.7197 75.3001 66.7197C75.8529 66.7197 76.488 66.7869 77.2052 66.9214C77.9299 67.0484 78.6285 67.3136 79.3009 67.7171C79.9808 68.1205 80.5449 68.7294 80.9931 69.5438C81.4414 70.3581 81.6655 71.4489 81.6655 72.8162V84.1575H79.0207V81.8265H78.8862C78.7069 82.2 78.4081 82.5997 77.9897 83.0256C77.5713 83.4514 77.0147 83.8138 76.3199 84.1126C75.6251 84.4115 74.7771 84.5609 73.7759 84.5609ZM74.1794 82.1851C75.2253 82.1851 76.107 81.9796 76.8242 81.5687C77.5489 81.1578 78.0943 80.6273 78.4604 79.9773C78.8339 79.3273 79.0207 78.6437 79.0207 77.9265V75.5058C78.9087 75.6403 78.6621 75.7636 78.2811 75.8756C77.9075 75.9802 77.4742 76.0736 76.9811 76.1558C76.4955 76.2305 76.021 76.2978 75.5578 76.3575C75.1021 76.4098 74.7322 76.4546 74.4483 76.492C73.761 76.5817 73.1185 76.7273 72.5208 76.9291C71.9305 77.1233 71.4524 77.4184 71.0863 77.8144C70.7277 78.2029 70.5484 78.7334 70.5484 79.4058C70.5484 80.3247 70.8883 81.0196 71.5682 81.4902C72.2555 81.9535 73.1259 82.1851 74.1794 82.1851ZM86.4929 84.1575V66.9438H89.1377V84.1575H86.4929ZM87.8377 64.0748C87.3222 64.0748 86.8776 63.8993 86.5041 63.5481C86.138 63.197 85.9549 62.7749 85.9549 62.2818C85.9549 61.7887 86.138 61.3665 86.5041 61.0154C86.8776 60.6642 87.3222 60.4887 87.8377 60.4887C88.3532 60.4887 88.794 60.6642 89.1601 61.0154C89.5337 61.3665 89.7204 61.7887 89.7204 62.2818C89.7204 62.7749 89.5337 63.197 89.1601 63.5481C88.794 63.8993 88.3532 64.0748 87.8377 64.0748ZM96.6266 61.2059V84.1575H93.9818V61.2059H96.6266Z" fill="black"/>
<mask id="path-2-inside-1_10_2" fill="white">
<rect x="121.931" y="34.0001" width="607.134" height="77.7529" rx="1.65432"/>
</mask>
<rect x="121.931" y="34.0001" width="607.134" height="77.7529" rx="1.65432" fill="white" stroke="black" stroke-width="4.96295" mask="url(#path-2-inside-1_10_2)"/>
<path d="M145.855 83.8519H138.773V60.9004H146.169C148.396 60.9004 150.301 61.3598 151.885 62.2788C153.469 63.1903 154.683 64.5015 155.527 66.2124C156.371 67.9158 156.793 69.9555 156.793 72.3313C156.793 74.7221 156.367 76.7804 155.516 78.5063C154.664 80.2247 153.424 81.5471 151.795 82.4735C150.166 83.3924 148.186 83.8519 145.855 83.8519ZM141.552 81.3864H145.676C147.574 81.3864 149.146 81.0203 150.394 80.2882C151.642 79.556 152.572 78.5137 153.185 77.1615C153.797 75.8092 154.104 74.1991 154.104 72.3313C154.104 70.4785 153.801 68.8834 153.196 67.546C152.591 66.2012 151.687 65.1702 150.484 64.4529C149.281 63.7282 147.783 63.3659 145.99 63.3659H141.552V81.3864ZM161.097 83.8519V66.6383H163.741V83.8519H161.097ZM162.442 63.7693C161.926 63.7693 161.481 63.5937 161.108 63.2426C160.742 62.8914 160.559 62.4693 160.559 61.9762C160.559 61.4831 160.742 61.061 161.108 60.7098C161.481 60.3587 161.926 60.1831 162.442 60.1831C162.957 60.1831 163.398 60.3587 163.764 60.7098C164.137 61.061 164.324 61.4831 164.324 61.9762C164.324 62.4693 164.137 62.8914 163.764 63.2426C163.398 63.5937 162.957 63.7693 162.442 63.7693ZM175.534 90.6657C174.256 90.6657 173.158 90.5013 172.239 90.1726C171.32 89.8513 170.554 89.4255 169.942 88.895C169.337 88.372 168.855 87.8117 168.496 87.214L170.603 85.7347C170.842 86.0485 171.145 86.4071 171.511 86.8105C171.877 87.2214 172.377 87.5763 173.012 87.8752C173.655 88.1815 174.495 88.3347 175.534 88.3347C176.924 88.3347 178.07 87.9985 178.974 87.326C179.878 86.6536 180.33 85.6002 180.33 84.1657V80.6692H180.106C179.912 80.983 179.636 81.3715 179.277 81.8347C178.926 82.2904 178.418 82.6976 177.753 83.0562C177.095 83.4074 176.206 83.583 175.086 83.583C173.696 83.583 172.448 83.2542 171.343 82.5968C170.244 81.9393 169.374 80.983 168.731 79.7278C168.096 78.4727 167.779 76.9485 167.779 75.1554C167.779 73.3922 168.089 71.8569 168.709 70.5494C169.329 69.2345 170.192 68.2184 171.298 67.5012C172.403 66.7765 173.681 66.4141 175.13 66.4141C176.251 66.4141 177.14 66.6009 177.798 66.9745C178.463 67.3405 178.971 67.7589 179.322 68.2296C179.68 68.6928 179.957 69.0739 180.151 69.3727H180.42V66.6383H182.975V84.345C182.975 85.8243 182.639 87.0272 181.967 87.9536C181.302 88.8875 180.405 89.5711 179.277 90.0045C178.156 90.4453 176.909 90.6657 175.534 90.6657ZM175.444 81.2071C176.505 81.2071 177.402 80.9643 178.134 80.4787C178.866 79.993 179.423 79.2945 179.804 78.383C180.185 77.4715 180.375 76.3807 180.375 75.1106C180.375 73.8704 180.188 72.7759 179.815 71.827C179.441 70.8782 178.888 70.1348 178.156 69.5969C177.424 69.0589 176.52 68.79 175.444 68.79C174.324 68.79 173.39 69.0739 172.643 69.6417C171.903 70.2095 171.346 70.9716 170.973 71.9279C170.607 72.8842 170.424 73.9451 170.424 75.1106C170.424 76.306 170.61 77.3632 170.984 78.2821C171.365 79.1936 171.925 79.9109 172.665 80.4338C173.412 80.9494 174.338 81.2071 175.444 81.2071ZM187.817 83.8519V66.6383H190.461V83.8519H187.817ZM189.161 63.7693C188.646 63.7693 188.201 63.5937 187.828 63.2426C187.462 62.8914 187.279 62.4693 187.279 61.9762C187.279 61.4831 187.462 61.061 187.828 60.7098C188.201 60.3587 188.646 60.1831 189.161 60.1831C189.677 60.1831 190.118 60.3587 190.484 60.7098C190.857 61.061 191.044 61.4831 191.044 61.9762C191.044 62.4693 190.857 62.8914 190.484 63.2426C190.118 63.5937 189.677 63.7693 189.161 63.7693ZM202.792 66.6383V68.8796H193.871V66.6383H202.792ZM196.471 62.5141H199.116V78.9209C199.116 79.668 199.224 80.2284 199.441 80.602C199.665 80.968 199.949 81.2146 200.293 81.3416C200.644 81.4611 201.014 81.5209 201.402 81.5209C201.693 81.5209 201.932 81.506 202.119 81.4761C202.306 81.4387 202.455 81.4088 202.568 81.3864L203.105 83.7623C202.926 83.8295 202.676 83.8968 202.355 83.964C202.033 84.0387 201.626 84.0761 201.133 84.0761C200.386 84.0761 199.654 83.9154 198.937 83.5942C198.227 83.2729 197.637 82.7835 197.166 82.1261C196.703 81.4686 196.471 80.6393 196.471 79.6382V62.5141ZM213.802 84.2105C212.144 84.2105 210.713 83.8445 209.51 83.1123C208.315 82.3726 207.392 81.3416 206.742 80.0192C206.1 78.6893 205.778 77.1428 205.778 75.3796C205.778 73.6164 206.1 72.0624 206.742 70.7175C207.392 69.3652 208.296 68.3118 209.454 67.5572C210.62 66.7951 211.979 66.4141 213.533 66.4141C214.43 66.4141 215.315 66.5635 216.189 66.8624C217.064 67.1612 217.859 67.6469 218.576 68.3193C219.294 68.9842 219.865 69.8658 220.291 70.9641C220.717 72.0624 220.93 73.4146 220.93 75.021V76.1416H207.661V73.8554H218.24C218.24 72.8842 218.046 72.0175 217.658 71.2555C217.276 70.4934 216.731 69.892 216.021 69.4512C215.319 69.0104 214.49 68.79 213.533 68.79C212.48 68.79 211.568 69.0515 210.799 69.5744C210.037 70.09 209.45 70.7624 209.039 71.5917C208.629 72.421 208.423 73.31 208.423 74.2589V75.783C208.423 77.083 208.647 78.185 209.096 79.089C209.551 79.9856 210.183 80.6692 210.989 81.1399C211.796 81.6031 212.734 81.8347 213.802 81.8347C214.497 81.8347 215.125 81.7376 215.685 81.5433C216.253 81.3416 216.742 81.0428 217.153 80.6468C217.564 80.2433 217.882 79.7428 218.106 79.1451L220.661 79.8623C220.392 80.729 219.94 81.491 219.305 82.1485C218.67 82.7985 217.885 83.3065 216.951 83.6726C216.018 84.0312 214.968 84.2105 213.802 84.2105ZM246.022 70.4934L243.646 71.1658C243.497 70.7698 243.276 70.3851 242.985 70.0115C242.701 69.6305 242.313 69.3167 241.819 69.0701C241.326 68.8236 240.695 68.7003 239.925 68.7003C238.872 68.7003 237.994 68.9431 237.292 69.4287C236.597 69.9069 236.25 70.5158 236.25 71.2555C236.25 71.9129 236.489 72.4322 236.967 72.8132C237.445 73.1942 238.192 73.5118 239.208 73.7658L241.763 74.3934C243.302 74.7669 244.449 75.3385 245.204 76.108C245.958 76.8701 246.336 77.8525 246.336 79.0554C246.336 80.0416 246.052 80.9232 245.484 81.7002C244.924 82.4772 244.139 83.0899 243.131 83.5381C242.122 83.9864 240.949 84.2105 239.612 84.2105C237.856 84.2105 236.403 83.8295 235.252 83.0675C234.102 82.3054 233.373 81.1922 233.067 79.7278L235.577 79.1002C235.816 80.0267 236.268 80.7215 236.933 81.1847C237.606 81.6479 238.484 81.8795 239.567 81.8795C240.8 81.8795 241.778 81.618 242.503 81.0951C243.235 80.5646 243.601 79.9295 243.601 79.1899C243.601 78.5922 243.392 78.0916 242.974 77.6882C242.555 77.2773 241.913 76.9709 241.046 76.7692L238.177 76.0968C236.601 75.7232 235.443 75.1442 234.703 74.3598C233.971 73.5678 233.605 72.5779 233.605 71.3899C233.605 70.4187 233.878 69.5595 234.423 68.8124C234.976 68.0653 235.727 67.4788 236.675 67.0529C237.632 66.627 238.715 66.4141 239.925 66.4141C241.629 66.4141 242.966 66.7877 243.938 67.5348C244.916 68.2819 245.611 69.2681 246.022 70.4934ZM257.534 84.2105C255.876 84.2105 254.445 83.8445 253.242 83.1123C252.047 82.3726 251.124 81.3416 250.474 80.0192C249.831 78.6893 249.51 77.1428 249.51 75.3796C249.51 73.6164 249.831 72.0624 250.474 70.7175C251.124 69.3652 252.028 68.3118 253.186 67.5572C254.351 66.7951 255.711 66.4141 257.265 66.4141C258.162 66.4141 259.047 66.5635 259.921 66.8624C260.795 67.1612 261.591 67.6469 262.308 68.3193C263.026 68.9842 263.597 69.8658 264.023 70.9641C264.449 72.0624 264.662 73.4146 264.662 75.021V76.1416H251.393V73.8554H261.972C261.972 72.8842 261.778 72.0175 261.389 71.2555C261.008 70.4934 260.463 69.892 259.753 69.4512C259.051 69.0104 258.222 68.79 257.265 68.79C256.212 68.79 255.3 69.0515 254.531 69.5744C253.769 70.09 253.182 70.7624 252.771 71.5917C252.36 72.421 252.155 73.31 252.155 74.2589V75.783C252.155 77.083 252.379 78.185 252.827 79.089C253.283 79.9856 253.914 80.6692 254.721 81.1399C255.528 81.6031 256.466 81.8347 257.534 81.8347C258.229 81.8347 258.857 81.7376 259.417 81.5433C259.985 81.3416 260.474 81.0428 260.885 80.6468C261.296 80.2433 261.613 79.7428 261.838 79.1451L264.393 79.8623C264.124 80.729 263.672 81.491 263.037 82.1485C262.402 82.7985 261.617 83.3065 260.683 83.6726C259.749 84.0312 258.7 84.2105 257.534 84.2105ZM279.533 76.814V66.6383H282.178V83.8519H279.533V80.9382H279.354C278.95 81.8123 278.323 82.5557 277.471 83.1683C276.619 83.7735 275.544 84.0761 274.244 84.0761C273.168 84.0761 272.211 83.8407 271.375 83.37C270.538 82.8919 269.88 82.1746 269.402 81.2183C268.924 80.2545 268.685 79.0405 268.685 77.5761V66.6383H271.33V77.3968C271.33 78.652 271.681 79.6531 272.383 80.4002C273.093 81.1473 273.997 81.5209 275.095 81.5209C275.753 81.5209 276.421 81.3528 277.101 81.0166C277.789 80.6804 278.364 80.1649 278.827 79.4701C279.298 78.7752 279.533 77.8899 279.533 76.814ZM303.115 84.2105C301.457 84.2105 300.026 83.8445 298.823 83.1123C297.628 82.3726 296.705 81.3416 296.055 80.0192C295.412 78.6893 295.091 77.1428 295.091 75.3796C295.091 73.6164 295.412 72.0624 296.055 70.7175C296.705 69.3652 297.609 68.3118 298.767 67.5572C299.932 66.7951 301.292 66.4141 302.846 66.4141C303.743 66.4141 304.628 66.5635 305.502 66.8624C306.376 67.1612 307.172 67.6469 307.889 68.3193C308.606 68.9842 309.178 69.8658 309.604 70.9641C310.03 72.0624 310.243 73.4146 310.243 75.021V76.1416H296.974V73.8554H307.553C307.553 72.8842 307.359 72.0175 306.97 71.2555C306.589 70.4934 306.044 69.892 305.334 69.4512C304.632 69.0104 303.802 68.79 302.846 68.79C301.793 68.79 300.881 69.0515 300.112 69.5744C299.35 70.09 298.763 70.7624 298.352 71.5917C297.941 72.421 297.736 73.31 297.736 74.2589V75.783C297.736 77.083 297.96 78.185 298.408 79.089C298.864 79.9856 299.495 80.6692 300.302 81.1399C301.109 81.6031 302.047 81.8347 303.115 81.8347C303.81 81.8347 304.438 81.7376 304.998 81.5433C305.566 81.3416 306.055 81.0428 306.466 80.6468C306.877 80.2433 307.194 79.7428 307.419 79.1451L309.974 79.8623C309.705 80.729 309.253 81.491 308.618 82.1485C307.983 82.7985 307.198 83.3065 306.264 83.6726C305.33 84.0312 304.281 84.2105 303.115 84.2105ZM314.266 83.8519V66.6383H316.821V69.3279H317.045C317.404 68.4089 317.983 67.6954 318.782 67.1874C319.582 66.6719 320.542 66.4141 321.662 66.4141C322.798 66.4141 323.743 66.6719 324.498 67.1874C325.26 67.6954 325.854 68.4089 326.28 69.3279H326.459C326.9 68.4388 327.561 67.7328 328.443 67.2098C329.324 66.6793 330.381 66.4141 331.614 66.4141C333.153 66.4141 334.412 66.896 335.391 67.8598C336.37 68.8161 336.859 70.3066 336.859 72.3313V83.8519H334.214V72.3313C334.214 71.0612 333.867 70.1535 333.172 69.6081C332.477 69.0627 331.659 68.79 330.718 68.79C329.507 68.79 328.57 69.156 327.905 69.8882C327.24 70.6129 326.907 71.5319 326.907 72.6451V83.8519H324.218V72.0624C324.218 71.0836 323.9 70.2954 323.265 69.6977C322.63 69.0925 321.812 68.79 320.811 68.79C320.123 68.79 319.481 68.973 318.883 69.3391C318.293 69.7052 317.815 70.2132 317.449 70.8632C317.09 71.5057 316.911 72.2491 316.911 73.0934V83.8519H314.266ZM346.76 84.2554C345.669 84.2554 344.679 84.0499 343.79 83.639C342.901 83.2206 342.195 82.6192 341.672 81.8347C341.149 81.0428 340.888 80.0864 340.888 78.9658C340.888 77.9796 341.082 77.1801 341.47 76.5675C341.859 75.9474 342.378 75.4618 343.028 75.1106C343.678 74.7595 344.395 74.498 345.18 74.3261C345.972 74.1468 346.768 74.0049 347.567 73.9003C348.613 73.7658 349.461 73.6649 350.111 73.5977C350.768 73.523 351.247 73.3997 351.545 73.2279C351.852 73.056 352.005 72.7572 352.005 72.3313V72.2417C352.005 71.1359 351.702 70.2767 351.097 69.6641C350.499 69.0515 349.592 68.7451 348.374 68.7451C347.111 68.7451 346.121 69.0216 345.404 69.5744C344.687 70.1273 344.183 70.7175 343.891 71.3451L341.381 70.4486C341.829 69.4026 342.427 68.5882 343.174 68.0055C343.929 67.4153 344.75 67.0043 345.639 66.7727C346.536 66.5337 347.418 66.4141 348.284 66.4141C348.837 66.4141 349.472 66.4814 350.189 66.6158C350.914 66.7428 351.613 67.0081 352.285 67.4115C352.965 67.815 353.529 68.4239 353.977 69.2382C354.426 70.0526 354.65 71.1434 354.65 72.5106V83.8519H352.005V81.5209H351.87C351.691 81.8945 351.392 82.2942 350.974 82.72C350.555 83.1459 349.999 83.5083 349.304 83.8071C348.609 84.106 347.761 84.2554 346.76 84.2554ZM347.164 81.8795C348.21 81.8795 349.091 81.6741 349.808 81.2632C350.533 80.8522 351.078 80.3218 351.445 79.6718C351.818 79.0218 352.005 78.3382 352.005 77.6209V75.2003C351.893 75.3347 351.646 75.458 351.265 75.5701C350.892 75.6747 350.458 75.7681 349.965 75.8503C349.48 75.925 349.005 75.9922 348.542 76.052C348.086 76.1043 347.716 76.1491 347.433 76.1865C346.745 76.2761 346.103 76.4218 345.505 76.6235C344.915 76.8178 344.437 77.1129 344.07 77.5089C343.712 77.8974 343.533 78.4278 343.533 79.1002C343.533 80.0192 343.872 80.714 344.552 81.1847C345.24 81.6479 346.11 81.8795 347.164 81.8795ZM359.477 83.8519V66.6383H362.122V83.8519H359.477ZM360.822 63.7693C360.306 63.7693 359.862 63.5937 359.488 63.2426C359.122 62.8914 358.939 62.4693 358.939 61.9762C358.939 61.4831 359.122 61.061 359.488 60.7098C359.862 60.3587 360.306 60.1831 360.822 60.1831C361.337 60.1831 361.778 60.3587 362.144 60.7098C362.518 61.061 362.705 61.4831 362.705 61.9762C362.705 62.4693 362.518 62.8914 362.144 63.2426C361.778 63.5937 361.337 63.7693 360.822 63.7693ZM369.611 60.9004V83.8519H366.966V60.9004H369.611ZM388.396 84.2554C387.305 84.2554 386.316 84.0499 385.426 83.639C384.537 83.2206 383.831 82.6192 383.308 81.8347C382.785 81.0428 382.524 80.0864 382.524 78.9658C382.524 77.9796 382.718 77.1801 383.107 76.5675C383.495 75.9474 384.014 75.4618 384.664 75.1106C385.314 74.7595 386.032 74.498 386.816 74.3261C387.608 74.1468 388.404 74.0049 389.203 73.9003C390.249 73.7658 391.097 73.6649 391.747 73.5977C392.405 73.523 392.883 73.3997 393.182 73.2279C393.488 73.056 393.641 72.7572 393.641 72.3313V72.2417C393.641 71.1359 393.338 70.2767 392.733 69.6641C392.136 69.0515 391.228 68.7451 390.01 68.7451C388.747 68.7451 387.757 69.0216 387.04 69.5744C386.323 70.1273 385.819 70.7175 385.527 71.3451L383.017 70.4486C383.465 69.4026 384.063 68.5882 384.81 68.0055C385.565 67.4153 386.386 67.0043 387.276 66.7727C388.172 66.5337 389.054 66.4141 389.92 66.4141C390.473 66.4141 391.108 66.4814 391.826 66.6158C392.55 66.7428 393.249 67.0081 393.921 67.4115C394.601 67.815 395.165 68.4239 395.613 69.2382C396.062 70.0526 396.286 71.1434 396.286 72.5106V83.8519H393.641V81.5209H393.507C393.327 81.8945 393.028 82.2942 392.61 82.72C392.192 83.1459 391.635 83.5083 390.94 83.8071C390.245 84.106 389.397 84.2554 388.396 84.2554ZM388.8 81.8795C389.846 81.8795 390.727 81.6741 391.444 81.2632C392.169 80.8522 392.715 80.3218 393.081 79.6718C393.454 79.0218 393.641 78.3382 393.641 77.6209V75.2003C393.529 75.3347 393.282 75.458 392.901 75.5701C392.528 75.6747 392.094 75.7681 391.601 75.8503C391.116 75.925 390.641 75.9922 390.178 76.052C389.722 76.1043 389.353 76.1491 389.069 76.1865C388.381 76.2761 387.739 76.4218 387.141 76.6235C386.551 76.8178 386.073 77.1129 385.707 77.5089C385.348 77.8974 385.169 78.4278 385.169 79.1002C385.169 80.0192 385.509 80.714 386.188 81.1847C386.876 81.6479 387.746 81.8795 388.8 81.8795ZM412.858 90.3071V81.2071H412.634C412.44 81.5209 412.163 81.9169 411.804 82.395C411.446 82.8657 410.934 83.2879 410.269 83.6614C409.604 84.0275 408.719 84.2105 407.613 84.2105C406.179 84.2105 404.912 83.8482 403.814 83.1235C402.716 82.3913 401.857 81.3603 401.236 80.0304C400.616 78.6931 400.306 77.1129 400.306 75.2899C400.306 73.4819 400.616 71.9129 401.236 70.5831C401.857 69.2532 402.719 68.2259 403.825 67.5012C404.931 66.7765 406.209 66.4141 407.658 66.4141C408.779 66.4141 409.664 66.6009 410.314 66.9745C410.971 67.3405 411.472 67.7589 411.816 68.2296C412.167 68.6928 412.44 69.0739 412.634 69.3727H412.948V66.6383H415.503V90.3071H412.858ZM407.972 81.8347C409.033 81.8347 409.929 81.5583 410.661 81.0054C411.394 80.4451 411.95 79.6718 412.331 78.6856C412.712 77.6919 412.903 76.5451 412.903 75.2451C412.903 73.96 412.716 72.8356 412.342 71.8718C411.969 70.9006 411.416 70.146 410.684 69.6081C409.952 69.0627 409.048 68.79 407.972 68.79C406.851 68.79 405.917 69.0776 405.17 69.6529C404.43 70.2207 403.874 70.994 403.5 71.9727C403.134 72.944 402.951 74.0348 402.951 75.2451C402.951 76.4704 403.138 77.5836 403.511 78.5847C403.892 79.5784 404.453 80.3703 405.192 80.9606C405.94 81.5433 406.866 81.8347 407.972 81.8347ZM431.192 76.814V66.6383H433.837V83.8519H431.192V80.9382H431.013C430.61 81.8123 429.982 82.5557 429.13 83.1683C428.279 83.7735 427.203 84.0761 425.903 84.0761C424.827 84.0761 423.87 83.8407 423.034 83.37C422.197 82.8919 421.539 82.1746 421.061 81.2183C420.583 80.2545 420.344 79.0405 420.344 77.5761V66.6383H422.989V77.3968C422.989 78.652 423.34 79.6531 424.042 80.4002C424.752 81.1473 425.656 81.5209 426.754 81.5209C427.412 81.5209 428.081 81.3528 428.76 81.0166C429.448 80.6804 430.023 80.1649 430.486 79.4701C430.957 78.7752 431.192 77.8899 431.192 76.814ZM438.681 83.8519V66.6383H441.326V83.8519H438.681ZM440.026 63.7693C439.511 63.7693 439.066 63.5937 438.692 63.2426C438.326 62.8914 438.143 62.4693 438.143 61.9762C438.143 61.4831 438.326 61.061 438.692 60.7098C439.066 60.3587 439.511 60.1831 440.026 60.1831C440.542 60.1831 440.982 60.3587 441.348 60.7098C441.722 61.061 441.909 61.4831 441.909 61.9762C441.909 62.4693 441.722 62.8914 441.348 63.2426C440.982 63.5937 440.542 63.7693 440.026 63.7693Z" fill="black" fill-opacity="0.5"/>
<g filter="url(#filter0_b_10_2)">
<rect width="500" height="233" fill="black" fill-opacity="0.3"/>
</g>
<g filter="url(#filter1_d_10_2)">
<path d="M142.496 123.584L152.329 112.139L160.758 123.303C161.84 124.737 163.533 125.58 165.33 125.58H435.587C438.751 125.58 441.316 128.145 441.316 131.309V194.271C441.316 197.435 438.751 200 435.587 200H127.66C124.496 200 121.931 197.435 121.931 194.271V131.309C121.931 128.145 124.496 125.58 127.66 125.58H138.151C139.821 125.58 141.408 124.851 142.496 123.584Z" fill="white"/>
</g>
<rect x="139.118" y="145.184" width="43.6827" height="40.1021" rx="2.86444" fill="#FFA300"/>
<rect x="157.737" y="152.345" width="7.1611" height="15.7544" rx="2.86444" fill="white"/>
<circle cx="161.317" cy="174.545" r="3.58055" fill="white"/>
<path d="M199.015 173.345V157.721H204.294C205.52 157.721 206.522 157.942 207.3 158.385C208.083 158.822 208.663 159.415 209.039 160.162C209.416 160.91 209.604 161.744 209.604 162.665C209.604 163.585 209.416 164.422 209.039 165.175C208.668 165.927 208.093 166.528 207.315 166.975C206.537 167.418 205.54 167.639 204.325 167.639H200.541V165.96H204.264C205.103 165.96 205.777 165.816 206.285 165.526C206.794 165.236 207.163 164.844 207.392 164.351C207.626 163.852 207.743 163.29 207.743 162.665C207.743 162.039 207.626 161.48 207.392 160.986C207.163 160.493 206.791 160.106 206.278 159.827C205.764 159.542 205.083 159.4 204.233 159.4H200.907V173.345H199.015ZM212.408 173.345V161.627H214.147V163.397H214.269C214.483 162.817 214.869 162.347 215.429 161.986C215.988 161.625 216.619 161.444 217.321 161.444C217.453 161.444 217.618 161.447 217.817 161.452C218.015 161.457 218.165 161.464 218.267 161.475V163.306C218.206 163.29 218.066 163.267 217.847 163.237C217.634 163.201 217.407 163.183 217.168 163.183C216.599 163.183 216.09 163.303 215.642 163.542C215.2 163.776 214.849 164.102 214.59 164.519C214.335 164.931 214.208 165.401 214.208 165.93V173.345H212.408ZM224.957 173.589C223.828 173.589 222.854 173.34 222.035 172.842C221.222 172.338 220.594 171.636 220.151 170.736C219.714 169.831 219.495 168.778 219.495 167.578C219.495 166.378 219.714 165.32 220.151 164.404C220.594 163.484 221.209 162.766 221.997 162.253C222.791 161.734 223.716 161.475 224.774 161.475C225.385 161.475 225.987 161.576 226.582 161.78C227.177 161.983 227.719 162.314 228.207 162.772C228.696 163.224 229.085 163.824 229.375 164.572C229.664 165.32 229.809 166.24 229.809 167.334V168.097H220.777V166.54H227.978C227.978 165.879 227.846 165.289 227.582 164.77C227.322 164.252 226.951 163.842 226.468 163.542C225.99 163.242 225.425 163.092 224.774 163.092C224.057 163.092 223.437 163.27 222.913 163.626C222.394 163.977 221.995 164.435 221.715 164.999C221.435 165.564 221.295 166.169 221.295 166.815V167.852C221.295 168.737 221.448 169.488 221.753 170.103C222.063 170.713 222.493 171.179 223.042 171.499C223.592 171.814 224.23 171.972 224.957 171.972C225.43 171.972 225.858 171.906 226.239 171.774C226.626 171.636 226.959 171.433 227.238 171.163C227.518 170.889 227.734 170.548 227.887 170.141L229.626 170.629C229.443 171.219 229.136 171.738 228.703 172.186C228.271 172.628 227.737 172.974 227.101 173.223C226.465 173.467 225.751 173.589 224.957 173.589ZM237.461 173.589C236.332 173.589 235.358 173.34 234.539 172.842C233.726 172.338 233.098 171.636 232.655 170.736C232.218 169.831 231.999 168.778 231.999 167.578C231.999 166.378 232.218 165.32 232.655 164.404C233.098 163.484 233.713 162.766 234.501 162.253C235.295 161.734 236.22 161.475 237.278 161.475C237.889 161.475 238.491 161.576 239.086 161.78C239.681 161.983 240.223 162.314 240.711 162.772C241.2 163.224 241.589 163.824 241.879 164.572C242.168 165.32 242.313 166.24 242.313 167.334V168.097H233.281V166.54H240.482C240.482 165.879 240.35 165.289 240.086 164.77C239.826 164.252 239.455 163.842 238.972 163.542C238.494 163.242 237.929 163.092 237.278 163.092C236.561 163.092 235.941 163.27 235.417 163.626C234.898 163.977 234.499 164.435 234.219 164.999C233.939 165.564 233.799 166.169 233.799 166.815V167.852C233.799 168.737 233.952 169.488 234.257 170.103C234.567 170.713 234.997 171.179 235.546 171.499C236.096 171.814 236.734 171.972 237.461 171.972C237.934 171.972 238.362 171.906 238.743 171.774C239.13 171.636 239.463 171.433 239.742 171.163C240.022 170.889 240.238 170.548 240.391 170.141L242.13 170.629C241.947 171.219 241.639 171.738 241.207 172.186C240.775 172.628 240.241 172.974 239.605 173.223C238.969 173.467 238.255 173.589 237.461 173.589ZM246.853 166.296V173.345H245.052V161.627H246.792V163.458H246.944C247.219 162.863 247.636 162.385 248.195 162.024C248.755 161.658 249.477 161.475 250.362 161.475C251.155 161.475 251.85 161.637 252.445 161.963C253.04 162.283 253.503 162.772 253.833 163.428C254.164 164.079 254.329 164.903 254.329 165.899V173.345H252.529V166.021C252.529 165.101 252.29 164.384 251.811 163.87C251.333 163.351 250.677 163.092 249.843 163.092C249.268 163.092 248.755 163.217 248.302 163.466C247.855 163.715 247.501 164.079 247.242 164.557C246.982 165.035 246.853 165.615 246.853 166.296ZM262.38 173.589C261.281 173.589 260.335 173.33 259.542 172.811C258.748 172.293 258.138 171.578 257.711 170.668C257.283 169.757 257.07 168.717 257.07 167.547C257.07 166.357 257.288 165.307 257.726 164.397C258.168 163.481 258.784 162.766 259.572 162.253C260.366 161.734 261.291 161.475 262.349 161.475C263.173 161.475 263.916 161.627 264.577 161.932C265.238 162.237 265.78 162.665 266.202 163.214C266.624 163.763 266.886 164.404 266.987 165.137H265.187C265.05 164.602 264.745 164.129 264.272 163.718C263.804 163.3 263.173 163.092 262.38 163.092C261.678 163.092 261.062 163.275 260.533 163.641C260.009 164.002 259.6 164.513 259.305 165.175C259.015 165.831 258.87 166.601 258.87 167.486C258.87 168.392 259.013 169.18 259.297 169.851C259.587 170.523 259.994 171.044 260.518 171.415C261.047 171.786 261.668 171.972 262.38 171.972C262.847 171.972 263.272 171.891 263.654 171.728C264.035 171.565 264.358 171.331 264.622 171.026C264.887 170.721 265.075 170.355 265.187 169.928H266.987C266.886 170.619 266.634 171.242 266.232 171.797C265.836 172.346 265.309 172.783 264.653 173.109C264.002 173.429 263.244 173.589 262.38 173.589ZM271.42 166.296V173.345H269.619V157.721H271.42V163.458H271.573C271.847 162.853 272.259 162.372 272.808 162.016C273.363 161.655 274.1 161.475 275.021 161.475C275.819 161.475 276.519 161.635 277.119 161.955C277.719 162.271 278.184 162.756 278.515 163.412C278.851 164.063 279.018 164.892 279.018 165.899V173.345H277.218V166.021C277.218 165.091 276.976 164.371 276.493 163.862C276.015 163.349 275.351 163.092 274.502 163.092C273.912 163.092 273.383 163.217 272.915 163.466C272.452 163.715 272.086 164.079 271.817 164.557C271.552 165.035 271.42 165.615 271.42 166.296ZM285.761 173.62C285.018 173.62 284.344 173.48 283.739 173.2C283.134 172.916 282.653 172.506 282.297 171.972C281.941 171.433 281.763 170.782 281.763 170.019C281.763 169.348 281.895 168.804 282.16 168.386C282.424 167.964 282.778 167.634 283.22 167.395C283.663 167.156 284.151 166.978 284.685 166.861C285.224 166.739 285.766 166.642 286.31 166.571C287.022 166.479 287.599 166.411 288.042 166.365C288.489 166.314 288.815 166.23 289.018 166.113C289.227 165.996 289.331 165.793 289.331 165.503V165.442C289.331 164.689 289.125 164.104 288.713 163.687C288.306 163.27 287.688 163.061 286.859 163.061C286 163.061 285.326 163.25 284.837 163.626C284.349 164.002 284.006 164.404 283.808 164.831L282.099 164.221C282.404 163.509 282.811 162.955 283.319 162.558C283.833 162.156 284.392 161.876 284.998 161.719C285.608 161.556 286.208 161.475 286.798 161.475C287.174 161.475 287.607 161.52 288.095 161.612C288.588 161.698 289.064 161.879 289.522 162.154C289.984 162.428 290.368 162.843 290.674 163.397C290.979 163.951 291.131 164.694 291.131 165.625V173.345H289.331V171.759H289.239C289.117 172.013 288.914 172.285 288.629 172.575C288.344 172.865 287.965 173.111 287.492 173.315C287.019 173.518 286.442 173.62 285.761 173.62ZM286.035 172.003C286.747 172.003 287.347 171.863 287.836 171.583C288.329 171.303 288.7 170.942 288.949 170.5C289.204 170.057 289.331 169.592 289.331 169.104V167.456C289.255 167.547 289.087 167.631 288.827 167.707C288.573 167.779 288.278 167.842 287.942 167.898C287.612 167.949 287.289 167.995 286.974 168.036C286.663 168.071 286.412 168.102 286.218 168.127C285.75 168.188 285.313 168.287 284.906 168.425C284.504 168.557 284.179 168.758 283.93 169.027C283.685 169.292 283.563 169.653 283.563 170.111C283.563 170.736 283.795 171.209 284.258 171.53C284.726 171.845 285.318 172.003 286.035 172.003ZM305.373 173.589C304.244 173.589 303.27 173.34 302.451 172.842C301.637 172.338 301.009 171.636 300.567 170.736C300.129 169.831 299.91 168.778 299.91 167.578C299.91 166.378 300.129 165.32 300.567 164.404C301.009 163.484 301.624 162.766 302.413 162.253C303.206 161.734 304.132 161.475 305.19 161.475C305.8 161.475 306.403 161.576 306.998 161.78C307.593 161.983 308.135 162.314 308.623 162.772C309.111 163.224 309.5 163.824 309.79 164.572C310.08 165.32 310.225 166.24 310.225 167.334V168.097H301.192V166.54H308.394C308.394 165.879 308.262 165.289 307.997 164.77C307.738 164.252 307.367 163.842 306.883 163.542C306.405 163.242 305.841 163.092 305.19 163.092C304.473 163.092 303.852 163.27 303.328 163.626C302.809 163.977 302.41 164.435 302.131 164.999C301.851 165.564 301.711 166.169 301.711 166.815V167.852C301.711 168.737 301.864 169.488 302.169 170.103C302.479 170.713 302.909 171.179 303.458 171.499C304.007 171.814 304.646 171.972 305.373 171.972C305.846 171.972 306.273 171.906 306.655 171.774C307.041 171.636 307.374 171.433 307.654 171.163C307.934 170.889 308.15 170.548 308.302 170.141L310.042 170.629C309.859 171.219 309.551 171.738 309.119 172.186C308.686 172.628 308.152 172.974 307.517 173.223C306.881 173.467 306.166 173.589 305.373 173.589ZM321.264 164.252L319.647 164.709C319.545 164.44 319.395 164.178 319.197 163.924C319.003 163.664 318.739 163.451 318.403 163.283C318.068 163.115 317.638 163.031 317.114 163.031C316.397 163.031 315.799 163.196 315.321 163.527C314.848 163.852 314.612 164.267 314.612 164.77C314.612 165.218 314.774 165.571 315.1 165.831C315.425 166.09 315.934 166.306 316.626 166.479L318.365 166.906C319.413 167.161 320.193 167.55 320.707 168.074C321.221 168.592 321.478 169.261 321.478 170.08C321.478 170.751 321.284 171.352 320.898 171.881C320.516 172.41 319.982 172.827 319.296 173.132C318.609 173.437 317.811 173.589 316.9 173.589C315.705 173.589 314.716 173.33 313.933 172.811C313.149 172.293 312.653 171.535 312.445 170.538L314.154 170.111C314.317 170.741 314.624 171.214 315.077 171.53C315.535 171.845 316.132 172.003 316.87 172.003C317.709 172.003 318.375 171.825 318.869 171.469C319.367 171.107 319.616 170.675 319.616 170.172C319.616 169.765 319.474 169.424 319.189 169.149C318.904 168.87 318.467 168.661 317.877 168.524L315.924 168.066C314.851 167.812 314.062 167.418 313.559 166.884C313.06 166.344 312.811 165.671 312.811 164.862C312.811 164.201 312.997 163.616 313.368 163.107C313.744 162.599 314.256 162.199 314.901 161.909C315.552 161.62 316.29 161.475 317.114 161.475C318.273 161.475 319.184 161.729 319.845 162.237C320.511 162.746 320.984 163.417 321.264 164.252ZM329.284 161.627V163.153H323.211V161.627H329.284ZM324.981 158.82H326.782V169.989C326.782 170.497 326.856 170.879 327.003 171.133C327.156 171.382 327.349 171.55 327.583 171.636C327.822 171.718 328.074 171.759 328.338 171.759C328.536 171.759 328.699 171.748 328.826 171.728C328.953 171.703 329.055 171.682 329.131 171.667L329.498 173.284C329.376 173.33 329.205 173.376 328.987 173.422C328.768 173.472 328.491 173.498 328.155 173.498C327.646 173.498 327.148 173.389 326.66 173.17C326.177 172.951 325.775 172.618 325.454 172.17C325.139 171.723 324.981 171.158 324.981 170.477V158.82ZM336.78 173.589C335.65 173.589 334.676 173.34 333.858 172.842C333.044 172.338 332.416 171.636 331.973 170.736C331.536 169.831 331.317 168.778 331.317 167.578C331.317 166.378 331.536 165.32 331.973 164.404C332.416 163.484 333.031 162.766 333.82 162.253C334.613 161.734 335.539 161.475 336.596 161.475C337.207 161.475 337.809 161.576 338.405 161.78C339 161.983 339.541 162.314 340.03 162.772C340.518 163.224 340.907 163.824 341.197 164.572C341.487 165.32 341.632 166.24 341.632 167.334V168.097H332.599V166.54H339.801C339.801 165.879 339.668 165.289 339.404 164.77C339.145 164.252 338.773 163.842 338.29 163.542C337.812 163.242 337.247 163.092 336.596 163.092C335.879 163.092 335.259 163.27 334.735 163.626C334.216 163.977 333.817 164.435 333.537 164.999C333.258 165.564 333.118 166.169 333.118 166.815V167.852C333.118 168.737 333.27 169.488 333.575 170.103C333.886 170.713 334.315 171.179 334.865 171.499C335.414 171.814 336.052 171.972 336.78 171.972C337.253 171.972 337.68 171.906 338.061 171.774C338.448 171.636 338.781 171.433 339.061 171.163C339.34 170.889 339.557 170.548 339.709 170.141L341.449 170.629C341.265 171.219 340.958 171.738 340.525 172.186C340.093 172.628 339.559 172.974 338.923 173.223C338.288 173.467 337.573 173.589 336.78 173.589ZM355.173 173.589C354.075 173.589 353.129 173.33 352.335 172.811C351.542 172.293 350.931 171.578 350.504 170.668C350.077 169.757 349.863 168.717 349.863 167.547C349.863 166.357 350.082 165.307 350.519 164.397C350.962 163.481 351.577 162.766 352.366 162.253C353.159 161.734 354.085 161.475 355.143 161.475C355.967 161.475 356.709 161.627 357.37 161.932C358.031 162.237 358.573 162.665 358.995 163.214C359.417 163.763 359.679 164.404 359.781 165.137H357.981C357.843 164.602 357.538 164.129 357.065 163.718C356.597 163.3 355.967 163.092 355.173 163.092C354.471 163.092 353.856 163.275 353.327 163.641C352.803 164.002 352.394 164.513 352.099 165.175C351.809 165.831 351.664 166.601 351.664 167.486C351.664 168.392 351.806 169.18 352.091 169.851C352.381 170.523 352.788 171.044 353.312 171.415C353.841 171.786 354.461 171.972 355.173 171.972C355.641 171.972 356.066 171.891 356.447 171.728C356.829 171.565 357.152 171.331 357.416 171.026C357.681 170.721 357.869 170.355 357.981 169.928H359.781C359.679 170.619 359.428 171.242 359.026 171.797C358.629 172.346 358.103 172.783 357.447 173.109C356.796 173.429 356.038 173.589 355.173 173.589ZM365.861 173.62C365.119 173.62 364.445 173.48 363.84 173.2C363.234 172.916 362.754 172.506 362.398 171.972C362.042 171.433 361.864 170.782 361.864 170.019C361.864 169.348 361.996 168.804 362.26 168.386C362.525 167.964 362.878 167.634 363.321 167.395C363.763 167.156 364.252 166.978 364.786 166.861C365.325 166.739 365.866 166.642 366.411 166.571C367.123 166.479 367.7 166.411 368.142 166.365C368.59 166.314 368.915 166.23 369.119 166.113C369.327 165.996 369.432 165.793 369.432 165.503V165.442C369.432 164.689 369.226 164.104 368.814 163.687C368.407 163.27 367.789 163.061 366.96 163.061C366.1 163.061 365.426 163.25 364.938 163.626C364.45 164.002 364.107 164.404 363.908 164.831L362.199 164.221C362.505 163.509 362.911 162.955 363.42 162.558C363.934 162.156 364.493 161.876 365.098 161.719C365.709 161.556 366.309 161.475 366.899 161.475C367.275 161.475 367.708 161.52 368.196 161.612C368.689 161.698 369.165 161.879 369.622 162.154C370.085 162.428 370.469 162.843 370.774 163.397C371.08 163.951 371.232 164.694 371.232 165.625V173.345H369.432V171.759H369.34C369.218 172.013 369.015 172.285 368.73 172.575C368.445 172.865 368.066 173.111 367.593 173.315C367.12 173.518 366.543 173.62 365.861 173.62ZM366.136 172.003C366.848 172.003 367.448 171.863 367.936 171.583C368.43 171.303 368.801 170.942 369.05 170.5C369.305 170.057 369.432 169.592 369.432 169.104V167.456C369.355 167.547 369.188 167.631 368.928 167.707C368.674 167.779 368.379 167.842 368.043 167.898C367.713 167.949 367.39 167.995 367.074 168.036C366.764 168.071 366.512 168.102 366.319 168.127C365.851 168.188 365.414 168.287 365.007 168.425C364.605 168.557 364.28 168.758 364.03 169.027C363.786 169.292 363.664 169.653 363.664 170.111C363.664 170.736 363.896 171.209 364.358 171.53C364.826 171.845 365.419 172.003 366.136 172.003ZM374.518 173.345V161.627H376.258V163.458H376.41C376.654 162.833 377.049 162.347 377.593 162.001C378.137 161.65 378.791 161.475 379.554 161.475C380.327 161.475 380.97 161.65 381.484 162.001C382.002 162.347 382.407 162.833 382.697 163.458H382.819C383.119 162.853 383.569 162.372 384.169 162.016C384.769 161.655 385.489 161.475 386.328 161.475C387.376 161.475 388.233 161.803 388.899 162.459C389.565 163.11 389.898 164.124 389.898 165.503V173.345H388.098V165.503C388.098 164.638 387.862 164.02 387.389 163.649C386.916 163.278 386.359 163.092 385.718 163.092C384.894 163.092 384.256 163.341 383.803 163.84C383.35 164.333 383.124 164.959 383.124 165.716V173.345H381.293V165.32C381.293 164.653 381.077 164.117 380.644 163.71C380.212 163.298 379.655 163.092 378.974 163.092C378.506 163.092 378.068 163.217 377.662 163.466C377.26 163.715 376.934 164.061 376.685 164.503C376.441 164.941 376.319 165.447 376.319 166.021V173.345H374.518ZM393.19 177.74V161.627H394.93V163.489H395.143C395.276 163.285 395.459 163.026 395.693 162.71C395.932 162.39 396.272 162.105 396.715 161.856C397.163 161.602 397.768 161.475 398.531 161.475C399.517 161.475 400.387 161.721 401.14 162.215C401.893 162.708 402.48 163.407 402.902 164.313C403.324 165.218 403.535 166.286 403.535 167.517C403.535 168.758 403.324 169.833 402.902 170.744C402.48 171.649 401.895 172.351 401.147 172.849C400.4 173.343 399.538 173.589 398.561 173.589C397.808 173.589 397.206 173.465 396.753 173.216C396.3 172.961 395.952 172.674 395.708 172.354C395.464 172.028 395.276 171.759 395.143 171.545H394.991V177.74H393.19ZM394.96 167.486C394.96 168.371 395.09 169.152 395.349 169.828C395.609 170.5 395.988 171.026 396.486 171.408C396.985 171.784 397.595 171.972 398.317 171.972C399.07 171.972 399.698 171.774 400.201 171.377C400.71 170.975 401.091 170.436 401.346 169.76C401.605 169.078 401.735 168.32 401.735 167.486C401.735 166.662 401.608 165.92 401.353 165.259C401.104 164.592 400.725 164.066 400.217 163.679C399.713 163.288 399.08 163.092 398.317 163.092C397.585 163.092 396.969 163.278 396.471 163.649C395.972 164.015 395.596 164.529 395.342 165.19C395.087 165.846 394.96 166.611 394.96 167.486ZM411.042 173.589C409.984 173.589 409.056 173.338 408.258 172.834C407.464 172.331 406.844 171.626 406.396 170.721C405.954 169.816 405.732 168.758 405.732 167.547C405.732 166.327 405.954 165.261 406.396 164.351C406.844 163.44 407.464 162.733 408.258 162.23C409.056 161.726 409.984 161.475 411.042 161.475C412.1 161.475 413.026 161.726 413.819 162.23C414.618 162.733 415.238 163.44 415.681 164.351C416.128 165.261 416.352 166.327 416.352 167.547C416.352 168.758 416.128 169.816 415.681 170.721C415.238 171.626 414.618 172.331 413.819 172.834C413.026 173.338 412.1 173.589 411.042 173.589ZM411.042 171.972C411.846 171.972 412.507 171.766 413.026 171.354C413.545 170.942 413.929 170.401 414.178 169.729C414.427 169.058 414.552 168.331 414.552 167.547C414.552 166.764 414.427 166.034 414.178 165.358C413.929 164.681 413.545 164.135 413.026 163.718C412.507 163.3 411.846 163.092 411.042 163.092C410.239 163.092 409.577 163.3 409.059 163.718C408.54 164.135 408.156 164.681 407.907 165.358C407.658 166.034 407.533 166.764 407.533 167.547C407.533 168.331 407.658 169.058 407.907 169.729C408.156 170.401 408.54 170.942 409.059 171.354C409.577 171.766 410.239 171.972 411.042 171.972ZM420.413 173.467C420.036 173.467 419.713 173.333 419.444 173.063C419.174 172.794 419.039 172.471 419.039 172.094C419.039 171.718 419.174 171.395 419.444 171.125C419.713 170.856 420.036 170.721 420.413 170.721C420.789 170.721 421.112 170.856 421.381 171.125C421.651 171.395 421.786 171.718 421.786 172.094C421.786 172.343 421.722 172.572 421.595 172.781C421.473 172.989 421.308 173.157 421.099 173.284C420.896 173.406 420.667 173.467 420.413 173.467Z" fill="black"/>
</g>
<defs>
<filter id="filter0_b_10_2" x="-6" y="-6" width="512" height="245" filterUnits="userSpaceOnUse" color-interpolation-filters="sRGB">
<feFlood flood-opacity="0" result="BackgroundImageFix"/>
<feGaussianBlur in="BackgroundImage" stdDeviation="3"/>
<feComposite in2="SourceAlpha" operator="in" result="effect1_backgroundBlur_10_2"/>
<feBlend mode="normal" in="SourceGraphic" in2="effect1_backgroundBlur_10_2" result="shape"/>
</filter>
<filter id="filter1_d_10_2" x="100.448" y="93.2996" width="362.351" height="131.048" filterUnits="userSpaceOnUse" color-interpolation-filters="sRGB">
<feFlood flood-opacity="0" result="BackgroundImageFix"/>
<feColorMatrix in="SourceAlpha" type="matrix" values="0 0 0 0 0 0 0 0 0 0 0 0 0 0 0 0 0 0 127 0" result="hardAlpha"/>
<feOffset dy="2.86444"/>
<feGaussianBlur stdDeviation="10.7416"/>
<feComposite in2="hardAlpha" operator="out"/>
<feColorMatrix type="matrix" values="0 0 0 0 0 0 0 0 0 0 0 0 0 0 0 0 0 0 0.25 0"/>
<feBlend mode="normal" in2="BackgroundImageFix" result="effect1_dropShadow_10_2"/>
<feBlend mode="normal" in="SourceGraphic" in2="effect1_dropShadow_10_2" result="shape"/>
</filter>
<clipPath id="clip0_10_2">
<rect width="500" height="233" fill="white"/>
</clipPath>
</defs>
</svg>
