<svg width="1728" height="589" viewBox="0 0 1728 589" fill="none" xmlns="http://www.w3.org/2000/svg">
<g clip-path="url(#clip0_2_2)">
<rect width="1728" height="589" fill="#F8F9FA"/>
<g filter="url(#filter0_d_2_2)">
<rect width="1728" height="80" fill="white"/>
</g>
<path d="M131.517 48V30.5455H135.207V44.9574H142.69V48H131.517ZM150.981 48.2557C149.657 48.2557 148.512 47.9744 147.546 47.4119C146.586 46.8437 145.844 46.054 145.322 45.0426C144.799 44.0256 144.538 42.8466 144.538 41.5057C144.538 40.1534 144.799 38.9716 145.322 37.9602C145.844 36.9432 146.586 36.1534 147.546 35.5909C148.512 35.0227 149.657 34.7386 150.981 34.7386C152.305 34.7386 153.447 35.0227 154.407 35.5909C155.373 36.1534 156.117 36.9432 156.64 37.9602C157.163 38.9716 157.424 40.1534 157.424 41.5057C157.424 42.8466 157.163 44.0256 156.64 45.0426C156.117 46.054 155.373 46.8437 154.407 47.4119C153.447 47.9744 152.305 48.2557 150.981 48.2557ZM150.998 45.4432C151.6 45.4432 152.103 45.2727 152.506 44.9318C152.91 44.5852 153.214 44.1136 153.418 43.517C153.629 42.9205 153.734 42.2415 153.734 41.4801C153.734 40.7188 153.629 40.0398 153.418 39.4432C153.214 38.8466 152.91 38.375 152.506 38.0284C152.103 37.6818 151.6 37.5085 150.998 37.5085C150.39 37.5085 149.879 37.6818 149.464 38.0284C149.055 38.375 148.745 38.8466 148.535 39.4432C148.33 40.0398 148.228 40.7188 148.228 41.4801C148.228 42.2415 148.33 42.9205 148.535 43.517C148.745 44.1136 149.055 44.5852 149.464 44.9318C149.879 45.2727 150.39 45.4432 150.998 45.4432ZM165.683 53.1818C164.506 53.1818 163.498 53.0199 162.657 52.696C161.822 52.3778 161.157 51.9432 160.663 51.392C160.168 50.8409 159.847 50.2216 159.7 49.5341L163.058 49.0824C163.16 49.3438 163.322 49.5881 163.543 49.8153C163.765 50.0426 164.058 50.2244 164.421 50.3608C164.79 50.5028 165.239 50.5739 165.768 50.5739C166.558 50.5739 167.208 50.3807 167.719 49.9943C168.237 49.6136 168.495 48.9744 168.495 48.0767V45.6818H168.342C168.183 46.0455 167.944 46.3892 167.626 46.7131C167.308 47.0369 166.898 47.3011 166.398 47.5057C165.898 47.7102 165.302 47.8125 164.609 47.8125C163.626 47.8125 162.731 47.5852 161.924 47.1307C161.123 46.6705 160.484 45.9687 160.006 45.0256C159.535 44.0767 159.299 42.8778 159.299 41.429C159.299 39.946 159.54 38.7074 160.023 37.7131C160.506 36.7187 161.148 35.9744 161.95 35.4801C162.756 34.9858 163.64 34.7386 164.6 34.7386C165.333 34.7386 165.947 34.8636 166.441 35.1136C166.935 35.358 167.333 35.6648 167.634 36.0341C167.941 36.3977 168.177 36.7557 168.342 37.108H168.478V34.9091H172.083V48.1278C172.083 49.2415 171.81 50.1733 171.265 50.9233C170.719 51.6733 169.964 52.2358 168.998 52.6108C168.038 52.9915 166.933 53.1818 165.683 53.1818ZM165.759 45.0852C166.344 45.0852 166.839 44.9403 167.242 44.6506C167.651 44.3551 167.964 43.9347 168.18 43.3892C168.401 42.8381 168.512 42.179 168.512 41.4119C168.512 40.6449 168.404 39.9801 168.188 39.4176C167.972 38.8494 167.66 38.4091 167.251 38.0966C166.842 37.7841 166.344 37.6278 165.759 37.6278C165.163 37.6278 164.66 37.7898 164.251 38.1136C163.842 38.4318 163.532 38.875 163.322 39.4432C163.112 40.0114 163.006 40.6676 163.006 41.4119C163.006 42.1676 163.112 42.821 163.322 43.3722C163.538 43.9176 163.847 44.3409 164.251 44.642C164.66 44.9375 165.163 45.0852 165.759 45.0852ZM180.887 48.2557C179.563 48.2557 178.418 47.9744 177.452 47.4119C176.492 46.8437 175.751 46.054 175.228 45.0426C174.705 44.0256 174.444 42.8466 174.444 41.5057C174.444 40.1534 174.705 38.9716 175.228 37.9602C175.751 36.9432 176.492 36.1534 177.452 35.5909C178.418 35.0227 179.563 34.7386 180.887 34.7386C182.211 34.7386 183.353 35.0227 184.313 35.5909C185.279 36.1534 186.023 36.9432 186.546 37.9602C187.069 38.9716 187.33 40.1534 187.33 41.5057C187.33 42.8466 187.069 44.0256 186.546 45.0426C186.023 46.054 185.279 46.8437 184.313 47.4119C183.353 47.9744 182.211 48.2557 180.887 48.2557ZM180.904 45.4432C181.506 45.4432 182.009 45.2727 182.413 44.9318C182.816 44.5852 183.12 44.1136 183.325 43.517C183.535 42.9205 183.64 42.2415 183.64 41.4801C183.64 40.7188 183.535 40.0398 183.325 39.4432C183.12 38.8466 182.816 38.375 182.413 38.0284C182.009 37.6818 181.506 37.5085 180.904 37.5085C180.296 37.5085 179.785 37.6818 179.37 38.0284C178.961 38.375 178.651 38.8466 178.441 39.4432C178.237 40.0398 178.134 40.7188 178.134 41.4801C178.134 42.2415 178.237 42.9205 178.441 43.517C178.651 44.1136 178.961 44.5852 179.37 44.9318C179.785 45.2727 180.296 45.4432 180.904 45.4432Z" fill="#4C6EF5"/>
<path d="M944.773 36.2727C944.705 35.697 944.428 35.25 943.943 34.9318C943.458 34.6136 942.864 34.4545 942.159 34.4545C941.644 34.4545 941.193 34.5379 940.807 34.7045C940.424 34.8712 940.125 35.1004 939.909 35.392C939.697 35.6837 939.591 36.0152 939.591 36.3864C939.591 36.697 939.665 36.964 939.812 37.1875C939.964 37.4072 940.157 37.5909 940.392 37.7386C940.627 37.8826 940.873 38.0019 941.131 38.0966C941.388 38.1875 941.625 38.2614 941.841 38.3182L943.023 38.6364C943.326 38.7159 943.663 38.8258 944.034 38.9659C944.409 39.1061 944.767 39.2973 945.108 39.5398C945.453 39.7784 945.737 40.0852 945.96 40.4602C946.184 40.8352 946.295 41.2955 946.295 41.8409C946.295 42.4697 946.131 43.0379 945.801 43.5455C945.475 44.053 944.998 44.4564 944.369 44.7557C943.744 45.0549 942.985 45.2045 942.091 45.2045C941.258 45.2045 940.536 45.0701 939.926 44.8011C939.32 44.5322 938.843 44.1572 938.494 43.6761C938.15 43.1951 937.955 42.6364 937.909 42H939.364C939.402 42.4394 939.549 42.803 939.807 43.0909C940.068 43.375 940.398 43.5871 940.795 43.7273C941.197 43.8636 941.629 43.9318 942.091 43.9318C942.629 43.9318 943.112 43.8447 943.54 43.6705C943.968 43.4924 944.307 43.2462 944.557 42.9318C944.807 42.6136 944.932 42.2424 944.932 41.8182C944.932 41.4318 944.824 41.1174 944.608 40.875C944.392 40.6326 944.108 40.4356 943.756 40.2841C943.403 40.1326 943.023 40 942.614 39.8864L941.182 39.4773C940.273 39.2159 939.553 38.8428 939.023 38.358C938.492 37.8731 938.227 37.2386 938.227 36.4545C938.227 35.803 938.403 35.2348 938.756 34.75C939.112 34.2614 939.589 33.8826 940.188 33.6136C940.79 33.3409 941.462 33.2045 942.205 33.2045C942.955 33.2045 943.621 33.339 944.205 33.608C944.788 33.8731 945.25 34.2367 945.591 34.6989C945.936 35.161 946.117 35.6856 946.136 36.2727H944.773ZM952.089 45.1818C951.249 45.1818 950.523 44.9962 949.913 44.625C949.307 44.25 948.839 43.7273 948.51 43.0568C948.184 42.3826 948.021 41.5985 948.021 40.7045C948.021 39.8106 948.184 39.0227 948.51 38.3409C948.839 37.6553 949.298 37.1212 949.885 36.7386C950.476 36.3523 951.165 36.1591 951.953 36.1591C952.408 36.1591 952.857 36.2348 953.3 36.3864C953.743 36.5379 954.146 36.7841 954.51 37.125C954.874 37.4621 955.163 37.9091 955.379 38.4659C955.595 39.0227 955.703 39.7083 955.703 40.5227V41.0909H948.976V39.9318H954.339C954.339 39.4394 954.241 39 954.044 38.6136C953.851 38.2273 953.574 37.9223 953.214 37.6989C952.858 37.4754 952.438 37.3636 951.953 37.3636C951.419 37.3636 950.957 37.4962 950.567 37.7614C950.18 38.0227 949.883 38.3636 949.675 38.7841C949.466 39.2045 949.362 39.6553 949.362 40.1364V40.9091C949.362 41.5682 949.476 42.1269 949.703 42.5852C949.934 43.0398 950.254 43.3864 950.663 43.625C951.072 43.8598 951.548 43.9773 952.089 43.9773C952.442 43.9773 952.76 43.928 953.044 43.8295C953.332 43.7273 953.58 43.5758 953.788 43.375C953.997 43.1705 954.158 42.9167 954.271 42.6136L955.567 42.9773C955.43 43.4167 955.201 43.803 954.879 44.1364C954.557 44.4659 954.16 44.7235 953.686 44.9091C953.213 45.0909 952.68 45.1818 952.089 45.1818ZM957.743 45V36.2727H959.038V37.5909H959.129C959.288 37.1591 959.576 36.8087 959.993 36.5398C960.41 36.2708 960.879 36.1364 961.402 36.1364C961.5 36.1364 961.624 36.1383 961.771 36.142C961.919 36.1458 962.031 36.1515 962.107 36.1591V37.5227C962.061 37.5114 961.957 37.4943 961.794 37.4716C961.635 37.4451 961.466 37.4318 961.288 37.4318C960.864 37.4318 960.485 37.5208 960.152 37.6989C959.822 37.8731 959.561 38.1155 959.368 38.4261C959.179 38.733 959.084 39.0833 959.084 39.4773V45H957.743ZM971.098 36.2727L967.871 45H966.507L963.28 36.2727H964.734L967.143 43.2273H967.234L969.643 36.2727H971.098ZM972.868 45V36.2727H974.209V45H972.868ZM973.55 34.8182C973.288 34.8182 973.063 34.7292 972.874 34.5511C972.688 34.3731 972.595 34.1591 972.595 33.9091C972.595 33.6591 972.688 33.4451 972.874 33.267C973.063 33.089 973.288 33 973.55 33C973.811 33 974.035 33.089 974.22 33.267C974.41 33.4451 974.504 33.6591 974.504 33.9091C974.504 34.1591 974.41 34.3731 974.22 34.5511C974.035 34.7292 973.811 34.8182 973.55 34.8182ZM980.21 45.1818C979.392 45.1818 978.688 44.9886 978.097 44.6023C977.506 44.2159 977.051 43.6837 976.733 43.0057C976.415 42.3277 976.256 41.553 976.256 40.6818C976.256 39.7955 976.419 39.0133 976.744 38.3352C977.074 37.6534 977.532 37.1212 978.119 36.7386C978.71 36.3523 979.4 36.1591 980.188 36.1591C980.801 36.1591 981.354 36.2727 981.847 36.5C982.339 36.7273 982.742 37.0455 983.057 37.4545C983.371 37.8636 983.566 38.3409 983.642 38.8864H982.301C982.199 38.4886 981.972 38.1364 981.619 37.8295C981.271 37.5189 980.801 37.3636 980.21 37.3636C979.688 37.3636 979.229 37.5 978.835 37.7727C978.445 38.0417 978.14 38.4223 977.92 38.9148C977.705 39.4034 977.597 39.9773 977.597 40.6364C977.597 41.3106 977.703 41.8977 977.915 42.3977C978.131 42.8977 978.434 43.286 978.824 43.5625C979.218 43.839 979.68 43.9773 980.21 43.9773C980.559 43.9773 980.875 43.9167 981.159 43.7955C981.443 43.6742 981.684 43.5 981.881 43.2727C982.078 43.0455 982.218 42.7727 982.301 42.4545H983.642C983.566 42.9697 983.379 43.4337 983.08 43.8466C982.784 44.2557 982.392 44.5814 981.903 44.8239C981.419 45.0625 980.854 45.1818 980.21 45.1818ZM979.574 44.9545H980.688L980.597 45.4091C980.892 45.4545 981.163 45.5777 981.409 45.7784C981.655 45.983 981.778 46.3068 981.778 46.75C981.778 47.2386 981.576 47.6364 981.17 47.9432C980.769 48.2538 980.176 48.4091 979.392 48.4091L979.347 47.5227C979.699 47.5227 979.991 47.4659 980.222 47.3523C980.456 47.2424 980.574 47.0568 980.574 46.7955C980.574 46.5341 980.477 46.3561 980.284 46.2614C980.091 46.1667 979.778 46.1023 979.347 46.0682L979.574 44.9545ZM989.148 45.1818C988.36 45.1818 987.669 44.9943 987.074 44.6193C986.483 44.2443 986.021 43.7197 985.688 43.0455C985.358 42.3712 985.193 41.5833 985.193 40.6818C985.193 39.7727 985.358 38.9792 985.688 38.3011C986.021 37.6231 986.483 37.0966 987.074 36.7216C987.669 36.3466 988.36 36.1591 989.148 36.1591C989.936 36.1591 990.625 36.3466 991.216 36.7216C991.811 37.0966 992.273 37.6231 992.602 38.3011C992.936 38.9792 993.102 39.7727 993.102 40.6818C993.102 41.5833 992.936 42.3712 992.602 43.0455C992.273 43.7197 991.811 44.2443 991.216 44.6193C990.625 44.9943 989.936 45.1818 989.148 45.1818ZM989.148 43.9773C989.746 43.9773 990.239 43.8239 990.625 43.517C991.011 43.2102 991.297 42.8068 991.483 42.3068C991.669 41.8068 991.761 41.2652 991.761 40.6818C991.761 40.0985 991.669 39.5549 991.483 39.0511C991.297 38.5473 991.011 38.1402 990.625 37.8295C990.239 37.5189 989.746 37.3636 989.148 37.3636C988.549 37.3636 988.057 37.5189 987.67 37.8295C987.284 38.1402 986.998 38.5473 986.812 39.0511C986.627 39.5549 986.534 40.0985 986.534 40.6818C986.534 41.2652 986.627 41.8068 986.812 42.3068C986.998 42.8068 987.284 43.2102 987.67 43.517C988.057 43.8239 988.549 43.9773 989.148 43.9773ZM1001.33 38.2273L1000.13 38.5682C1000.05 38.3674 999.939 38.1723 999.791 37.983C999.647 37.7898 999.45 37.6307 999.2 37.5057C998.95 37.3807 998.63 37.3182 998.24 37.3182C997.706 37.3182 997.261 37.4413 996.905 37.6875C996.553 37.9299 996.376 38.2386 996.376 38.6136C996.376 38.947 996.498 39.2102 996.74 39.4034C996.982 39.5966 997.361 39.7576 997.876 39.8864L999.172 40.2045C999.952 40.3939 1000.53 40.6837 1000.92 41.0739C1001.3 41.4602 1001.49 41.9583 1001.49 42.5682C1001.49 43.0682 1001.35 43.5152 1001.06 43.9091C1000.77 44.303 1000.38 44.6136 999.865 44.8409C999.354 45.0682 998.759 45.1818 998.081 45.1818C997.191 45.1818 996.454 44.9886 995.871 44.6023C995.287 44.2159 994.918 43.6515 994.763 42.9091L996.036 42.5909C996.157 43.0606 996.386 43.4129 996.723 43.6477C997.064 43.8826 997.509 44 998.058 44C998.683 44 999.179 43.8674 999.547 43.6023C999.918 43.3333 1000.1 43.0114 1000.1 42.6364C1000.1 42.3333 999.998 42.0795 999.786 41.875C999.573 41.6667 999.248 41.5114 998.808 41.4091L997.354 41.0682C996.554 40.8788 995.967 40.5852 995.592 40.1875C995.221 39.786 995.036 39.2841 995.036 38.6818C995.036 38.1894 995.174 37.7538 995.45 37.375C995.731 36.9962 996.111 36.6989 996.592 36.483C997.077 36.267 997.626 36.1591 998.24 36.1591C999.104 36.1591 999.782 36.3485 1000.27 36.7273C1000.77 37.1061 1001.12 37.6061 1001.33 38.2273Z" fill="#343A40"/>
<path d="M1064.41 45V33.3636H1071.43V34.6136H1065.82V38.5455H1071.07V39.7955H1065.82V43.75H1071.52V45H1064.41ZM1078.79 38.5568V39.8068H1073.7V38.5568H1078.79ZM1081.33 45V33.3636H1085.4C1086.21 33.3636 1086.88 33.5038 1087.4 33.7841C1087.93 34.0606 1088.32 34.4337 1088.58 34.9034C1088.84 35.3693 1088.97 35.8864 1088.97 36.4545C1088.97 36.9545 1088.88 37.3674 1088.7 37.6932C1088.53 38.0189 1088.29 38.2765 1088.01 38.4659C1087.72 38.6553 1087.41 38.7955 1087.08 38.8864V39C1087.44 39.0227 1087.79 39.1477 1088.15 39.375C1088.51 39.6023 1088.82 39.928 1089.06 40.3523C1089.3 40.7765 1089.42 41.2955 1089.42 41.9091C1089.42 42.4924 1089.29 43.017 1089.02 43.483C1088.76 43.9489 1088.34 44.3182 1087.77 44.5909C1087.2 44.8636 1086.45 45 1085.54 45H1081.33ZM1082.74 43.75H1085.54C1086.46 43.75 1087.11 43.572 1087.5 43.2159C1087.89 42.8561 1088.08 42.4205 1088.08 41.9091C1088.08 41.5152 1087.98 41.1515 1087.78 40.8182C1087.58 40.4811 1087.29 40.2121 1086.92 40.0114C1086.55 39.8068 1086.11 39.7045 1085.6 39.7045H1082.74V43.75ZM1082.74 38.4773H1085.35C1085.78 38.4773 1086.16 38.3939 1086.5 38.2273C1086.85 38.0606 1087.12 37.8258 1087.32 37.5227C1087.52 37.2197 1087.63 36.8636 1087.63 36.4545C1087.63 35.9432 1087.45 35.5095 1087.09 35.1534C1086.74 34.7936 1086.17 34.6136 1085.4 34.6136H1082.74V38.4773ZM1095.1 45.1818C1094.31 45.1818 1093.62 44.9943 1093.03 44.6193C1092.44 44.2443 1091.97 43.7197 1091.64 43.0455C1091.31 42.3712 1091.15 41.5833 1091.15 40.6818C1091.15 39.7727 1091.31 38.9792 1091.64 38.3011C1091.97 37.6231 1092.44 37.0966 1093.03 36.7216C1093.62 36.3466 1094.31 36.1591 1095.1 36.1591C1095.89 36.1591 1096.58 36.3466 1097.17 36.7216C1097.76 37.0966 1098.23 37.6231 1098.56 38.3011C1098.89 38.9792 1099.06 39.7727 1099.06 40.6818C1099.06 41.5833 1098.89 42.3712 1098.56 43.0455C1098.23 43.7197 1097.76 44.2443 1097.17 44.6193C1096.58 44.9943 1095.89 45.1818 1095.1 45.1818ZM1095.1 43.9773C1095.7 43.9773 1096.19 43.8239 1096.58 43.517C1096.96 43.2102 1097.25 42.8068 1097.44 42.3068C1097.62 41.8068 1097.71 41.2652 1097.71 40.6818C1097.71 40.0985 1097.62 39.5549 1097.44 39.0511C1097.25 38.5473 1096.96 38.1402 1096.58 37.8295C1096.19 37.5189 1095.7 37.3636 1095.1 37.3636C1094.5 37.3636 1094.01 37.5189 1093.62 37.8295C1093.24 38.1402 1092.95 38.5473 1092.77 39.0511C1092.58 39.5549 1092.49 40.0985 1092.49 40.6818C1092.49 41.2652 1092.58 41.8068 1092.77 42.3068C1092.95 42.8068 1093.24 43.2102 1093.62 43.517C1094.01 43.8239 1094.5 43.9773 1095.1 43.9773ZM1104.65 45.1818C1103.86 45.1818 1103.17 44.9943 1102.57 44.6193C1101.98 44.2443 1101.52 43.7197 1101.19 43.0455C1100.86 42.3712 1100.69 41.5833 1100.69 40.6818C1100.69 39.7727 1100.86 38.9792 1101.19 38.3011C1101.52 37.6231 1101.98 37.0966 1102.57 36.7216C1103.17 36.3466 1103.86 36.1591 1104.65 36.1591C1105.44 36.1591 1106.13 36.3466 1106.72 36.7216C1107.31 37.0966 1107.77 37.6231 1108.1 38.3011C1108.44 38.9792 1108.6 39.7727 1108.6 40.6818C1108.6 41.5833 1108.44 42.3712 1108.1 43.0455C1107.77 43.7197 1107.31 44.2443 1106.72 44.6193C1106.13 44.9943 1105.44 45.1818 1104.65 45.1818ZM1104.65 43.9773C1105.25 43.9773 1105.74 43.8239 1106.12 43.517C1106.51 43.2102 1106.8 42.8068 1106.98 42.3068C1107.17 41.8068 1107.26 41.2652 1107.26 40.6818C1107.26 40.0985 1107.17 39.5549 1106.98 39.0511C1106.8 38.5473 1106.51 38.1402 1106.12 37.8295C1105.74 37.5189 1105.25 37.3636 1104.65 37.3636C1104.05 37.3636 1103.56 37.5189 1103.17 37.8295C1102.78 38.1402 1102.5 38.5473 1102.31 39.0511C1102.13 39.5549 1102.03 40.0985 1102.03 40.6818C1102.03 41.2652 1102.13 41.8068 1102.31 42.3068C1102.5 42.8068 1102.78 43.2102 1103.17 43.517C1103.56 43.8239 1104.05 43.9773 1104.65 43.9773ZM1111.9 41.8182L1111.88 40.1591H1112.15L1115.97 36.2727H1117.63L1113.56 40.3864H1113.44L1111.9 41.8182ZM1110.65 45V33.3636H1111.99V45H1110.65ZM1116.19 45L1112.79 40.6818L1113.74 39.75L1117.9 45H1116.19ZM1125.53 38.2273L1124.33 38.5682C1124.25 38.3674 1124.14 38.1723 1123.99 37.983C1123.85 37.7898 1123.65 37.6307 1123.4 37.5057C1123.15 37.3807 1122.83 37.3182 1122.44 37.3182C1121.91 37.3182 1121.46 37.4413 1121.11 37.6875C1120.76 37.9299 1120.58 38.2386 1120.58 38.6136C1120.58 38.947 1120.7 39.2102 1120.94 39.4034C1121.19 39.5966 1121.56 39.7576 1122.08 39.8864L1123.38 40.2045C1124.16 40.3939 1124.74 40.6837 1125.12 41.0739C1125.5 41.4602 1125.69 41.9583 1125.69 42.5682C1125.69 43.0682 1125.55 43.5152 1125.26 43.9091C1124.98 44.303 1124.58 44.6136 1124.07 44.8409C1123.56 45.0682 1122.96 45.1818 1122.28 45.1818C1121.39 45.1818 1120.66 44.9886 1120.07 44.6023C1119.49 44.2159 1119.12 43.6515 1118.97 42.9091L1120.24 42.5909C1120.36 43.0606 1120.59 43.4129 1120.93 43.6477C1121.27 43.8826 1121.71 44 1122.26 44C1122.89 44 1123.38 43.8674 1123.75 43.6023C1124.12 43.3333 1124.31 43.0114 1124.31 42.6364C1124.31 42.3333 1124.2 42.0795 1123.99 41.875C1123.78 41.6667 1123.45 41.5114 1123.01 41.4091L1121.56 41.0682C1120.76 40.8788 1120.17 40.5852 1119.8 40.1875C1119.42 39.786 1119.24 39.2841 1119.24 38.6818C1119.24 38.1894 1119.38 37.7538 1119.65 37.375C1119.93 36.9962 1120.31 36.6989 1120.8 36.483C1121.28 36.267 1121.83 36.1591 1122.44 36.1591C1123.31 36.1591 1123.98 36.3485 1124.48 36.7273C1124.97 37.1061 1125.33 37.6061 1125.53 38.2273Z" fill="#343A40"/>
<path d="M1188.89 45H1187.41L1191.68 33.3636H1193.14L1197.41 45H1195.93L1192.45 35.2045H1192.36L1188.89 45ZM1189.43 40.4545H1195.39V41.7045H1189.43V40.4545ZM1199.04 48.2727V36.2727H1200.34V37.6591H1200.49C1200.59 37.5076 1200.73 37.3144 1200.9 37.0795C1201.08 36.8409 1201.34 36.6288 1201.66 36.4432C1202 36.2538 1202.45 36.1591 1203.02 36.1591C1203.75 36.1591 1204.4 36.3428 1204.96 36.7102C1205.52 37.0777 1205.96 37.5985 1206.27 38.2727C1206.59 38.947 1206.74 39.7424 1206.74 40.6591C1206.74 41.5833 1206.59 42.3845 1206.27 43.0625C1205.96 43.7367 1205.52 44.2595 1204.97 44.6307C1204.41 44.9981 1203.77 45.1818 1203.04 45.1818C1202.48 45.1818 1202.03 45.089 1201.69 44.9034C1201.36 44.714 1201.1 44.5 1200.91 44.2614C1200.73 44.0189 1200.59 43.8182 1200.49 43.6591H1200.38V48.2727H1199.04ZM1200.36 40.6364C1200.36 41.2955 1200.45 41.8769 1200.65 42.3807C1200.84 42.8807 1201.12 43.2727 1201.49 43.5568C1201.87 43.8371 1202.32 43.9773 1202.86 43.9773C1203.42 43.9773 1203.89 43.8295 1204.26 43.5341C1204.64 43.2348 1204.92 42.8333 1205.11 42.3295C1205.31 41.822 1205.4 41.2576 1205.4 40.6364C1205.4 40.0227 1205.31 39.4697 1205.12 38.9773C1204.93 38.4811 1204.65 38.089 1204.27 37.8011C1203.9 37.5095 1203.43 37.3636 1202.86 37.3636C1202.31 37.3636 1201.85 37.5019 1201.48 37.7784C1201.11 38.0511 1200.83 38.4337 1200.64 38.9261C1200.45 39.4148 1200.36 39.9848 1200.36 40.6364ZM1208.79 45V36.2727H1210.09V37.5909H1210.18C1210.34 37.1591 1210.62 36.8087 1211.04 36.5398C1211.46 36.2708 1211.93 36.1364 1212.45 36.1364C1212.55 36.1364 1212.67 36.1383 1212.82 36.142C1212.97 36.1458 1213.08 36.1515 1213.15 36.1591V37.5227C1213.11 37.5114 1213 37.4943 1212.84 37.4716C1212.68 37.4451 1212.51 37.4318 1212.34 37.4318C1211.91 37.4318 1211.53 37.5208 1211.2 37.6989C1210.87 37.8731 1210.61 38.1155 1210.41 38.4261C1210.23 38.733 1210.13 39.0833 1210.13 39.4773V45H1208.79ZM1218.14 45.1818C1217.3 45.1818 1216.57 44.9962 1215.96 44.625C1215.35 44.25 1214.89 43.7273 1214.56 43.0568C1214.23 42.3826 1214.07 41.5985 1214.07 40.7045C1214.07 39.8106 1214.23 39.0227 1214.56 38.3409C1214.89 37.6553 1215.34 37.1212 1215.93 36.7386C1216.52 36.3523 1217.21 36.1591 1218 36.1591C1218.45 36.1591 1218.9 36.2348 1219.35 36.3864C1219.79 36.5379 1220.19 36.7841 1220.56 37.125C1220.92 37.4621 1221.21 37.9091 1221.43 38.4659C1221.64 39.0227 1221.75 39.7083 1221.75 40.5227V41.0909H1215.02V39.9318H1220.39C1220.39 39.4394 1220.29 39 1220.09 38.6136C1219.9 38.2273 1219.62 37.9223 1219.26 37.6989C1218.91 37.4754 1218.48 37.3636 1218 37.3636C1217.47 37.3636 1217 37.4962 1216.61 37.7614C1216.23 38.0227 1215.93 38.3636 1215.72 38.7841C1215.51 39.2045 1215.41 39.6553 1215.41 40.1364V40.9091C1215.41 41.5682 1215.52 42.1269 1215.75 42.5852C1215.98 43.0398 1216.3 43.3864 1216.71 43.625C1217.12 43.8598 1217.59 43.9773 1218.14 43.9773C1218.49 43.9773 1218.81 43.928 1219.09 43.8295C1219.38 43.7273 1219.63 43.5758 1219.84 43.375C1220.04 43.1705 1220.2 42.9167 1220.32 42.6136L1221.61 42.9773C1221.48 43.4167 1221.25 43.803 1220.93 44.1364C1220.6 44.4659 1220.21 44.7235 1219.73 44.9091C1219.26 45.0909 1218.73 45.1818 1218.14 45.1818ZM1225.13 39.75V45H1223.79V36.2727H1225.09V37.6364H1225.2C1225.4 37.1932 1225.71 36.8371 1226.13 36.5682C1226.55 36.2955 1227.09 36.1591 1227.74 36.1591C1228.34 36.1591 1228.85 36.2803 1229.3 36.5227C1229.74 36.7614 1230.08 37.125 1230.33 37.6136C1230.58 38.0985 1230.7 38.7121 1230.7 39.4545V45H1229.36V39.5455C1229.36 38.8598 1229.18 38.3258 1228.82 37.9432C1228.47 37.5568 1227.98 37.3636 1227.36 37.3636C1226.93 37.3636 1226.55 37.4564 1226.21 37.642C1225.88 37.8277 1225.61 38.0985 1225.42 38.4545C1225.23 38.8106 1225.13 39.2424 1225.13 39.75ZM1236.44 45.1818C1235.72 45.1818 1235.08 44.9981 1234.52 44.6307C1233.96 44.2595 1233.53 43.7367 1233.21 43.0625C1232.9 42.3845 1232.74 41.5833 1232.74 40.6591C1232.74 39.7424 1232.9 38.947 1233.21 38.2727C1233.53 37.5985 1233.96 37.0777 1234.52 36.7102C1235.08 36.3428 1235.73 36.1591 1236.47 36.1591C1237.04 36.1591 1237.48 36.2538 1237.81 36.4432C1238.15 36.6288 1238.4 36.8409 1238.58 37.0795C1238.75 37.3144 1238.89 37.5076 1238.99 37.6591H1239.1V33.3636H1240.44V45H1239.15V43.6591H1238.99C1238.89 43.8182 1238.75 44.0189 1238.57 44.2614C1238.39 44.5 1238.13 44.714 1237.79 44.9034C1237.45 45.089 1237.01 45.1818 1236.44 45.1818ZM1236.63 43.9773C1237.16 43.9773 1237.62 43.8371 1237.99 43.5568C1238.36 43.2727 1238.64 42.8807 1238.84 42.3807C1239.03 41.8769 1239.13 41.2955 1239.13 40.6364C1239.13 39.9848 1239.03 39.4148 1238.84 38.9261C1238.65 38.4337 1238.37 38.0511 1238 37.7784C1237.63 37.5019 1237.17 37.3636 1236.63 37.3636C1236.06 37.3636 1235.58 37.5095 1235.21 37.8011C1234.83 38.089 1234.55 38.4811 1234.36 38.9773C1234.17 39.4697 1234.08 40.0227 1234.08 40.6364C1234.08 41.2576 1234.18 41.822 1234.37 42.3295C1234.56 42.8333 1234.84 43.2348 1235.22 43.5341C1235.6 43.8295 1236.07 43.9773 1236.63 43.9773ZM1245.65 45.2045C1245.1 45.2045 1244.6 45.1004 1244.15 44.892C1243.7 44.6799 1243.34 44.375 1243.08 43.9773C1242.81 43.5758 1242.68 43.0909 1242.68 42.5227C1242.68 42.0227 1242.78 41.6174 1242.97 41.3068C1243.17 40.9924 1243.43 40.7462 1243.76 40.5682C1244.09 40.3902 1244.46 40.2576 1244.85 40.1705C1245.26 40.0795 1245.66 40.0076 1246.06 39.9545C1246.59 39.8864 1247.02 39.8352 1247.35 39.8011C1247.69 39.7633 1247.93 39.7008 1248.08 39.6136C1248.24 39.5265 1248.31 39.375 1248.31 39.1591V39.1136C1248.31 38.553 1248.16 38.1174 1247.85 37.8068C1247.55 37.4962 1247.09 37.3409 1246.47 37.3409C1245.83 37.3409 1245.33 37.4811 1244.97 37.7614C1244.6 38.0417 1244.35 38.3409 1244.2 38.6591L1242.93 38.2045C1243.15 37.6742 1243.46 37.2614 1243.84 36.9659C1244.22 36.6667 1244.64 36.4583 1245.09 36.3409C1245.54 36.2197 1245.99 36.1591 1246.43 36.1591C1246.71 36.1591 1247.03 36.1932 1247.39 36.2614C1247.76 36.3258 1248.12 36.4602 1248.46 36.6648C1248.8 36.8693 1249.09 37.178 1249.31 37.5909C1249.54 38.0038 1249.65 38.5568 1249.65 39.25V45H1248.31V43.8182H1248.25C1248.15 44.0076 1248 44.2102 1247.79 44.4261C1247.58 44.642 1247.3 44.8258 1246.94 44.9773C1246.59 45.1288 1246.16 45.2045 1245.65 45.2045ZM1245.86 44C1246.39 44 1246.84 43.8958 1247.2 43.6875C1247.57 43.4792 1247.84 43.2102 1248.03 42.8807C1248.22 42.5511 1248.31 42.2045 1248.31 41.8409V40.6136C1248.26 40.6818 1248.13 40.7443 1247.94 40.8011C1247.75 40.8542 1247.53 40.9015 1247.28 40.9432C1247.03 40.9811 1246.79 41.0152 1246.56 41.0455C1246.33 41.072 1246.14 41.0947 1246 41.1136C1245.65 41.1591 1245.32 41.233 1245.02 41.3352C1244.72 41.4337 1244.48 41.5833 1244.29 41.7841C1244.11 41.9811 1244.02 42.25 1244.02 42.5909C1244.02 43.0568 1244.19 43.4091 1244.54 43.6477C1244.88 43.8826 1245.33 44 1245.86 44ZM1256.78 45V33.3636H1263.76V34.6136H1258.19V38.5455H1263.24V39.7955H1258.19V45H1256.78ZM1265.9 45V36.2727H1267.19V37.5909H1267.29C1267.44 37.1591 1267.73 36.8087 1268.15 36.5398C1268.57 36.2708 1269.04 36.1364 1269.56 36.1364C1269.66 36.1364 1269.78 36.1383 1269.93 36.142C1270.08 36.1458 1270.19 36.1515 1270.26 36.1591V37.5227C1270.22 37.5114 1270.11 37.4943 1269.95 37.4716C1269.79 37.4451 1269.62 37.4318 1269.44 37.4318C1269.02 37.4318 1268.64 37.5208 1268.31 37.6989C1267.98 37.8731 1267.72 38.1155 1267.52 38.4261C1267.33 38.733 1267.24 39.0833 1267.24 39.4773V45H1265.9ZM1275.13 45.1818C1274.34 45.1818 1273.65 44.9943 1273.06 44.6193C1272.47 44.2443 1272.01 43.7197 1271.67 43.0455C1271.34 42.3712 1271.18 41.5833 1271.18 40.6818C1271.18 39.7727 1271.34 38.9792 1271.67 38.3011C1272.01 37.6231 1272.47 37.0966 1273.06 36.7216C1273.65 36.3466 1274.34 36.1591 1275.13 36.1591C1275.92 36.1591 1276.61 36.3466 1277.2 36.7216C1277.79 37.0966 1278.26 37.6231 1278.59 38.3011C1278.92 38.9792 1279.09 39.7727 1279.09 40.6818C1279.09 41.5833 1278.92 42.3712 1278.59 43.0455C1278.26 43.7197 1277.79 44.2443 1277.2 44.6193C1276.61 44.9943 1275.92 45.1818 1275.13 45.1818ZM1275.13 43.9773C1275.73 43.9773 1276.22 43.8239 1276.61 43.517C1277 43.2102 1277.28 42.8068 1277.47 42.3068C1277.65 41.8068 1277.75 41.2652 1277.75 40.6818C1277.75 40.0985 1277.65 39.5549 1277.47 39.0511C1277.28 38.5473 1277 38.1402 1276.61 37.8295C1276.22 37.5189 1275.73 37.3636 1275.13 37.3636C1274.53 37.3636 1274.04 37.5189 1273.65 37.8295C1273.27 38.1402 1272.98 38.5473 1272.8 39.0511C1272.61 39.5549 1272.52 40.0985 1272.52 40.6818C1272.52 41.2652 1272.61 41.8068 1272.8 42.3068C1272.98 42.8068 1273.27 43.2102 1273.65 43.517C1274.04 43.8239 1274.53 43.9773 1275.13 43.9773ZM1282.47 39.75V45H1281.13V36.2727H1282.43V37.6364H1282.54C1282.75 37.1932 1283.06 36.8371 1283.47 36.5682C1283.89 36.2955 1284.43 36.1591 1285.09 36.1591C1285.68 36.1591 1286.2 36.2803 1286.64 36.5227C1287.08 36.7614 1287.43 37.125 1287.67 37.6136C1287.92 38.0985 1288.04 38.7121 1288.04 39.4545V45H1286.7V39.5455C1286.7 38.8598 1286.52 38.3258 1286.17 37.9432C1285.81 37.5568 1285.32 37.3636 1284.7 37.3636C1284.27 37.3636 1283.89 37.4564 1283.55 37.642C1283.22 37.8277 1282.96 38.0985 1282.76 38.4545C1282.57 38.8106 1282.47 39.2424 1282.47 39.75ZM1294.29 36.2727V37.4091H1289.77V36.2727H1294.29ZM1291.08 34.1818H1292.42V42.5C1292.42 42.8788 1292.48 43.1629 1292.59 43.3523C1292.7 43.5379 1292.85 43.6629 1293.02 43.7273C1293.2 43.7879 1293.39 43.8182 1293.58 43.8182C1293.73 43.8182 1293.85 43.8106 1293.95 43.7955C1294.04 43.7765 1294.12 43.7614 1294.17 43.75L1294.45 44.9545C1294.36 44.9886 1294.23 45.0227 1294.07 45.0568C1293.9 45.0947 1293.7 45.1136 1293.45 45.1136C1293.07 45.1136 1292.7 45.0322 1292.33 44.8693C1291.97 44.7064 1291.67 44.4583 1291.44 44.125C1291.2 43.7917 1291.08 43.3712 1291.08 42.8636V34.1818ZM1299.87 45.1818C1299.03 45.1818 1298.3 44.9962 1297.69 44.625C1297.09 44.25 1296.62 43.7273 1296.29 43.0568C1295.97 42.3826 1295.8 41.5985 1295.8 40.7045C1295.8 39.8106 1295.97 39.0227 1296.29 38.3409C1296.62 37.6553 1297.08 37.1212 1297.67 36.7386C1298.26 36.3523 1298.95 36.1591 1299.73 36.1591C1300.19 36.1591 1300.64 36.2348 1301.08 36.3864C1301.52 36.5379 1301.93 36.7841 1302.29 37.125C1302.65 37.4621 1302.94 37.9091 1303.16 38.4659C1303.38 39.0227 1303.48 39.7083 1303.48 40.5227V41.0909H1296.76V39.9318H1302.12C1302.12 39.4394 1302.02 39 1301.83 38.6136C1301.63 38.2273 1301.36 37.9223 1301 37.6989C1300.64 37.4754 1300.22 37.3636 1299.73 37.3636C1299.2 37.3636 1298.74 37.4962 1298.35 37.7614C1297.96 38.0227 1297.66 38.3636 1297.46 38.7841C1297.25 39.2045 1297.14 39.6553 1297.14 40.1364V40.9091C1297.14 41.5682 1297.26 42.1269 1297.48 42.5852C1297.72 43.0398 1298.04 43.3864 1298.44 43.625C1298.85 43.8598 1299.33 43.9773 1299.87 43.9773C1300.22 43.9773 1300.54 43.928 1300.83 43.8295C1301.11 43.7273 1301.36 43.5758 1301.57 43.375C1301.78 43.1705 1301.94 42.9167 1302.05 42.6136L1303.35 42.9773C1303.21 43.4167 1302.98 43.803 1302.66 44.1364C1302.34 44.4659 1301.94 44.7235 1301.47 44.9091C1300.99 45.0909 1300.46 45.1818 1299.87 45.1818ZM1306.87 39.75V45H1305.52V36.2727H1306.82V37.6364H1306.93C1307.14 37.1932 1307.45 36.8371 1307.87 36.5682C1308.28 36.2955 1308.82 36.1591 1309.48 36.1591C1310.07 36.1591 1310.59 36.2803 1311.03 36.5227C1311.47 36.7614 1311.82 37.125 1312.06 37.6136C1312.31 38.0985 1312.43 38.7121 1312.43 39.4545V45H1311.09V39.5455C1311.09 38.8598 1310.91 38.3258 1310.56 37.9432C1310.2 37.5568 1309.71 37.3636 1309.09 37.3636C1308.66 37.3636 1308.28 37.4564 1307.94 37.642C1307.61 37.8277 1307.35 38.0985 1307.15 38.4545C1306.96 38.8106 1306.87 39.2424 1306.87 39.75ZM1318.18 45.1818C1317.45 45.1818 1316.81 44.9981 1316.25 44.6307C1315.7 44.2595 1315.26 43.7367 1314.95 43.0625C1314.63 42.3845 1314.47 41.5833 1314.47 40.6591C1314.47 39.7424 1314.63 38.947 1314.95 38.2727C1315.26 37.5985 1315.7 37.0777 1316.26 36.7102C1316.82 36.3428 1317.47 36.1591 1318.2 36.1591C1318.77 36.1591 1319.22 36.2538 1319.55 36.4432C1319.88 36.6288 1320.14 36.8409 1320.31 37.0795C1320.49 37.3144 1320.63 37.5076 1320.72 37.6591H1320.84V33.3636H1322.18V45H1320.88V43.6591H1320.72C1320.63 43.8182 1320.49 44.0189 1320.3 44.2614C1320.12 44.5 1319.86 44.714 1319.53 44.9034C1319.19 45.089 1318.74 45.1818 1318.18 45.1818ZM1318.36 43.9773C1318.9 43.9773 1319.35 43.8371 1319.72 43.5568C1320.1 43.2727 1320.38 42.8807 1320.57 42.3807C1320.76 41.8769 1320.86 41.2955 1320.86 40.6364C1320.86 39.9848 1320.77 39.4148 1320.58 38.9261C1320.39 38.4337 1320.11 38.0511 1319.74 37.7784C1319.36 37.5019 1318.91 37.3636 1318.36 37.3636C1317.79 37.3636 1317.32 37.5095 1316.94 37.8011C1316.57 38.089 1316.28 38.4811 1316.09 38.9773C1315.91 39.4697 1315.82 40.0227 1315.82 40.6364C1315.82 41.2576 1315.91 41.822 1316.1 42.3295C1316.29 42.8333 1316.58 43.2348 1316.95 43.5341C1317.33 43.8295 1317.8 43.9773 1318.36 43.9773Z" fill="#4C6EF5"/>
<path d="M1389 45H1385.41V33.3636H1389.16C1390.29 33.3636 1391.25 33.5966 1392.06 34.0625C1392.86 34.5246 1393.48 35.1894 1393.9 36.0568C1394.33 36.9205 1394.55 37.9545 1394.55 39.1591C1394.55 40.3712 1394.33 41.4148 1393.9 42.2898C1393.47 43.161 1392.84 43.8314 1392.01 44.3011C1391.19 44.767 1390.18 45 1389 45ZM1386.82 43.75H1388.91C1389.87 43.75 1390.67 43.5644 1391.3 43.1932C1391.93 42.822 1392.41 42.2936 1392.72 41.608C1393.03 40.9223 1393.18 40.1061 1393.18 39.1591C1393.18 38.2197 1393.03 37.411 1392.72 36.733C1392.41 36.0511 1391.96 35.5284 1391.35 35.1648C1390.74 34.7973 1389.98 34.6136 1389.07 34.6136H1386.82V43.75ZM1400.27 45.1818C1399.48 45.1818 1398.79 44.9943 1398.2 44.6193C1397.61 44.2443 1397.15 43.7197 1396.81 43.0455C1396.48 42.3712 1396.32 41.5833 1396.32 40.6818C1396.32 39.7727 1396.48 38.9792 1396.81 38.3011C1397.15 37.6231 1397.61 37.0966 1398.2 36.7216C1398.79 36.3466 1399.48 36.1591 1400.27 36.1591C1401.06 36.1591 1401.75 36.3466 1402.34 36.7216C1402.94 37.0966 1403.4 37.6231 1403.73 38.3011C1404.06 38.9792 1404.23 39.7727 1404.23 40.6818C1404.23 41.5833 1404.06 42.3712 1403.73 43.0455C1403.4 43.7197 1402.94 44.2443 1402.34 44.6193C1401.75 44.9943 1401.06 45.1818 1400.27 45.1818ZM1400.27 43.9773C1400.87 43.9773 1401.36 43.8239 1401.75 43.517C1402.14 43.2102 1402.42 42.8068 1402.61 42.3068C1402.79 41.8068 1402.89 41.2652 1402.89 40.6818C1402.89 40.0985 1402.79 39.5549 1402.61 39.0511C1402.42 38.5473 1402.14 38.1402 1401.75 37.8295C1401.36 37.5189 1400.87 37.3636 1400.27 37.3636C1399.67 37.3636 1399.18 37.5189 1398.8 37.8295C1398.41 38.1402 1398.12 38.5473 1397.94 39.0511C1397.75 39.5549 1397.66 40.0985 1397.66 40.6818C1397.66 41.2652 1397.75 41.8068 1397.94 42.3068C1398.12 42.8068 1398.41 43.2102 1398.8 43.517C1399.18 43.8239 1399.67 43.9773 1400.27 43.9773ZM1407.95 45L1405.3 36.2727H1406.7L1408.59 42.9545H1408.68L1410.55 36.2727H1411.98L1413.82 42.9318H1413.91L1415.8 36.2727H1417.2L1414.55 45H1413.23L1411.32 38.2955H1411.18L1409.27 45H1407.95ZM1420.32 39.75V45H1418.98V36.2727H1420.27V37.6364H1420.39C1420.59 37.1932 1420.9 36.8371 1421.32 36.5682C1421.73 36.2955 1422.27 36.1591 1422.93 36.1591C1423.52 36.1591 1424.04 36.2803 1424.48 36.5227C1424.93 36.7614 1425.27 37.125 1425.52 37.6136C1425.76 38.0985 1425.89 38.7121 1425.89 39.4545V45H1424.55V39.5455C1424.55 38.8598 1424.37 38.3258 1424.01 37.9432C1423.66 37.5568 1423.17 37.3636 1422.55 37.3636C1422.12 37.3636 1421.73 37.4564 1421.4 37.642C1421.06 37.8277 1420.8 38.0985 1420.61 38.4545C1420.41 38.8106 1420.32 39.2424 1420.32 39.75ZM1429.68 33.3636V45H1428.34V33.3636H1429.68ZM1435.68 45.1818C1434.89 45.1818 1434.2 44.9943 1433.61 44.6193C1433.01 44.2443 1432.55 43.7197 1432.22 43.0455C1431.89 42.3712 1431.72 41.5833 1431.72 40.6818C1431.72 39.7727 1431.89 38.9792 1432.22 38.3011C1432.55 37.6231 1433.01 37.0966 1433.61 36.7216C1434.2 36.3466 1434.89 36.1591 1435.68 36.1591C1436.47 36.1591 1437.16 36.3466 1437.75 36.7216C1438.34 37.0966 1438.8 37.6231 1439.13 38.3011C1439.47 38.9792 1439.63 39.7727 1439.63 40.6818C1439.63 41.5833 1439.47 42.3712 1439.13 43.0455C1438.8 43.7197 1438.34 44.2443 1437.75 44.6193C1437.16 44.9943 1436.47 45.1818 1435.68 45.1818ZM1435.68 43.9773C1436.28 43.9773 1436.77 43.8239 1437.16 43.517C1437.54 43.2102 1437.83 42.8068 1438.01 42.3068C1438.2 41.8068 1438.29 41.2652 1438.29 40.6818C1438.29 40.0985 1438.2 39.5549 1438.01 39.0511C1437.83 38.5473 1437.54 38.1402 1437.16 37.8295C1436.77 37.5189 1436.28 37.3636 1435.68 37.3636C1435.08 37.3636 1434.59 37.5189 1434.2 37.8295C1433.82 38.1402 1433.53 38.5473 1433.34 39.0511C1433.16 39.5549 1433.07 40.0985 1433.07 40.6818C1433.07 41.2652 1433.16 41.8068 1433.34 42.3068C1433.53 42.8068 1433.82 43.2102 1434.2 43.517C1434.59 43.8239 1435.08 43.9773 1435.68 43.9773ZM1444.25 45.2045C1443.7 45.2045 1443.19 45.1004 1442.74 44.892C1442.29 44.6799 1441.93 44.375 1441.67 43.9773C1441.4 43.5758 1441.27 43.0909 1441.27 42.5227C1441.27 42.0227 1441.37 41.6174 1441.57 41.3068C1441.76 40.9924 1442.03 40.7462 1442.36 40.5682C1442.69 40.3902 1443.05 40.2576 1443.45 40.1705C1443.85 40.0795 1444.25 40.0076 1444.66 39.9545C1445.19 39.8864 1445.62 39.8352 1445.95 39.8011C1446.28 39.7633 1446.52 39.7008 1446.67 39.6136C1446.83 39.5265 1446.91 39.375 1446.91 39.1591V39.1136C1446.91 38.553 1446.75 38.1174 1446.45 37.8068C1446.14 37.4962 1445.68 37.3409 1445.07 37.3409C1444.43 37.3409 1443.92 37.4811 1443.56 37.7614C1443.2 38.0417 1442.94 38.3409 1442.79 38.6591L1441.52 38.2045C1441.75 37.6742 1442.05 37.2614 1442.43 36.9659C1442.81 36.6667 1443.23 36.4583 1443.68 36.3409C1444.13 36.2197 1444.58 36.1591 1445.02 36.1591C1445.3 36.1591 1445.62 36.1932 1445.99 36.2614C1446.35 36.3258 1446.71 36.4602 1447.05 36.6648C1447.39 36.8693 1447.68 37.178 1447.91 37.5909C1448.13 38.0038 1448.25 38.5568 1448.25 39.25V45H1446.91V43.8182H1446.84C1446.75 44.0076 1446.6 44.2102 1446.38 44.4261C1446.17 44.642 1445.89 44.8258 1445.54 44.9773C1445.19 45.1288 1444.76 45.2045 1444.25 45.2045ZM1444.45 44C1444.98 44 1445.43 43.8958 1445.79 43.6875C1446.16 43.4792 1446.44 43.2102 1446.62 42.8807C1446.81 42.5511 1446.91 42.2045 1446.91 41.8409V40.6136C1446.85 40.6818 1446.73 40.7443 1446.53 40.8011C1446.34 40.8542 1446.12 40.9015 1445.87 40.9432C1445.63 40.9811 1445.39 41.0152 1445.15 41.0455C1444.92 41.072 1444.73 41.0947 1444.59 41.1136C1444.24 41.1591 1443.92 41.233 1443.61 41.3352C1443.31 41.4337 1443.07 41.5833 1442.88 41.7841C1442.7 41.9811 1442.61 42.25 1442.61 42.5909C1442.61 43.0568 1442.78 43.4091 1443.13 43.6477C1443.48 43.8826 1443.92 44 1444.45 44ZM1453.99 45.1818C1453.26 45.1818 1452.62 44.9981 1452.07 44.6307C1451.51 44.2595 1451.07 43.7367 1450.76 43.0625C1450.44 42.3845 1450.29 41.5833 1450.29 40.6591C1450.29 39.7424 1450.44 38.947 1450.76 38.2727C1451.07 37.5985 1451.51 37.0777 1452.07 36.7102C1452.63 36.3428 1453.28 36.1591 1454.01 36.1591C1454.58 36.1591 1455.03 36.2538 1455.36 36.4432C1455.69 36.6288 1455.95 36.8409 1456.12 37.0795C1456.3 37.3144 1456.44 37.5076 1456.54 37.6591H1456.65V33.3636H1457.99V45H1456.7V43.6591H1456.54C1456.44 43.8182 1456.3 44.0189 1456.12 44.2614C1455.93 44.5 1455.68 44.714 1455.34 44.9034C1455 45.089 1454.55 45.1818 1453.99 45.1818ZM1454.17 43.9773C1454.71 43.9773 1455.17 43.8371 1455.54 43.5568C1455.91 43.2727 1456.19 42.8807 1456.38 42.3807C1456.58 41.8769 1456.67 41.2955 1456.67 40.6364C1456.67 39.9848 1456.58 39.4148 1456.39 38.9261C1456.2 38.4337 1455.92 38.0511 1455.55 37.7784C1455.18 37.5019 1454.72 37.3636 1454.17 37.3636C1453.61 37.3636 1453.13 37.5095 1452.75 37.8011C1452.38 38.089 1452.1 38.4811 1451.91 38.9773C1451.72 39.4697 1451.63 40.0227 1451.63 40.6364C1451.63 41.2576 1451.72 41.822 1451.91 42.3295C1452.11 42.8333 1452.39 43.2348 1452.76 43.5341C1453.14 43.8295 1453.61 43.9773 1454.17 43.9773ZM1466.82 38.2273L1465.61 38.5682C1465.54 38.3674 1465.42 38.1723 1465.28 37.983C1465.13 37.7898 1464.93 37.6307 1464.68 37.5057C1464.43 37.3807 1464.11 37.3182 1463.72 37.3182C1463.19 37.3182 1462.75 37.4413 1462.39 37.6875C1462.04 37.9299 1461.86 38.2386 1461.86 38.6136C1461.86 38.947 1461.98 39.2102 1462.22 39.4034C1462.47 39.5966 1462.85 39.7576 1463.36 39.8864L1464.66 40.2045C1465.44 40.3939 1466.02 40.6837 1466.4 41.0739C1466.78 41.4602 1466.97 41.9583 1466.97 42.5682C1466.97 43.0682 1466.83 43.5152 1466.54 43.9091C1466.26 44.303 1465.86 44.6136 1465.35 44.8409C1464.84 45.0682 1464.24 45.1818 1463.57 45.1818C1462.68 45.1818 1461.94 44.9886 1461.36 44.6023C1460.77 44.2159 1460.4 43.6515 1460.25 42.9091L1461.52 42.5909C1461.64 43.0606 1461.87 43.4129 1462.21 43.6477C1462.55 43.8826 1462.99 44 1463.54 44C1464.17 44 1464.66 43.8674 1465.03 43.6023C1465.4 43.3333 1465.59 43.0114 1465.59 42.6364C1465.59 42.3333 1465.48 42.0795 1465.27 41.875C1465.06 41.6667 1464.73 41.5114 1464.29 41.4091L1462.84 41.0682C1462.04 40.8788 1461.45 40.5852 1461.08 40.1875C1460.71 39.786 1460.52 39.2841 1460.52 38.6818C1460.52 38.1894 1460.66 37.7538 1460.93 37.375C1461.21 36.9962 1461.6 36.6989 1462.08 36.483C1462.56 36.267 1463.11 36.1591 1463.72 36.1591C1464.59 36.1591 1465.27 36.3485 1465.76 36.7273C1466.25 37.1061 1466.61 37.6061 1466.82 38.2273Z" fill="#343A40"/>
<path d="M1538.77 37H1537.36C1537.28 36.5947 1537.13 36.2386 1536.93 35.9318C1536.72 35.625 1536.47 35.3674 1536.18 35.1591C1535.88 34.947 1535.56 34.7879 1535.2 34.6818C1534.85 34.5758 1534.48 34.5227 1534.09 34.5227C1533.39 34.5227 1532.75 34.7008 1532.18 35.0568C1531.61 35.4129 1531.16 35.9375 1530.82 36.6307C1530.48 37.3239 1530.32 38.1742 1530.32 39.1818C1530.32 40.1894 1530.48 41.0398 1530.82 41.733C1531.16 42.4261 1531.61 42.9508 1532.18 43.3068C1532.75 43.6629 1533.39 43.8409 1534.09 43.8409C1534.48 43.8409 1534.85 43.7879 1535.2 43.6818C1535.56 43.5758 1535.88 43.4186 1536.18 43.2102C1536.47 42.9981 1536.72 42.7386 1536.93 42.4318C1537.13 42.1212 1537.28 41.7652 1537.36 41.3636H1538.77C1538.67 41.9583 1538.47 42.4905 1538.19 42.9602C1537.91 43.4299 1537.56 43.8295 1537.15 44.1591C1536.73 44.4848 1536.26 44.733 1535.74 44.9034C1535.23 45.0739 1534.68 45.1591 1534.09 45.1591C1533.1 45.1591 1532.22 44.9167 1531.44 44.4318C1530.67 43.947 1530.06 43.2576 1529.62 42.3636C1529.18 41.4697 1528.95 40.4091 1528.95 39.1818C1528.95 37.9545 1529.18 36.8939 1529.62 36C1530.06 35.1061 1530.67 34.4167 1531.44 33.9318C1532.22 33.447 1533.1 33.2045 1534.09 33.2045C1534.68 33.2045 1535.23 33.2898 1535.74 33.4602C1536.26 33.6307 1536.73 33.8807 1537.15 34.2102C1537.56 34.536 1537.91 34.9337 1538.19 35.4034C1538.47 35.8693 1538.67 36.4015 1538.77 37ZM1544.41 45.1818C1543.63 45.1818 1542.93 44.9943 1542.34 44.6193C1541.75 44.2443 1541.29 43.7197 1540.95 43.0455C1540.62 42.3712 1540.46 41.5833 1540.46 40.6818C1540.46 39.7727 1540.62 38.9792 1540.95 38.3011C1541.29 37.6231 1541.75 37.0966 1542.34 36.7216C1542.93 36.3466 1543.63 36.1591 1544.41 36.1591C1545.2 36.1591 1545.89 36.3466 1546.48 36.7216C1547.08 37.0966 1547.54 37.6231 1547.87 38.3011C1548.2 38.9792 1548.37 39.7727 1548.37 40.6818C1548.37 41.5833 1548.2 42.3712 1547.87 43.0455C1547.54 43.7197 1547.08 44.2443 1546.48 44.6193C1545.89 44.9943 1545.2 45.1818 1544.41 45.1818ZM1544.41 43.9773C1545.01 43.9773 1545.5 43.8239 1545.89 43.517C1546.28 43.2102 1546.56 42.8068 1546.75 42.3068C1546.93 41.8068 1547.03 41.2652 1547.03 40.6818C1547.03 40.0985 1546.93 39.5549 1546.75 39.0511C1546.56 38.5473 1546.28 38.1402 1545.89 37.8295C1545.5 37.5189 1545.01 37.3636 1544.41 37.3636C1543.81 37.3636 1543.32 37.5189 1542.94 37.8295C1542.55 38.1402 1542.26 38.5473 1542.08 39.0511C1541.89 39.5549 1541.8 40.0985 1541.8 40.6818C1541.8 41.2652 1541.89 41.8068 1542.08 42.3068C1542.26 42.8068 1542.55 43.2102 1542.94 43.517C1543.32 43.8239 1543.81 43.9773 1544.41 43.9773ZM1551.76 39.75V45H1550.41V36.2727H1551.71V37.6364H1551.82C1552.03 37.1932 1552.34 36.8371 1552.76 36.5682C1553.17 36.2955 1553.71 36.1591 1554.37 36.1591C1554.96 36.1591 1555.48 36.2803 1555.92 36.5227C1556.36 36.7614 1556.71 37.125 1556.95 37.6136C1557.2 38.0985 1557.32 38.7121 1557.32 39.4545V45H1555.98V39.5455C1555.98 38.8598 1555.8 38.3258 1555.45 37.9432C1555.09 37.5568 1554.6 37.3636 1553.98 37.3636C1553.55 37.3636 1553.17 37.4564 1552.84 37.642C1552.5 37.8277 1552.24 38.0985 1552.05 38.4545C1551.85 38.8106 1551.76 39.2424 1551.76 39.75ZM1563.57 36.2727V37.4091H1559.05V36.2727H1563.57ZM1560.37 34.1818H1561.71V42.5C1561.71 42.8788 1561.76 43.1629 1561.87 43.3523C1561.98 43.5379 1562.13 43.6629 1562.3 43.7273C1562.48 43.7879 1562.67 43.8182 1562.87 43.8182C1563.01 43.8182 1563.13 43.8106 1563.23 43.7955C1563.32 43.7765 1563.4 43.7614 1563.46 43.75L1563.73 44.9545C1563.64 44.9886 1563.51 45.0227 1563.35 45.0568C1563.19 45.0947 1562.98 45.1136 1562.73 45.1136C1562.35 45.1136 1561.98 45.0322 1561.62 44.8693C1561.26 44.7064 1560.96 44.4583 1560.72 44.125C1560.48 43.7917 1560.37 43.3712 1560.37 42.8636V34.1818ZM1568.15 45.2045C1567.6 45.2045 1567.1 45.1004 1566.65 44.892C1566.2 44.6799 1565.84 44.375 1565.58 43.9773C1565.31 43.5758 1565.18 43.0909 1565.18 42.5227C1565.18 42.0227 1565.28 41.6174 1565.47 41.3068C1565.67 40.9924 1565.93 40.7462 1566.26 40.5682C1566.59 40.3902 1566.96 40.2576 1567.35 40.1705C1567.76 40.0795 1568.16 40.0076 1568.56 39.9545C1569.09 39.8864 1569.52 39.8352 1569.85 39.8011C1570.19 39.7633 1570.43 39.7008 1570.58 39.6136C1570.74 39.5265 1570.81 39.375 1570.81 39.1591V39.1136C1570.81 38.553 1570.66 38.1174 1570.35 37.8068C1570.05 37.4962 1569.59 37.3409 1568.97 37.3409C1568.33 37.3409 1567.83 37.4811 1567.47 37.7614C1567.1 38.0417 1566.85 38.3409 1566.7 38.6591L1565.43 38.2045C1565.65 37.6742 1565.96 37.2614 1566.34 36.9659C1566.72 36.6667 1567.14 36.4583 1567.59 36.3409C1568.04 36.2197 1568.49 36.1591 1568.93 36.1591C1569.21 36.1591 1569.53 36.1932 1569.89 36.2614C1570.26 36.3258 1570.62 36.4602 1570.96 36.6648C1571.3 36.8693 1571.59 37.178 1571.81 37.5909C1572.04 38.0038 1572.15 38.5568 1572.15 39.25V45H1570.81V43.8182H1570.75C1570.65 44.0076 1570.5 44.2102 1570.29 44.4261C1570.08 44.642 1569.8 44.8258 1569.44 44.9773C1569.09 45.1288 1568.66 45.2045 1568.15 45.2045ZM1568.36 44C1568.89 44 1569.34 43.8958 1569.7 43.6875C1570.07 43.4792 1570.34 43.2102 1570.53 42.8807C1570.72 42.5511 1570.81 42.2045 1570.81 41.8409V40.6136C1570.76 40.6818 1570.63 40.7443 1570.44 40.8011C1570.25 40.8542 1570.03 40.9015 1569.78 40.9432C1569.53 40.9811 1569.29 41.0152 1569.06 41.0455C1568.83 41.072 1568.64 41.0947 1568.5 41.1136C1568.15 41.1591 1567.82 41.233 1567.52 41.3352C1567.22 41.4337 1566.98 41.5833 1566.79 41.7841C1566.61 41.9811 1566.52 42.25 1566.52 42.5909C1566.52 43.0568 1566.69 43.4091 1567.04 43.6477C1567.38 43.8826 1567.83 44 1568.36 44ZM1578.4 36.2727V37.4091H1573.88V36.2727H1578.4ZM1575.19 34.1818H1576.53V42.5C1576.53 42.8788 1576.59 43.1629 1576.7 43.3523C1576.81 43.5379 1576.96 43.6629 1577.13 43.7273C1577.31 43.7879 1577.5 43.8182 1577.69 43.8182C1577.84 43.8182 1577.96 43.8106 1578.06 43.7955C1578.15 43.7765 1578.23 43.7614 1578.28 43.75L1578.56 44.9545C1578.47 44.9886 1578.34 45.0227 1578.18 45.0568C1578.01 45.0947 1577.81 45.1136 1577.56 45.1136C1577.18 45.1136 1576.81 45.0322 1576.44 44.8693C1576.08 44.7064 1575.78 44.4583 1575.55 44.125C1575.31 43.7917 1575.19 43.3712 1575.19 42.8636V34.1818ZM1583.87 45.1818C1583.08 45.1818 1582.39 44.9943 1581.79 44.6193C1581.2 44.2443 1580.74 43.7197 1580.41 43.0455C1580.08 42.3712 1579.91 41.5833 1579.91 40.6818C1579.91 39.7727 1580.08 38.9792 1580.41 38.3011C1580.74 37.6231 1581.2 37.0966 1581.79 36.7216C1582.39 36.3466 1583.08 36.1591 1583.87 36.1591C1584.65 36.1591 1585.34 36.3466 1585.93 36.7216C1586.53 37.0966 1586.99 37.6231 1587.32 38.3011C1587.65 38.9792 1587.82 39.7727 1587.82 40.6818C1587.82 41.5833 1587.65 42.3712 1587.32 43.0455C1586.99 43.7197 1586.53 44.2443 1585.93 44.6193C1585.34 44.9943 1584.65 45.1818 1583.87 45.1818ZM1583.87 43.9773C1584.46 43.9773 1584.96 43.8239 1585.34 43.517C1585.73 43.2102 1586.02 42.8068 1586.2 42.3068C1586.39 41.8068 1586.48 41.2652 1586.48 40.6818C1586.48 40.0985 1586.39 39.5549 1586.2 39.0511C1586.02 38.5473 1585.73 38.1402 1585.34 37.8295C1584.96 37.5189 1584.46 37.3636 1583.87 37.3636C1583.27 37.3636 1582.78 37.5189 1582.39 37.8295C1582 38.1402 1581.72 38.5473 1581.53 39.0511C1581.35 39.5549 1581.25 40.0985 1581.25 40.6818C1581.25 41.2652 1581.35 41.8068 1581.53 42.3068C1581.72 42.8068 1582 43.2102 1582.39 43.517C1582.78 43.8239 1583.27 43.9773 1583.87 43.9773ZM1596.05 38.2273L1594.85 38.5682C1594.77 38.3674 1594.66 38.1723 1594.51 37.983C1594.37 37.7898 1594.17 37.6307 1593.92 37.5057C1593.67 37.3807 1593.35 37.3182 1592.96 37.3182C1592.42 37.3182 1591.98 37.4413 1591.62 37.6875C1591.27 37.9299 1591.1 38.2386 1591.1 38.6136C1591.1 38.947 1591.22 39.2102 1591.46 39.4034C1591.7 39.5966 1592.08 39.7576 1592.6 39.8864L1593.89 40.2045C1594.67 40.3939 1595.25 40.6837 1595.63 41.0739C1596.02 41.4602 1596.21 41.9583 1596.21 42.5682C1596.21 43.0682 1596.06 43.5152 1595.78 43.9091C1595.49 44.303 1595.1 44.6136 1594.58 44.8409C1594.07 45.0682 1593.48 45.1818 1592.8 45.1818C1591.91 45.1818 1591.17 44.9886 1590.59 44.6023C1590.01 44.2159 1589.64 43.6515 1589.48 42.9091L1590.75 42.5909C1590.88 43.0606 1591.1 43.4129 1591.44 43.6477C1591.78 43.8826 1592.23 44 1592.78 44C1593.4 44 1593.9 43.8674 1594.27 43.6023C1594.64 43.3333 1594.82 43.0114 1594.82 42.6364C1594.82 42.3333 1594.72 42.0795 1594.5 41.875C1594.29 41.6667 1593.97 41.5114 1593.53 41.4091L1592.07 41.0682C1591.27 40.8788 1590.69 40.5852 1590.31 40.1875C1589.94 39.786 1589.75 39.2841 1589.75 38.6818C1589.75 38.1894 1589.89 37.7538 1590.17 37.375C1590.45 36.9962 1590.83 36.6989 1591.31 36.483C1591.8 36.267 1592.35 36.1591 1592.96 36.1591C1593.82 36.1591 1594.5 36.3485 1594.99 36.7273C1595.49 37.1061 1595.84 37.6061 1596.05 38.2273Z" fill="#343A40"/>
<rect x="1185" y="51" width="143" height="2" fill="#4C6EF5"/>
</g>
<defs>
<filter id="filter0_d_2_2" x="-25" y="-21" width="1778" height="130" filterUnits="userSpaceOnUse" color-interpolation-filters="sRGB">
<feFlood flood-opacity="0" result="BackgroundImageFix"/>
<feColorMatrix in="SourceAlpha" type="matrix" values="0 0 0 0 0 0 0 0 0 0 0 0 0 0 0 0 0 0 127 0" result="hardAlpha"/>
<feMorphology radius="15" operator="erode" in="SourceAlpha" result="effect1_dropShadow_2_2"/>
<feOffset dy="4"/>
<feGaussianBlur stdDeviation="20"/>
<feComposite in2="hardAlpha" operator="out"/>
<feColorMatrix type="matrix" values="0 0 0 0 0 0 0 0 0 0 0 0 0 0 0 0 0 0 0.25 0"/>
<feBlend mode="normal" in2="BackgroundImageFix" result="effect1_dropShadow_2_2"/>
<feBlend mode="normal" in="SourceGraphic" in2="effect1_dropShadow_2_2" result="shape"/>
</filter>
<clipPath id="clip0_2_2">
<rect width="1728" height="589" fill="white"/>
</clipPath>
</defs>
</svg>
