<!DOCTYPE svg PUBLIC "-//W3C//DTD SVG 1.1//EN" "http://www.w3.org/Graphics/SVG/1.1/DTD/svg11.dtd">
<!-- Uploaded to: SVG Repo, www.svgrepo.com, Transformed by: SVG Repo Mixer Tools -->
<svg version="1.1" id="Layer_1" xmlns="http://www.w3.org/2000/svg" xmlns:xlink="http://www.w3.org/1999/xlink" viewBox="0 0 511.998 511.998" xml:space="preserve" width="800px" height="800px" fill="#000000">
<g id="SVGRepo_bgCarrier" stroke-width="0"/>
<g id="SVGRepo_tracerCarrier" stroke-linecap="round" stroke-linejoin="round"/>
<g id="SVGRepo_iconCarrier"> <rect x="211.113" y="432.195" style="fill:#7E8488;" width="89.771" height="39.897"/> <polygon style="fill:#AFB6BB;" points="325.825,352.399 325.825,432.199 300.887,432.199 211.111,432.199 186.174,432.199 186.174,352.399 "/> <path style="fill:#ecf4f1;" d="M325.825,352.399H186.174C121.735,325.167,76.449,262.225,76.449,187.81 C76.448,88.658,156.848,8.259,255.999,8.259S435.55,88.658,435.55,187.81C435.55,262.224,390.264,325.167,325.825,352.399z"/> <path style="fill:#f2f2f2;" d="M176.199,187.81c0-81.827,54.811-150.748,129.676-172.381c-15.852-4.581-32.551-7.17-49.876-7.17 c-99.153,0-179.551,80.399-179.551,179.551c0,74.414,45.286,137.356,109.725,164.589h99.75 C221.486,325.166,176.199,262.224,176.199,187.81z"/> <path d="M255.999,0c-29.927,0-59.706,7.217-86.117,20.87l7.585,14.673c24.422-12.623,50.844-19.025,78.532-19.025 c94.451,0,171.292,76.841,171.292,171.292c0,67.956-40.466,129.13-103.216,156.33H187.923 c-62.75-27.2-103.216-88.374-103.216-156.33c0-54.971,26.682-106.985,71.375-139.142l-9.648-13.408 c-48.995,35.252-78.247,92.28-78.247,152.549c0,73.311,42.888,139.438,109.726,169.978v82.669h24.938v39.899h44.888v31.641h16.518 v-31.641h44.888v-39.899h24.938v-48.16h-16.518v31.641H194.433v-63.283h123.133v16.676h16.518v-19.544 c66.838-30.54,109.726-96.667,109.726-169.978C443.809,84.252,359.559,0,255.999,0z M292.628,463.84H219.37v-23.381h73.257V463.84z"/> <rect x="216.102" y="384.039" width="79.805" height="16.518"/> <path style="fill:#FFFFFF;" d="M113.076,187.81h16.518c0-69.699,56.705-126.404,126.404-126.404V44.888 C177.191,44.888,113.076,109.002,113.076,187.81z"/> <path d="M255.999,330.733c78.808,0,142.923-64.115,142.923-142.923h-16.518c0,69.699-56.705,126.404-126.404,126.404 L255.999,330.733L255.999,330.733z"/> <rect x="166.228" y="259.348" width="24.938" height="16.518"/> <rect x="191.159" y="239.405" style="fill:#FFFFFF;" width="24.938" height="16.518"/> <rect x="270.964" y="44.888" width="24.938" height="16.518"/> </g>
</svg>